<svg width="72" height="72" viewBox="0 0 72 72" fill="none" xmlns="http://www.w3.org/2000/svg">
<path d="M69.7124 35.7499C69.7124 54.5066 54.5068 69.7124 35.7499 69.7124C16.9929 69.7124 1.78741 54.5066 1.78741 35.7499C1.78741 16.993 16.9929 1.78748 35.7499 1.78748C54.5068 1.78748 69.7124 16.993 69.7124 35.7499Z" fill="url(#paint0_linear_1_659)"/>
<path fill-rule="evenodd" clip-rule="evenodd" d="M71.5 35.7502C71.5 55.4943 55.494 71.5002 35.7499 71.5002C16.0058 71.5002 0 55.4943 0 35.7502C0 16.006 16.0058 0.000244141 35.7499 0.000244141C55.494 0.000244141 71.5 16.006 71.5 35.7502ZM35.7499 69.7126C54.5069 69.7126 69.7125 54.5068 69.7125 35.7502C69.7125 16.9932 54.5069 1.78771 35.7499 1.78771C16.993 1.78771 1.78746 16.9932 1.78746 35.7502C1.78746 54.5068 16.993 69.7126 35.7499 69.7126Z" fill="url(#paint1_linear_1_659)"/>
<path d="M35.75 62.5625C50.5581 62.5625 62.5624 50.5582 62.5624 35.7501C62.5624 20.942 50.5581 8.93762 35.75 8.93762C20.9418 8.93762 8.9375 20.942 8.9375 35.7501C8.9375 50.5582 20.9418 62.5625 35.75 62.5625Z" fill="url(#paint2_linear_1_659)"/>
<path d="M41.8315 23.904L41.8319 29.2932L47.2211 29.2936L47.2217 23.9034L41.8315 23.904Z" fill="url(#paint3_linear_1_659)"/>
<path d="M23.902 41.8367L23.9022 47.2261L29.2916 47.2263L29.2922 41.8361L23.902 41.8367Z" fill="url(#paint4_linear_1_659)"/>
<path d="M41.602 41.8062L32.5927 41.6611L32.6794 47.096L47.1234 47.3276L46.8928 32.8826L41.4578 32.7959L41.602 41.8062Z" fill="url(#paint5_linear_1_659)"/>
<path d="M29.0813 29.2856L38.0915 29.4296L38.0049 23.9948L23.5598 23.764L23.7915 38.2081L29.2264 38.2947L29.0813 29.2856Z" fill="url(#paint6_linear_1_659)"/>
<path d="M32.8995 32.9067L32.8999 38.2283L38.2216 38.2287L38.2221 32.9061L32.8995 32.9067Z" fill="url(#paint7_linear_1_659)"/>
<defs>
<linearGradient id="paint0_linear_1_659" x1="20.8554" y1="1.49965" x2="-14.0707" y2="55.1222" gradientUnits="userSpaceOnUse">
<stop stop-color="#F0DA15"/>
<stop offset="0.835592" stop-color="#D86800"/>
</linearGradient>
<linearGradient id="paint1_linear_1_659" x1="20.0716" y1="-0.302691" x2="-16.6928" y2="56.1419" gradientUnits="userSpaceOnUse">
<stop stop-color="#FFF494"/>
<stop offset="0.63021" stop-color="#FFD4AD"/>
</linearGradient>
<linearGradient id="paint2_linear_1_659" x1="23.9911" y1="8.71042" x2="-3.58209" y2="51.0435" gradientUnits="userSpaceOnUse">
<stop stop-color="#FFEB3C"/>
<stop offset="1" stop-color="#FF881B"/>
</linearGradient>
<linearGradient id="paint3_linear_1_659" x1="23.6602" y1="23.6637" x2="47.2236" y2="47.2271" gradientUnits="userSpaceOnUse">
<stop stop-color="white" stop-opacity="0.99"/>
<stop offset="1" stop-color="white" stop-opacity="0.49"/>
</linearGradient>
<linearGradient id="paint4_linear_1_659" x1="23.6602" y1="23.6638" x2="47.2236" y2="47.2273" gradientUnits="userSpaceOnUse">
<stop stop-color="white" stop-opacity="0.99"/>
<stop offset="1" stop-color="white" stop-opacity="0.49"/>
</linearGradient>
<linearGradient id="paint5_linear_1_659" x1="23.6604" y1="23.6638" x2="47.2238" y2="47.2272" gradientUnits="userSpaceOnUse">
<stop stop-color="white" stop-opacity="0.99"/>
<stop offset="1" stop-color="white" stop-opacity="0.49"/>
</linearGradient>
<linearGradient id="paint6_linear_1_659" x1="23.6602" y1="23.6636" x2="47.2237" y2="47.2271" gradientUnits="userSpaceOnUse">
<stop stop-color="white" stop-opacity="0.99"/>
<stop offset="1" stop-color="white" stop-opacity="0.49"/>
</linearGradient>
<linearGradient id="paint7_linear_1_659" x1="23.6603" y1="23.6636" x2="47.2237" y2="47.227" gradientUnits="userSpaceOnUse">
<stop stop-color="white" stop-opacity="0.99"/>
<stop offset="1" stop-color="white" stop-opacity="0.49"/>
</linearGradient>
</defs>
</svg>
