<svg width="25" height="25" viewBox="0 0 25 25" fill="none" xmlns="http://www.w3.org/2000/svg">
<path d="M14.8926 12.5C14.8926 13.8214 13.8214 14.8926 12.5 14.8926C11.1786 14.8926 10.1074 13.8214 10.1074 12.5C10.1074 11.1786 11.1786 10.1074 12.5 10.1074C13.8214 10.1074 14.8926 11.1786 14.8926 12.5Z" fill="#FA9E02"/>
<path d="M18.0952 8.2674C17.9802 7.95574 17.7967 7.67365 17.5583 7.44209C17.3267 7.20367 17.0448 7.02019 16.733 6.90517C16.48 6.80695 16.1001 6.69003 15.4003 6.65817C14.6433 6.62365 14.4163 6.61621 12.4998 6.61621C10.5831 6.61621 10.3561 6.62346 9.59928 6.65798C8.89948 6.69003 8.51934 6.80695 8.26662 6.90517C7.95477 7.02019 7.67267 7.20367 7.44131 7.44209C7.20289 7.67365 7.0194 7.95555 6.9042 8.2674C6.80597 8.52032 6.68905 8.90045 6.6572 9.60026C6.62267 10.3571 6.61523 10.5841 6.61523 12.5008C6.61523 14.4173 6.62267 14.6442 6.6572 15.4013C6.68905 16.1011 6.80597 16.481 6.9042 16.7339C7.0194 17.0458 7.2027 17.3277 7.44112 17.5592C7.67267 17.7977 7.95457 17.9811 8.26643 18.0962C8.51934 18.1946 8.89948 18.3115 9.59928 18.3434C10.3561 18.3779 10.5829 18.3851 12.4996 18.3851C14.4165 18.3851 14.6435 18.3779 15.4001 18.3434C16.0999 18.3115 16.48 18.1946 16.733 18.0962C17.3589 17.8547 17.8537 17.3599 18.0952 16.7339C18.1934 16.481 18.3103 16.1011 18.3424 15.4013C18.3769 14.6442 18.3841 14.4173 18.3841 12.5008C18.3841 10.5841 18.3769 10.3571 18.3424 9.60026C18.3105 8.90045 18.1936 8.52032 18.0952 8.2674ZM12.4998 16.1863C10.4641 16.1863 8.81384 14.5363 8.81384 12.5006C8.81384 10.4649 10.4641 8.81481 12.4998 8.81481C14.5353 8.81481 16.1855 10.4649 16.1855 12.5006C16.1855 14.5363 14.5353 16.1863 12.4998 16.1863ZM16.3313 9.53045C15.8556 9.53045 15.4699 9.14478 15.4699 8.66909C15.4699 8.1934 15.8556 7.80773 16.3313 7.80773C16.807 7.80773 17.1926 8.1934 17.1926 8.66909C17.1924 9.14478 16.807 9.53045 16.3313 9.53045Z" fill="#FA9E02"/>
<path d="M12.5 0C5.5975 0 0 5.5975 0 12.5C0 19.4025 5.5975 25 12.5 25C19.4025 25 25 19.4025 25 12.5C25 5.5975 19.4025 0 12.5 0ZM19.6344 15.4593C19.5997 16.2233 19.4782 16.745 19.3008 17.2016C18.928 18.1658 18.1658 18.928 17.2016 19.3008C16.7452 19.4782 16.2233 19.5995 15.4594 19.6344C14.694 19.6693 14.4495 19.6777 12.5002 19.6777C10.5507 19.6777 10.3064 19.6693 9.54075 19.6344C8.77686 19.5995 8.255 19.4782 7.79858 19.3008C7.31945 19.1206 6.88572 18.8381 6.52714 18.4729C6.16207 18.1145 5.87959 17.6805 5.69935 17.2016C5.52197 16.7452 5.40047 16.2233 5.36575 15.4594C5.33047 14.6938 5.32227 14.4493 5.32227 12.5C5.32227 10.5507 5.33047 10.3062 5.36556 9.54075C5.40028 8.77666 5.52158 8.255 5.69897 7.79839C5.87921 7.31945 6.16188 6.88553 6.52714 6.52714C6.88553 6.16188 7.31945 5.8794 7.79839 5.69916C8.255 5.52177 8.77666 5.40047 9.54075 5.36556C10.3062 5.33066 10.5507 5.32227 12.5 5.32227C14.4493 5.32227 14.6938 5.33066 15.4593 5.36575C16.2233 5.40047 16.745 5.52177 17.2016 5.69897C17.6805 5.87921 18.1145 6.16188 18.4731 6.52714C18.8381 6.88572 19.1208 7.31945 19.3008 7.79839C19.4784 8.255 19.5997 8.77666 19.6346 9.54075C19.6695 10.3062 19.6777 10.5507 19.6777 12.5C19.6777 14.4493 19.6695 14.6938 19.6344 15.4593Z" fill="#FA9E02"/>
</svg>
