<svg width="25" height="25" viewBox="0 0 25 25" fill="none" xmlns="http://www.w3.org/2000/svg">
<path d="M10.7656 14.5163L14.2327 12.5048L10.7656 10.4834V14.5163Z" fill="#FA9E02"/>
<path d="M12.5001 0C10.0278 0 7.61103 0.733116 5.5554 2.10664C3.49978 3.48016 1.89762 5.43241 0.951516 7.71649C0.00541605 10.0006 -0.242127 12.5139 0.240191 14.9387C0.722508 17.3635 1.91302 19.5908 3.66119 21.3389C5.40935 23.0871 7.63665 24.2776 10.0614 24.7599C12.4862 25.2423 14.9995 24.9947 17.2836 24.0486C19.5677 23.1025 21.52 21.5003 22.8935 19.4447C24.267 17.3891 25.0001 14.9723 25.0001 12.5001C25.0001 9.18484 23.6832 6.0054 21.3389 3.66118C18.9947 1.31697 15.8153 0 12.5001 0V0ZM19.079 14.7122C19.0793 15.0392 19.0151 15.3629 18.8901 15.6651C18.7651 15.9672 18.5819 16.2417 18.3508 16.4729C18.1197 16.7042 17.8453 16.8876 17.5432 17.0128C17.2412 17.138 16.9175 17.2024 16.5905 17.2024H8.40958C8.08265 17.2024 7.75892 17.138 7.4569 17.0128C7.15487 16.8876 6.88047 16.7042 6.64937 16.4729C6.41827 16.2417 6.235 15.9672 6.11004 15.6651C5.98508 15.3629 5.92087 15.0392 5.92109 14.7122V10.2879C5.92087 9.96094 5.98508 9.63717 6.11004 9.33506C6.235 9.03296 6.41827 8.75843 6.64937 8.52718C6.88047 8.29593 7.15487 8.11248 7.4569 7.98732C7.75892 7.86216 8.08265 7.79773 8.40958 7.79773H16.5905C16.9175 7.79773 17.2412 7.86216 17.5432 7.98732C17.8453 8.11248 18.1197 8.29593 18.3508 8.52718C18.5819 8.75843 18.7651 9.03296 18.8901 9.33506C19.0151 9.63717 19.0793 9.96094 19.079 10.2879V14.7122Z" fill="#FA9E02"/>
</svg>
