<svg width="121" height="37" viewBox="0 0 121 37" fill="none" xmlns="http://www.w3.org/2000/svg">
<g clip-path="url(#clip0_1_912)">
<path d="M16.9564 11.0981V32.1745L14.9774 33.4411L12.9971 32.1672V11.1143L7.86853 14.4211V32.4452L14.9774 37L22.1466 32.4128V14.4097L16.9564 11.0981ZM14.9774 0L0.0258331 9.48611V27.5131L3.90886 29.9086V11.8804L14.9804 4.8304L26.0621 11.8699L26.1078 11.8967L26.1024 29.8807L29.9478 27.5119V9.48611L14.9774 0Z" fill="#F37B20"/>
<path d="M29.9478 9.48538L14.9777 0.000488281L0.0258331 9.48538L3.90809 11.8801L14.9801 4.83008L26.1082 11.8971L29.9478 9.48538ZM16.9564 11.0974V17.7433L22.1466 14.4086L16.9564 11.0974ZM7.86814 14.422L12.9956 17.7016V11.114L7.86814 14.422Z" fill="#FAB37C"/>
<path d="M52.7809 26.8323L51.7506 13.0493L46.5236 26.9073H44.8209L39.5952 13.0493L38.5884 26.8323H36.4793L37.7973 9.51025H40.5787L45.7333 23.7202L50.8866 9.51025H53.6441L54.9384 26.8323H52.7809ZM63.6404 20.7567C59.4206 21.184 58.5346 22.3878 58.5346 23.6192C58.5346 24.5977 59.157 25.226 60.2369 25.226C61.4841 25.226 62.6809 24.5734 63.6404 23.5434V20.7567ZM64.0472 26.8323L63.8076 25.226C62.8968 26.2041 61.6509 27.0832 59.7806 27.0832C57.7195 27.0832 56.4251 25.7772 56.4251 23.7437C56.4251 20.7571 58.8687 19.5784 63.6408 19.0499V18.5476C63.6408 17.0414 62.778 16.5141 61.4581 16.5141C60.0682 16.5141 58.7506 16.966 57.5035 17.5432L57.2151 15.6106C58.5818 15.0322 59.8766 14.6057 61.6509 14.6057C64.4315 14.6057 65.7731 15.7849 65.7731 18.4471V26.8327H64.0472V26.8323ZM72.1736 16.238C70.7353 16.238 69.8485 17.3949 69.8485 18.8488C69.8485 20.2298 70.7596 21.3076 72.1736 21.3076C73.6371 21.3076 74.5471 20.1799 74.5471 18.7479C74.5471 17.3175 73.5879 16.238 72.1736 16.238ZM69.0581 28.1383C69.0581 29.0921 70.2329 29.7945 72.4616 29.7945C74.6911 29.7945 75.937 28.9916 75.937 27.9871C75.937 27.2583 75.411 26.7578 73.7811 26.4566L72.4132 26.2045C71.7912 26.08 71.4556 26.0046 71 25.9041C69.6569 26.6066 69.0581 27.3094 69.0581 28.1383ZM78.0233 14.6824L78.3349 16.69L76.1534 16.9154C76.4654 17.4682 76.6105 18.0961 76.6105 18.7734C76.6105 21.3352 74.5475 22.89 72.2224 22.89C71.9344 22.89 71.6464 22.8649 71.3596 22.8146C71.0236 23.0412 70.786 23.3185 70.786 23.5438C70.786 23.9698 71.192 24.0716 73.2047 24.4481L74.0199 24.5973C76.4433 25.0493 77.9517 25.8514 77.9517 27.7099C77.9517 30.221 75.3382 31.4005 72.3667 31.4005C69.3937 31.4005 67.0202 30.422 67.0202 28.3138C67.0202 27.0828 67.8354 26.1291 69.4413 25.2256C68.9381 24.849 68.7233 24.4218 68.7233 23.969C68.7233 23.3906 69.1545 22.8138 69.9209 22.338C68.6525 21.6854 67.787 20.4057 67.787 18.7726C67.787 16.1874 69.8493 14.6062 72.1744 14.6062C73.3255 14.6062 74.3326 14.9568 75.1226 15.6106L78.0233 14.6824ZM83.297 16.3637C81.9791 16.3637 80.8516 17.3434 80.5156 19.4005H86.0286C85.7669 17.4678 84.9517 16.3637 83.297 16.3637ZM88.188 21.0834H80.4212C80.4928 23.8705 81.7612 25.1765 83.7522 25.1765C85.4065 25.1765 86.6064 24.4984 87.8516 23.4684L88.1624 25.4769C86.942 26.4809 85.4785 27.0836 83.585 27.0836C80.6131 27.0836 78.2869 25.2004 78.2869 20.8074C78.2869 16.9664 80.4452 14.6078 83.3218 14.6078C86.6529 14.6078 88.1888 17.2931 88.1888 20.6064L88.188 21.0834ZM97.1772 26.8323V18.6729C97.1772 17.4435 96.674 16.6146 95.4272 16.6146C94.3013 16.6146 93.1498 17.3945 92.1194 18.5481V26.8327H89.9855V14.8571H91.6874L91.951 16.5891C93.0286 15.5607 94.3725 14.6053 96.002 14.6053C98.1584 14.6053 99.3118 15.9608 99.3118 18.1196V26.8315L97.1772 26.8323ZM105.616 27.0334C103.601 27.0334 102.284 26.2815 102.284 23.8689V16.7407H100.557V14.8575H102.284V10.8657L104.371 10.5402V14.8566H106.838L107.127 16.7398H104.371V23.4676C104.371 24.4481 104.753 25.0493 105.952 25.0493C106.335 25.0493 106.671 25.0245 106.935 24.9739L107.223 26.8789C106.863 26.9572 106.36 27.0334 105.616 27.0334ZM112.688 16.4889C110.625 16.4889 109.594 18.3462 109.594 20.8573C109.594 23.3185 110.673 25.2256 112.688 25.2256C114.797 25.2256 115.851 23.3671 115.851 20.8573C115.851 18.3973 114.749 16.4889 112.688 16.4889ZM112.688 27.0836C109.643 27.0836 107.437 24.7992 107.437 20.8581C107.437 16.915 109.643 14.6082 112.688 14.6082C115.756 14.6082 118.009 16.915 118.009 20.8581C118.009 24.7992 115.756 27.0836 112.688 27.0836ZM119.513 14.4448H119.297V14.9539H119.501C119.686 14.9539 119.803 14.8733 119.803 14.6994C119.803 14.532 119.699 14.4448 119.513 14.4448ZM119.949 15.9259L119.457 15.1886H119.297V15.8996H119.015V14.1765H119.514C119.861 14.1765 120.091 14.3577 120.091 14.6787C120.091 14.9264 119.962 15.0889 119.757 15.1558L120.232 15.8595L119.949 15.9259ZM119.521 13.7132C118.83 13.7132 118.279 14.2093 118.279 15.0942C118.279 15.9725 118.83 16.4691 119.521 16.4691C120.22 16.4691 120.77 15.9725 120.77 15.0942C120.77 14.2093 120.213 13.7132 119.521 13.7132ZM119.521 16.6503C118.663 16.6503 118.067 16.0269 118.067 15.0942C118.067 14.1688 118.676 13.532 119.521 13.532C120.379 13.532 120.974 14.1627 120.974 15.0942C120.974 16.0204 120.366 16.6503 119.521 16.6503Z" fill="#182353"/>
</g>
<defs>
<clipPath id="clip0_1_912">
<rect width="121" height="37" fill="white"/>
</clipPath>
</defs>
</svg>
