<svg width="130" height="39" viewBox="0 0 130 39" fill="none" xmlns="http://www.w3.org/2000/svg">
<g clip-path="url(#clip0_1_917)">
<path d="M14.69 1.36379C14.95 1.36379 15.08 1.50015 15.34 1.63651C13.78 2.31833 12.22 4.09106 11.44 7.90924L8.58 8.72742C9.49 6.00015 11.31 1.36379 14.69 1.36379ZM16.12 2.72742C16.38 3.5456 16.64 4.50015 16.64 6.00015C16.64 6.13651 16.64 6.13651 16.64 6.27288L12.87 7.36379C13.65 4.50015 14.95 3.27288 16.12 2.72742ZM19.5 5.18197L17.81 5.72742C17.81 5.59106 17.81 5.4547 17.81 5.31833C17.81 4.09106 17.68 3.13651 17.42 2.31833C18.33 2.59106 19.11 3.81833 19.5 5.18197ZM27.95 7.36379C27.95 7.22742 27.82 7.09106 27.69 7.09106C27.43 7.09106 24.7 6.81833 24.7 6.81833C24.7 6.81833 22.75 4.77288 22.49 4.63651C22.23 4.36379 21.84 4.50015 21.71 4.50015C21.71 4.50015 21.32 4.63651 20.67 4.90924C20.02 3.00015 18.85 1.22742 16.9 1.22742H16.77C16.25 0.40924 15.47 0.136513 14.82 0.136513C10.14 0.000149071 7.93 6.13651 7.15 9.27288C6.11 9.5456 5.07 9.9547 3.9 10.3638C2.86 10.6365 2.86 10.7729 2.73 11.7274C2.6 12.4092 0 33.9547 0 33.9547L20.67 38.0456L31.85 35.4547C31.85 35.4547 27.95 7.63651 27.95 7.36379Z" fill="#8DB849"/>
<path d="M27.5601 7.08993C27.4301 7.08993 24.7001 6.81721 24.7001 6.81721C24.7001 6.81721 22.7501 4.77175 22.4901 4.63539C22.3601 4.49902 22.3601 4.49902 22.2301 4.49902L20.6701 38.0445L31.8501 35.4536C31.8501 35.4536 27.9501 7.63539 27.9501 7.36266C27.9501 7.2263 27.6901 7.08993 27.5601 7.08993Z" fill="#5A863E"/>
<path d="M16.9001 13.6365L15.4701 18.0001C15.4701 18.0001 14.3001 17.3183 12.7401 17.3183C10.5301 17.3183 10.4001 18.6819 10.4001 19.091C10.4001 21.0001 15.3401 21.8183 15.3401 26.4547C15.3401 30.1365 13.1301 32.4547 10.1401 32.4547C6.63006 32.4547 4.81006 30.1365 4.81006 30.1365L5.72006 26.8638C5.72006 26.8638 7.54006 28.5001 9.10006 28.5001C10.1401 28.5001 10.5301 27.6819 10.5301 27.0001C10.5301 24.4092 6.50006 24.2728 6.50006 20.0456C6.50006 16.5001 8.97006 13.091 13.7801 13.091C15.9901 12.9547 16.9001 13.6365 16.9001 13.6365Z" fill="#FFFFFE"/>
<path d="M44.98 21.6821C43.81 21.0002 43.29 20.4548 43.29 19.773C43.29 18.8184 44.07 18.273 45.37 18.273C46.8 18.273 48.1 18.9548 48.1 18.9548L49.14 15.6821C49.14 15.6821 48.23 14.8639 45.5 14.8639C41.6 14.8639 39 17.1821 39 20.4548C39 22.3639 40.3 23.7275 41.86 24.6821C43.16 25.5002 43.68 26.0457 43.68 26.8639C43.68 27.6821 43.03 28.5002 41.73 28.5002C39.91 28.5002 38.09 27.5457 38.09 27.5457L37.05 30.8184C37.05 30.8184 38.61 31.9093 41.34 31.9093C45.24 31.9093 48.1 29.8639 48.1 26.1821C48.1 24.1366 46.67 22.6366 44.98 21.6821ZM60.71 14.7275C58.76 14.7275 57.2 15.6821 56.03 17.1821L57.72 7.90934H53.3L49.01 31.5002H53.43L54.86 23.4548C55.38 20.4548 56.94 18.5457 58.37 18.5457C59.41 18.5457 59.8 19.2275 59.8 20.3184C59.8 21.0002 59.8 21.6821 59.67 22.3639L57.98 31.6366H62.4L64.09 22.0912C64.22 21.1366 64.35 19.9093 64.35 19.0912C64.35 16.3639 63.05 14.7275 60.71 14.7275ZM72.02 28.2275C70.46 28.2275 69.94 26.8639 69.94 25.2275C69.94 22.6366 71.24 18.273 73.58 18.273C75.14 18.273 75.66 19.6366 75.66 21.0002C75.66 24.0002 74.36 28.2275 72.02 28.2275ZM74.23 14.7275C68.9 14.7275 65.39 19.773 65.39 25.3639C65.39 28.9093 67.47 31.773 71.5 31.773C76.7 31.773 80.21 26.8639 80.21 21.1366C80.21 17.8639 78.39 14.7275 74.23 14.7275ZM87.23 28.3639C86.06 28.3639 85.41 27.6821 85.41 27.6821L86.19 23.3184C86.71 20.4548 88.14 18.5457 89.7 18.5457C91 18.5457 91.52 19.9093 91.52 21.1366C91.39 24.1366 89.7 28.3639 87.23 28.3639ZM91.52 14.7275C88.53 14.7275 86.84 17.4548 86.84 17.4548L87.1 15.0002H83.2C83.07 16.6366 82.68 19.2275 82.29 21.1366L79.17 38.0457H83.59L84.76 31.2275H84.89C84.89 31.2275 85.8 31.773 87.49 31.773C92.69 31.773 96.07 26.1821 96.07 20.5912C96.07 17.5912 94.77 14.7275 91.52 14.7275ZM102.31 8.18206C100.88 8.18206 99.84 9.40934 99.84 10.9093C99.84 12.273 100.62 13.2275 101.92 13.2275C103.35 13.2275 104.52 12.273 104.52 10.5002C104.52 9.13661 103.61 8.18206 102.31 8.18206ZM96.2 31.5002H100.62L103.61 15.1366H99.19L96.2 31.5002ZM114.79 15.1366H111.67L111.8 14.3184C112.06 12.6821 112.97 11.3184 114.4 11.3184C115.18 11.3184 115.83 11.5912 115.83 11.5912L116.74 7.90934C116.74 7.90934 115.96 7.50024 114.4 7.50024C112.84 7.50024 111.28 7.90933 110.11 9.00024C108.55 10.3639 107.9 12.273 107.51 14.1821L107.38 15.0002H105.3L104.65 18.5457H106.73L104.39 31.5002H108.81L111.15 18.5457H114.14L114.79 15.1366ZM125.32 15.1366C125.32 15.1366 122.59 22.3639 121.29 26.3184C121.16 25.0912 120.25 15.1366 120.25 15.1366H115.57L118.17 30.1366C118.17 30.4093 118.17 30.6821 118.04 30.9548C117.52 32.0457 116.61 33.0002 115.7 33.6821C114.92 34.3639 113.88 34.773 113.23 35.0457L114.4 39.0002C115.31 38.8639 117.13 38.0457 118.69 36.5457C120.64 34.6366 122.59 31.5002 124.41 27.4093L129.74 15.273L125.32 15.1366Z" fill="#182353"/>
</g>
<defs>
<clipPath id="clip0_1_917">
<rect width="130" height="39" fill="white"/>
</clipPath>
</defs>
</svg>
