<svg width="125" height="183" viewBox="0 0 125 183" fill="none" xmlns="http://www.w3.org/2000/svg">
<g clip-path="url(#clip0_226_19201)">
<path d="M104.605 86.669C104.64 86.6306 104.672 86.5903 104.703 86.5484C105.112 86.0262 105.488 85.4787 105.829 84.9092C106.561 83.7303 107.219 82.507 107.8 81.2463C108.675 79.3547 109.427 77.4087 110.053 75.4204C110.895 72.7585 111.563 70.0446 112.054 67.2958C112.676 63.8078 113.073 60.2834 113.245 56.7443C113.35 54.668 113.387 52.5991 113.368 50.5077C113.368 49.9839 113.064 43.9469 113.218 43.9432C112.32 43.9872 111.421 43.9632 110.526 43.8716C111.149 43.6153 112.505 43.8716 112.948 43.3289C113.184 43.0387 112.989 42.3529 112.948 42.01C112.903 41.4749 112.854 40.9435 112.805 40.4084C112.7 39.3081 112.575 38.2089 112.43 37.1111C112.147 34.7747 111.808 32.4458 111.412 30.1245C110.192 37.3824 108.251 56.0736 99.9722 79.803C99.4954 84.0425 104.605 86.669 104.605 86.669Z" fill="url(#paint0_radial_226_19201)"/>
<path d="M71.5128 77.6513C71.5128 77.6513 76.3299 50.6584 76.9156 33.0337C79.6188 38.4564 80.6476 61.9032 79.6827 72.6733C78.6539 78.9212 76.3261 80.8431 74.2085 79.7201C72.091 78.5972 71.5128 77.6513 71.5128 77.6513Z" fill="url(#paint1_radial_226_19201)"/>
<path d="M116.038 22.3126C117.81 22.9155 118.227 27.9652 116.977 31.6393C117.014 31.5263 116.736 31.0477 116.691 30.9271C116.59 30.6595 116.492 30.3882 116.391 30.1169C116.181 29.5554 115.967 28.9864 115.708 28.4513C115.478 27.9727 115.129 27.6109 115.234 27.0796C115.32 26.4276 115.344 25.769 115.306 25.1125C115.345 24.7819 115.269 24.4479 115.092 24.1666L115.118 24.7545C115.185 25.3677 115.121 25.9881 114.93 26.5746C114.897 26.6575 114.84 26.748 114.75 26.748C114.704 26.7404 114.661 26.7195 114.626 26.6877C113.875 26.1224 113.252 25.4403 112.373 25.056C111.428 24.6508 110.422 24.4063 109.396 24.3324C108.769 21.7172 114.311 21.7247 116.038 22.3126Z" fill="url(#paint2_radial_226_19201)"/>
<path d="M106.381 13.0009C106.783 13.0149 107.164 13.1851 107.444 13.4758C107.733 13.7697 108.086 14.2671 107.515 14.4631C107.041 14.6084 106.555 14.7106 106.062 14.7683C106.764 14.7683 107.463 14.7683 108.161 14.7005C108.404 16.3427 108.357 18.015 108.022 19.6408C108.022 19.6408 106.772 15.0962 101.459 14.7834C102.107 14.1529 102.88 13.6679 103.729 13.3606C104.578 13.0532 105.482 12.9307 106.381 13.0009Z" fill="url(#paint3_radial_226_19201)"/>
<path d="M70.6643 77.915C70.6643 77.915 79.2997 84.6528 83.4109 74.6817C86.8276 66.3913 89.4445 49.5918 89.3506 37.4577C89.3534 35.2256 89.2192 32.9956 88.9489 30.7801C87.4245 19.1283 88.4683 8.98379 91.4381 5.65631C87.2518 5.56587 77.9218 13.1742 78.5338 30.6633C78.7053 36.262 78.4644 41.8657 77.8129 47.4288C76.4463 59.4801 73.5215 70.8078 70.6643 77.915Z" fill="url(#paint4_radial_226_19201)"/>
<path d="M86.0691 12.3679C86.0691 12.3679 84.282 22.7875 89.3506 37.454C89.3534 35.222 89.2192 32.9919 88.9489 30.7764C87.4245 19.1246 88.4683 8.98013 91.4381 5.65265C87.2518 5.56221 77.9218 13.1706 78.5338 30.6596C78.7053 36.2583 78.4644 41.8621 77.8129 47.4251C81.3234 29.4763 78.5901 20.4134 86.0691 12.3679Z" fill="url(#paint5_radial_226_19201)"/>
<path d="M92.0389 159.018L93.0301 166.871C93.3373 166.606 93.6963 166.407 94.0841 166.289C94.472 166.17 94.8802 166.133 95.2828 166.182C96.7846 166.268 95.0425 168.737 93.9875 169.573C92.9325 170.41 94.0588 177.174 93.6496 179.062C93.2403 180.95 91.0852 181.7 90.5821 180.193C90.079 178.685 90.9876 172.656 90.9876 172.656C90.9876 172.656 88.5547 181.564 86.6473 181.542C84.74 181.519 84.128 180.279 84.8527 178.678C85.5773 177.076 89.1704 171.895 89.1704 171.895C89.1704 171.895 83.8765 178.746 82.431 178.199C80.9855 177.653 81.3797 175.817 81.8791 174.894C82.3784 173.971 88.0966 169.995 88.0966 169.995L85.3783 163.551C85.3783 163.551 88.457 159.346 92.0389 159.018Z" fill="url(#paint6_radial_226_19201)"/>
<path d="M91.6334 160.443C91.6334 160.443 92.7297 166.359 92.4368 167.154C92.144 167.949 90.2817 168.808 90.2817 168.808C90.2817 168.808 91.8361 168.703 92.6396 168.085C92.7222 169.298 92.9024 173.67 92.9362 175.81C92.97 177.951 93.4506 179.239 91.303 179.899C90.1766 179.04 91.0289 171.608 91.0289 171.608C91.0289 171.608 91.3255 170.312 90.8675 171.231C90.4094 172.151 88.9902 179.394 86.8088 180.087C84.6274 180.781 84.725 179.431 85.4196 177.739C86.1142 176.047 89.3581 170.9 89.3581 170.9C89.3581 170.9 83.7714 178.154 81.8716 176.828C81.4661 176.266 81.9204 174.672 81.9204 174.672L88.0102 169.724L87.2593 166.664C87.2593 166.664 88.5434 167.26 90.7323 164.806C88.457 165.673 86.9364 165.797 86.6211 164.577C86.3057 163.356 87.4621 162.274 91.6334 160.443Z" fill="url(#paint7_radial_226_19201)"/>
<path d="M92.0088 177.483C93.0376 177.332 92.5983 180.814 91.6146 181.542C90.2855 179.865 91.0176 177.626 92.0088 177.483Z" fill="url(#paint8_radial_226_19201)"/>
<path d="M86.5047 177.894C87.5222 178.116 85.8889 181.218 84.7175 181.553C84.0567 179.514 85.5285 177.679 86.5047 177.894Z" fill="url(#paint9_radial_226_19201)"/>
<path d="M83.3997 173.892C84.3646 174.269 82.2395 177.069 81.0268 177.201C80.7189 175.083 82.4723 173.519 83.3997 173.892Z" fill="url(#paint10_radial_226_19201)"/>
<path d="M46.3911 163.582L43.3875 170.907C43.7836 170.829 44.1915 170.834 44.5857 170.921C44.9798 171.009 45.3517 171.177 45.6778 171.416C46.9468 172.241 44.2097 173.519 42.8919 173.711C41.5741 173.903 39.22 180.358 37.9322 181.798C36.6443 183.238 34.4104 182.812 34.7108 181.259C35.0111 179.707 38.7694 174.898 38.7694 174.898C38.7694 174.898 32.2778 181.444 30.6296 180.483C28.9813 179.522 29.0564 178.135 30.4756 177.091C31.8948 176.047 37.5567 173.323 37.5567 173.323C37.5567 173.323 29.5896 176.662 28.5984 175.467C27.6072 174.273 28.5646 173.086 29.4581 172.528C30.3517 171.97 37.568 171.171 37.568 171.171L38.3602 164.211C38.3602 164.211 43.1134 162.097 46.3911 163.582Z" fill="url(#paint11_radial_226_19201)"/>
<path d="M45.3399 164.614C45.3399 164.614 43.3837 170.304 42.738 170.851C42.0922 171.397 40.0535 171.228 40.0535 171.228C40.0535 171.228 41.4577 171.902 42.4564 171.763C41.9307 172.859 39.9408 176.752 38.9196 178.629C37.8984 180.505 37.6806 181.87 35.4879 181.38C34.9473 180.08 39.5203 173.768 39.5203 173.768C39.5203 173.768 40.2337 172.927 39.3814 173.508C38.5291 174.088 33.7496 179.812 31.4781 179.326C29.2066 178.84 29.9763 177.724 31.4255 176.598C32.8748 175.471 38.2137 172.599 38.2137 172.599C38.2137 172.599 29.5182 176.055 28.5233 173.971C28.2342 172.392 31.0426 172.14 31.0426 172.14L37.598 171.009L38.4953 167.885C38.4953 167.885 39.3176 169.042 42.4301 167.994C40.0234 167.618 38.6418 166.973 38.9684 165.756C39.2951 164.539 40.8081 164.151 45.3399 164.614Z" fill="url(#paint12_radial_226_19201)"/>
<path d="M36.9147 179.16C37.9509 179.266 36.6819 182.552 35.5555 183C34.6695 181.052 35.9235 179.058 36.9147 179.16Z" fill="url(#paint13_radial_226_19201)"/>
<path d="M31.861 177.4C32.7884 177.879 30.4156 180.456 29.1953 180.475C29.0827 178.331 30.975 176.933 31.861 177.4Z" fill="url(#paint14_radial_226_19201)"/>
<path d="M31.0238 172.841C31.6433 173.681 28.3956 174.951 27.2692 174.431C28.114 172.46 30.4343 172.038 31.0238 172.841Z" fill="url(#paint15_radial_226_19201)"/>
<path d="M93.9499 83.6694C97.8509 78.1186 99.4804 66.0522 100.122 53.9746C100.686 43.442 100.498 32.9056 100.423 26.6312C100.25 13.1593 106.385 13.001 106.385 13.001C105.489 12.8539 104.633 12.5202 103.873 12.0212C103.122 11.5502 102.371 10.9962 101.62 10.5139C99.822 9.31552 98.0311 8.54301 95.8535 10.593C91.8699 14.335 88.4082 31.7901 88.1567 36.5948C88.4533 36.6287 88.7724 36.6853 89.1178 36.7456C90.7473 37.0093 92.6283 37.4239 92.6283 37.4239C92.6283 37.4239 91.2054 37.5859 88.9113 37.7706C88.671 37.7932 88.4195 37.8045 88.1604 37.8271C88.0203 40.4147 87.825 42.9269 87.5747 45.3638C86.5312 55.6884 84.507 65.8893 81.5299 75.8274C80.7039 78.6386 86.3357 83.5865 93.9499 83.6694Z" fill="url(#paint16_radial_226_19201)"/>
<path d="M99.3677 56.2658C99.6418 55.5422 99.8934 54.7584 100.119 53.9746C100.682 43.442 100.494 32.9056 100.419 26.6312C100.246 13.1593 106.381 13.001 106.381 13.001C105.485 12.8539 104.629 12.5202 103.869 12.0212C103.584 12.0212 99.364 12.172 98.7783 21.1859C98.1851 30.5127 99.8934 48.1864 99.3677 56.2658Z" fill="url(#paint17_radial_226_19201)"/>
<path d="M88.1604 36.5911C88.457 36.625 88.7762 36.6816 89.1216 36.7418C90.0414 32.0992 91.303 26.4919 92.6997 22.422C95.5569 14.0977 96.9686 9.95244 101.624 10.529C99.8258 9.33066 98.0349 8.55814 95.8572 10.6081C91.8737 14.3351 88.412 31.7902 88.1604 36.5911Z" fill="url(#paint18_radial_226_19201)"/>
<path d="M87.5747 45.3752C87.5747 45.3752 88.0778 42.1042 88.9151 37.7668C88.6748 37.7895 88.4232 37.8008 88.1642 37.8234C88.0215 40.411 87.825 42.9283 87.5747 45.3752Z" fill="url(#paint19_radial_226_19201)"/>
<path d="M93.9161 82.7236C93.6871 84.9356 98.4479 89.3333 106.385 92.1897C113.305 82.034 111.664 58.2367 109.929 44.1655C109.115 37.6387 108.289 33.2071 108.289 33.2071L107.35 33.0337L104.977 32.6079C104.977 32.6079 105.871 32.6079 107.26 32.5024C107.579 32.4798 107.924 32.4572 108.289 32.4233C106.858 21.6683 116.034 22.3127 116.034 22.3127C115.734 21.8869 114.532 21.4045 112.959 21.152C111.514 20.9101 110.043 20.8783 108.589 21.0578C104.654 21.5779 100.614 23.8464 100.468 30.0529C100.351 34.771 99.5592 41.4598 98.5267 48.8948C97.0024 59.8834 94.9712 72.4887 93.9161 82.7236Z" fill="url(#paint20_radial_226_19201)"/>
<path d="M68.7307 77.6512C68.9447 76.7317 69.1061 75.8047 69.2976 74.8777C69.7982 72.2021 70.2237 69.5115 70.5742 66.8058C70.8069 64.9844 71.0072 63.1593 71.1749 61.3304C71.3213 60.4035 71.3767 59.4644 71.3401 58.5267C71.2288 57.7717 71.3603 57.0008 71.7155 56.326C71.7257 56.2948 71.7428 56.2663 71.7655 56.2428C71.7883 56.2193 71.8162 56.2013 71.8469 56.1903C71.8792 56.1891 71.9112 56.1949 71.941 56.2073C71.9708 56.2196 71.9976 56.2382 72.0196 56.2619C72.4952 56.6387 72.9583 57.0306 73.4088 57.4376C73.5327 57.5507 73.6679 57.7127 73.6003 57.8672C73.2474 57.366 72.8757 56.8799 72.4927 56.4013C72.2261 56.0735 71.7418 55.6816 71.6066 55.2708C71.4715 54.8601 71.6517 54.0423 71.6667 53.56C71.6842 52.9721 71.6993 52.3842 71.7118 51.7964C71.7493 49.3771 71.7118 46.9578 71.5879 44.5422C76.4688 56.8083 77.092 65.8675 75.0496 75.1076C73.0071 84.3476 68.7307 77.6512 68.7307 77.6512Z" fill="url(#paint21_radial_226_19201)"/>
<path d="M103.873 88.067C103.873 88.067 109.944 74.124 112.396 50.5603C117.457 63.3238 114.705 84.3551 108.135 94.7822C106.006 88.5456 103.873 88.067 103.873 88.067Z" fill="url(#paint22_radial_226_19201)"/>
<path d="M83.2345 25.9341C82.6075 33.0337 81.5261 68.6072 75.3499 80.0028L78.0344 78.7441C78.0344 78.7441 82.9266 59.8269 83.2345 25.9341Z" fill="url(#paint23_radial_226_19201)"/>
<path d="M95.8572 21.0691C94.4117 32.7511 94.4718 63.8025 86.546 80.1347L86.8914 76.6753C86.8914 76.6753 91.5057 62.7775 93.1352 43.3063C94.7647 23.8351 95.8572 21.0691 95.8572 21.0691Z" fill="url(#paint24_radial_226_19201)"/>
<path d="M94.8923 84.2497C94.8923 84.2497 103.122 64.6843 103.43 45.9668C103.738 27.2492 104.598 25.9341 104.598 25.9341C104.598 25.9341 104.384 39.6472 104.598 45.7407C104.812 51.8341 100.727 76.7846 95.8572 84.2497H94.8923Z" fill="url(#paint25_radial_226_19201)"/>
<path d="M106.633 88.067C106.633 88.067 110.556 80.7187 112.099 69.2666C110.841 74.6211 109.089 79.8465 106.866 84.8752L106.633 88.067Z" fill="url(#paint26_radial_226_19201)"/>
<path d="M72.9282 76.6904C72.9282 76.6904 74.8055 67.8536 74.0208 60.7012C73.5064 65.3627 72.1173 73.9508 72.1173 73.9508L72.9282 76.6904Z" fill="url(#paint27_radial_226_19201)"/>
<path d="M4.46413 121.685C4.48734 121.303 4.60182 120.933 4.79788 120.605C4.99393 120.277 5.26581 120.001 5.5905 119.801C4.43034 126.478 9.12354 132.534 9.45393 132.949C9.38635 132.835 9.15733 132.225 10.0622 130.729C10.4752 138.371 14.2147 140.998 14.4437 141.148C14.3761 141.032 13.7679 139.995 13.873 137.878C15.6827 142.068 20.8227 146.432 23.9652 148.621C25.5384 158.257 34.478 162.817 36.3552 164.448C37.5832 165.569 38.6262 166.878 39.4452 168.326C39.4452 168.326 39.7981 167.542 40.1098 164.803C40.1098 166.382 41.4276 167.603 41.4276 167.603C41.3791 166.595 41.6413 165.598 42.1785 164.746C41.9946 167.474 43.0158 168.993 43.0158 168.993C43.0158 168.993 44.1722 167.049 45.5614 166.506C52.5711 164.264 53.9603 161.716 54.3245 159.289C61.8749 160.925 67.4954 156.399 69.673 160.085C71.7043 163.525 73.8594 164.181 74.1259 164.252C73.4478 163.556 72.9916 162.674 72.8156 161.716C78.2559 167.9 87.6836 166.325 87.6836 166.325C87.6836 166.325 87.4996 166.08 85.322 163.352C86.5948 164.803 90.0339 165.47 90.0339 165.47C89.5842 164.391 89.5442 163.184 89.9213 162.078C90.5183 163.54 92.1477 165.47 92.1477 165.47L92.7222 158.747C92.7222 158.747 93.8711 160.198 93.7547 163.593C95.7521 160.499 96.0074 159.531 97.1338 148.143C105.199 143.722 108.213 137.241 108.57 136.4C108.42 136.664 107.71 137.531 104.568 139.163C115.024 128.411 115.208 118.237 115.208 118.237C114.883 119.716 114.126 121.065 113.034 122.111C113.196 120.603 113.312 119.13 113.368 117.645C114.285 97.2959 106.37 78.7404 102.033 75.4393C102.281 79.4224 96.5143 83.4056 96.5143 83.4056C96.5143 83.4056 96.5706 75.7709 94.5169 70.9474C94.7008 74.2635 87.8075 79.8709 87.8075 79.8709C87.8075 79.8709 88.3594 63.6932 86.178 57.6375C84.3421 70.8268 76.2322 77.9452 75.9807 78.1525C76.6539 75.2032 76.4835 72.123 75.4888 69.2667C75.3049 72.466 67.1725 73.0765 66.3803 76.8034C62.9036 93.1846 53.9115 104.102 32.8372 105.334C29.373 105.549 25.8993 105.564 22.4334 105.379C9.20613 104.625 4.17129 100.887 4.17129 100.887C4.17129 100.887 4.65186 105.737 3.6907 107.256C5.68436 107.071 6.409 104.343 6.409 104.343C6.409 104.343 6.22502 107.015 3.74702 111.194C1.26903 115.373 4.46413 121.685 4.46413 121.685Z" fill="url(#paint28_radial_226_19201)"/>
<path d="M67.4691 90.1133C72.35 96.5987 81.9729 96.9227 81.9729 96.9227C81.9729 96.9227 77.6026 101.388 73.2361 100.962C77.6026 106.042 81.3009 108.608 88.0178 107.55C80.6288 112 71.5578 110.244 71.5578 110.244C71.5578 110.244 76.1496 119.559 84.3233 118.647C76.2585 121.553 72.902 121.361 72.902 121.361C72.902 121.361 82.0818 132.089 95.8572 123.169C94.4042 130.544 83.7639 132.805 77.6027 132.293C77.6027 132.293 81.635 136.212 90.8186 133.883C83.5386 139.762 78.2747 139.065 78.2747 139.065C78.2747 139.065 80.963 143.485 87.6836 143.647C83.3171 145.946 75.9244 144.122 75.9244 144.122C75.9244 144.122 76.8217 147.276 81.0756 149.085C76.2585 150.106 72.2299 150.483 67.4691 147.766C69.5417 151.79 71.4452 156.169 71.4452 156.169C71.4452 156.169 67.747 151.549 60.0201 150.826C62.2728 154.594 67.4691 156.403 67.4691 156.403C67.4691 156.403 56.3106 158.136 49.9354 153.558C49.9354 153.558 48.0581 155.924 52.1881 157.903C46.2485 156.848 37.4028 154.541 31.9136 150.242C32.9095 151.422 33.8074 152.682 34.5981 154.01C34.5981 154.01 25.2793 152.503 21.2169 141.631C21.0443 143.046 21.3063 144.48 21.9678 145.742C21.9678 145.742 15.3974 140.466 14.8868 133.48C13.7304 134.362 14.1358 136.174 14.1358 136.174C14.1358 136.174 10.2123 130.755 10.7568 126.233C9.27747 127.303 9.5065 128.698 9.5065 128.698C9.5065 128.698 5.06487 123.309 7.09984 116.665C5.43658 117.547 5.06487 117.596 5.06487 117.596C5.06487 117.596 3.21388 113.507 5.99224 110.436C8.77061 107.365 8.86072 104.407 8.86072 104.407C8.86072 104.407 19.869 110.888 41.8068 105.575C63.7446 100.262 67.4691 90.1133 67.4691 90.1133Z" fill="url(#paint29_radial_226_19201)"/>
<path d="M63.677 80.8883C63.677 80.8883 70.9684 78.4502 72.0271 74.5951C73.788 77.7003 71.7869 84.2685 69.673 85.6478C74.2949 83.9558 81.0343 77.2367 82.063 73.3779C83.7075 77.9377 79.0594 85.6478 79.0594 85.6478C79.0594 85.6478 85.9302 81.1935 86.5685 77.9113C85.6824 83.7184 84.2332 87.1024 78.8642 89.0695C80.4336 89.4463 88.3031 87.0609 91.2241 83.1305C91.2617 86.9855 81.2821 93.7535 76.1346 93.7724C70.9871 93.7912 68.7382 92.1897 68.7382 92.1897C68.7382 92.1897 66.6169 83.7184 63.677 80.8883Z" fill="url(#paint30_radial_226_19201)"/>
<path d="M62.821 103.992C65.7683 101.712 63.0463 114.359 68.9822 118.406C64.2778 118.632 60.0201 115.305 60.0201 115.305C60.0201 115.305 59.7986 122.702 70.6605 128.871C63.4931 131.558 58.3418 128.871 58.3418 128.871C58.3418 128.871 58.4545 135.074 64.4993 140.116C61.9237 141.597 50.4198 137.832 50.4198 137.832C50.4198 137.832 49.8303 143.598 54.6999 147.415C49.3835 148.082 41.0935 143.575 38.4052 137.06C38.8558 145.158 39.0548 147.144 39.0548 147.144C39.0548 147.144 32.3604 146.127 30.1189 137.832C28.2154 141.898 28.5983 144.427 28.5983 144.427C28.5983 144.427 22.5911 141.111 22.1556 132.907C19.9291 134.038 20.466 138.541 20.466 138.541C20.466 138.541 15.3185 134.633 16.1107 126.067C14.2147 126.821 14.4475 130.665 14.4475 130.665C14.4475 130.665 10.937 127.65 12.0709 120.777C10.5202 122.228 10.5202 124.421 10.5202 124.421C10.5202 124.421 7.27255 120.765 9.9608 112.84C9.00435 113.522 7.88219 113.93 6.71312 114.024C6.71312 114.024 8.96585 110.881 8.50404 107.339C12.9832 106.265 15.0557 109.294 15.0557 109.294C15.0557 109.294 36.2051 114.419 62.821 103.992Z" fill="url(#paint31_radial_226_19201)"/>
<path style="mix-blend-mode:multiply" opacity="0.5" d="M4.46415 121.685C4.48766 121.303 4.60228 120.933 4.79831 120.605C4.99433 120.277 5.26604 120.001 5.59051 119.801C4.43036 126.478 9.12354 132.534 9.4577 132.948C9.38636 132.835 9.15733 132.225 10.0659 130.729C10.4789 138.371 14.2185 140.998 14.4475 141.148C14.3762 141.032 13.7679 139.995 13.873 137.878C15.6865 142.068 20.8227 146.432 23.969 148.621C25.2418 156.448 31.388 160.929 34.6582 163.209C35.4091 163.736 36.0023 164.151 36.3552 164.452C37.5779 165.574 38.6157 166.882 39.4302 168.33C39.4302 168.33 39.7869 167.546 40.0948 164.806C40.0948 166.385 41.4164 167.606 41.4164 167.606C41.3623 166.601 41.6179 165.604 42.1485 164.75C41.9645 167.478 42.9858 168.997 42.9858 168.997C42.9858 168.997 44.1459 167.052 45.5313 166.51C52.5411 164.267 53.9303 161.72 54.2982 159.293C60.3055 160.593 65.1038 157.978 67.9009 158.739C68.2689 158.831 68.614 158.998 68.9144 159.231C69.2149 159.463 69.4642 159.755 69.6468 160.088C71.6742 163.529 73.8331 164.185 74.0959 164.256C73.4192 163.56 72.9643 162.677 72.7893 161.72C73.9067 162.986 75.2682 164.012 76.7917 164.735C81.8979 167.267 87.6536 166.302 87.6536 166.302C87.6536 166.302 87.4733 166.057 85.292 163.329C86.5647 164.78 90.0077 165.447 90.0077 165.447C89.5557 164.369 89.5143 163.162 89.8913 162.055C90.4882 163.518 92.1177 165.447 92.1177 165.447L92.7222 158.747C92.7222 158.747 93.8486 160.198 93.7547 163.593C94.9712 161.709 95.5306 160.612 96.0487 157.481C96.3791 155.465 96.6907 152.601 97.1375 148.131C105.041 143.801 108.105 137.482 108.54 136.449C108.447 136.587 108.339 136.714 108.217 136.826C107.737 137.275 106.715 138.036 104.583 139.14C115.02 128.411 115.204 118.237 115.204 118.237C114.88 119.722 114.122 121.076 113.027 122.126C113.184 120.618 113.301 119.145 113.357 117.66C112.52 127.654 104.41 135.643 101.876 137.911C102.976 136.781 104.756 134.286 103.471 130.533C100.614 139.577 91.9525 141.748 91.4156 141.872C92.2509 140.533 92.776 139.023 92.9521 137.453C93.1282 135.883 92.9509 134.293 92.4331 132.802C89.9701 139.871 86.4258 142.494 80.6889 143.104C86.0804 139.603 87.1692 134.55 87.1692 134.55C87.1692 134.55 83.0392 144.404 64.7771 146.5C46.515 148.595 39.0698 138.405 39.0698 138.405C39.0698 138.405 40.3538 143.526 46.699 147.705C29.0789 141.744 20.9353 124.681 20.3384 117.359C22.7713 117.875 24.8438 117.898 25.3732 117.438C28.3468 120.829 40.1623 119.477 40.1623 119.477C40.1623 119.477 39.5429 119.235 38.4052 117.276C40.4026 118.911 45.1634 120.211 48.0882 119.556C46.8717 118.625 47.7991 116.251 48.3735 116.413C48.948 116.575 48.0882 117.965 48.0882 117.965C48.0882 117.965 48.6964 118.094 52.3534 116.541C60.2942 113.798 64.0901 105.752 64.0901 105.752C64.0901 105.752 64.503 106.43 62.2991 109.596C68.633 103.31 68.6819 97.1602 68.6819 96.9906C55.755 108.884 34.7258 108.733 22.0504 107.293C22.1894 106.638 22.3283 105.993 22.4634 105.371C9.23993 104.618 4.20133 100.88 4.20133 100.88C4.20133 100.88 4.68567 105.729 3.72076 107.248C5.71817 107.063 6.43904 104.335 6.43904 104.335C6.43904 104.335 6.33767 105.763 5.31268 108.168C4.87229 109.208 4.35784 110.216 3.77332 111.182C1.28405 115.377 4.46415 121.685 4.46415 121.685Z" fill="url(#paint32_radial_226_19201)"/>
<path d="M4.46415 121.685C4.48767 121.303 4.60228 120.933 4.79831 120.605C4.99434 120.277 5.26604 120.001 5.59051 119.801C4.43036 126.478 9.12354 132.534 9.4577 132.949C9.38636 132.835 9.15733 132.225 10.0659 130.729C10.4789 138.371 14.2185 140.998 14.4475 141.149C14.3762 141.032 13.7679 139.995 13.873 137.878C15.6865 142.068 20.8227 146.432 23.969 148.621C25.2418 156.448 31.388 160.929 34.6582 163.209C28.497 158.555 24.8513 149.816 24.8513 149.816C24.8513 149.816 28.5083 152.604 30.4381 153.121C22.5235 148.448 13.9744 135.228 13.9744 135.228C13.9744 135.228 13.0358 137.384 13.2235 138.533C10.2799 134.222 11.2862 127.658 11.2862 127.658C10.5213 128.203 9.94818 128.977 9.64918 129.87C8.98087 129.237 8.56787 126.806 8.56787 126.806C8.56787 126.806 8.47776 128.717 8.77437 129.663C5.90965 125.517 6.20626 120.129 6.74692 118.229C5.5755 118.297 4.47541 119.379 4.47541 119.379C4.47541 119.379 3.12002 115.316 4.33649 112.494C5.55297 109.671 5.31268 108.153 5.31268 108.153C4.8723 109.193 4.35784 110.201 3.77331 111.167C1.28405 115.377 4.46415 121.685 4.46415 121.685Z" fill="url(#paint33_radial_226_19201)"/>
<path style="mix-blend-mode:multiply" opacity="0.5" d="M23.954 148.617C23.954 148.617 31.0688 155.125 38.6943 155.887C34.7295 156.264 32.0788 155.431 32.0788 155.431C32.0788 155.431 36.8171 157.428 44.8067 157.903C52.7964 158.378 54.2944 159.29 54.2944 159.29C54.2944 159.29 53.8777 163.239 50.3447 164.426C50.9642 162.756 50.1645 160.435 50.1645 160.435C50.1645 160.435 44.9081 160.673 43.8606 163.706C43.6053 160.563 43.7141 159.538 43.7141 159.538C43.7141 159.538 40.8344 161.257 40.9433 163.563C39.1223 161.844 38.4315 158.332 38.4315 158.332C37.97 158.924 37.6534 159.616 37.5074 160.353C37.3613 161.09 37.3897 161.852 37.5905 162.576C35.5142 162.609 32.199 161.257 29.9049 156.923C30.5244 159.561 31.0313 160.416 31.0313 160.416C31.0313 160.416 24.6824 155.457 23.954 148.599" fill="url(#paint34_radial_226_19201)"/>
<path d="M4.15253 108.111C5.67687 108.865 9.26621 108.642 10.4827 107.685C14.1208 113.994 23.7437 115.746 24.3407 115.836C24.2018 115.768 23.7099 115.365 23.2143 113.198C26.6535 116.801 33.1827 117.008 36.5655 116.79C36.0474 115.361 36.8396 113.021 36.8396 113.021C36.8396 113.021 43.0008 118.501 46.8567 118.651C46.3273 115.795 52.1882 108.1 52.1882 108.1C52.1882 108.1 53.108 112.999 49.9354 115.942C66.0537 108.782 65.2277 98.7843 65.2277 98.7843C65.2277 98.7843 65.697 101.479 65.2277 103.45C72.1436 94.3301 68.6593 86.4919 68.6593 86.4919C68.6593 86.4919 69.6543 86.4919 72.4139 84.8828C67.5142 80.3607 59.9075 65.3324 58.049 61.0478C55.7437 55.7419 46.1208 55.0749 38.8257 52.162C36.5949 51.2882 34.2089 50.8841 31.816 50.9749C29.3624 51.0501 26.9438 51.5803 24.6824 52.5388C24.6824 52.5388 20.2971 53.7447 15.0407 59.6648C9.78434 65.5849 9.93829 71.7236 8.25249 81.8982C6.5667 92.0729 1.44926 99.4664 0.289101 100.148C1.79153 100.99 3.41163 101.6 5.09492 101.957C5.09492 101.957 6.7244 106.363 4.15253 108.111Z" fill="url(#paint35_radial_226_19201)"/>
<path d="M45.1409 47.7681C49.9467 49.494 57.2418 62.1746 61.2854 73.9621C64.4392 79.7579 67.4691 81.6081 67.4691 81.6081C67.4691 81.6081 60.5908 82.6143 57.7486 79.8031C59.8061 84.2309 63.9061 82.8894 65.6857 92.2764C64.578 90.2326 63.2967 88.2884 61.8561 86.4656C61.8561 86.4656 64.2628 93.2298 60.9663 99.1914C59.089 93.7988 54.1067 90.4902 54.1067 90.4902C54.1067 90.4902 54.4634 101.758 56.9564 105.869C53.75 105.066 50.8966 100.774 50.8966 100.774C50.8966 100.774 51.4372 107.211 46.6239 111.235C46.3536 108.465 45.1409 104.708 45.1409 104.708C45.1409 104.708 41.1573 107.391 42.5127 112.4C38.5179 112.577 32.8635 105.334 32.8635 105.334C32.8635 105.334 31.8348 109.358 33.2615 113.025C28.9851 112.758 24.8851 107.478 23.5485 103.634C20.0755 107.026 20.3008 110.519 20.3008 110.519C20.3008 110.519 12.5402 106.05 13.813 98.3586C9.47272 102.383 6.9797 102.383 6.9797 102.383L9.47272 96.4819C9.47272 96.4819 7.42273 99.3421 3.23642 98.807C5.81954 95.6755 9.82939 87.8071 10.5428 82.3505C11.2561 76.8939 10.2762 74.256 13.3512 67.3938C16.4261 60.5316 18.2696 52.7763 22.8689 50.5718C27.4682 48.3673 37.5417 45.0285 45.1409 47.7681Z" fill="url(#paint36_radial_226_19201)"/>
<path d="M37.3127 51.5893C39.9746 52.7198 52.1619 55.7345 56.9564 70.254C57.9326 73.9546 61.2854 77.5233 61.2854 77.5233C61.2854 77.5233 52.9653 75.7634 50.4198 73.378C52.1656 79.7428 57.9288 83.4019 59.2054 88.64C56.3219 86.1378 51.4973 83.9144 51.4973 83.9144C51.4973 83.9144 49.1695 105.722 48.8241 102.489C48.4787 99.2555 47.1721 94.0099 45.1409 91.5868C46.3986 98.0496 38.9984 103.838 40.1511 109.019C34.5981 104.441 34.5193 93.1922 34.5193 93.1922C34.5193 93.1922 27.3856 101.671 28.3017 106.114C25.4633 103.22 25.7975 95.815 25.7975 95.815C25.7975 95.815 18.5437 96.6252 17.5375 104.105C15.6602 100.473 15.4011 94.025 18.1157 89.3748C13.2535 93.0678 8.09104 94.2737 7.88829 94.2737C7.68555 94.2737 14.485 86.703 14.4249 82.6294C15.067 77.0032 15.0632 73.1858 16.7152 70.1108C13.9894 75.428 11.9132 75.835 11.9132 75.835C11.9132 75.835 14.9919 67.2167 16.2008 61.892C17.4098 56.5673 19.0843 51.0542 24.5848 51.0202C30.0852 50.9863 32.856 49.6862 37.3127 51.5893Z" fill="url(#paint37_radial_226_19201)"/>
<path style="mix-blend-mode:multiply" opacity="0.5" d="M4.15253 108.111C5.67687 108.865 9.26997 108.642 10.4864 107.685C14.1208 113.994 23.7437 115.746 24.3407 115.836C24.2055 115.768 23.7099 115.365 23.2143 113.198C26.6573 116.801 33.1826 117.008 36.5655 116.79C36.0511 115.361 36.8433 113.021 36.8433 113.021C36.8433 113.021 43.0008 118.501 46.8567 118.651C39.0773 115.26 37.3126 111.733 34.0199 107.161C32.5181 110.372 34.0199 114.046 34.0199 114.046C14.8342 109.253 17.5638 96.757 17.5638 96.757C17.5638 96.757 18.2621 103.103 21.4234 104.671C17.3648 97.0246 19.9441 83.7825 22.1368 78.7404C22.6624 79.9387 26.9088 80.2477 29.6046 80.6246C28.3318 85.369 32.2891 92.3065 37.8871 91.176C43.4851 90.0455 41.5102 84.393 41.5102 84.393L35.4316 69.6963C35.4316 69.6963 19.869 59.4501 25.3507 57.9427C39.4377 54.0161 33.1188 52.5803 37.842 51.6118C37.842 51.6118 32.428 51.8869 31.8085 50.99C27.6785 51.1295 20.5787 49.3433 20.5787 49.3433C20.5787 49.3433 20.2971 53.7447 15.0407 59.6649C14.1592 60.6547 13.3782 61.7303 12.7091 62.8755C9.78435 67.895 9.63792 73.5136 8.24874 81.8832C6.56295 92.0578 1.43423 99.4665 0.277836 100.156C1.78026 100.998 3.40036 101.607 5.08366 101.965C5.08366 101.965 6.72439 106.363 4.15253 108.111Z" fill="url(#paint38_radial_226_19201)"/>
<path d="M4.15252 108.111C7.58417 106.155 6.59672 102.112 5.36899 100.895C6.89333 100.224 8.52281 98.3962 8.71805 98.1625C8.41017 98.3698 5.43657 100.352 2.12131 99.6699C4.08494 97.7857 8.93581 90.735 9.6304 78.6235C10.325 66.5119 13.1972 62.9508 13.1972 62.9508L12.7241 62.8604C9.79935 67.8798 9.65293 73.4985 8.26375 81.868C6.57796 92.0427 1.44925 99.4513 0.29285 100.141C1.79527 100.983 3.41536 101.592 5.09866 101.95C5.09866 101.95 6.72438 106.363 4.15252 108.111Z" fill="url(#paint39_radial_226_19201)"/>
<path d="M4.35902 41.1508C2.53431 40.6911 1.91482 40.1032 1.91482 40.1032C1.91482 40.1032 3.97982 48.5632 10.1298 51.593C12.8706 53.1342 14.2598 53.3415 14.9806 53.1682C15.7015 52.9948 15.7315 52.5351 15.7315 52.5351C15.7315 52.5351 20.1807 49.2227 21.6862 50.5001C23.1918 51.7776 23.6799 54.7697 29.6008 53.8917C35.5217 53.0137 36.817 51.593 36.817 51.593C41.5891 49.0267 48.5275 45.6276 54.5498 52.9157C56.1229 55.0109 58.3569 59.1335 58.3569 59.1335C58.3569 59.1335 64.4392 56.5559 68.0173 51.5967C69.2961 49.8856 70.1355 47.8847 70.4615 45.7708C69.4867 47.5043 68.0586 48.9376 66.3315 49.916C66.3315 49.916 70.4277 44.1354 70.1161 38.057C69.9321 34.3715 68.4416 32.623 68.2576 32.4044C70.2141 33.8126 71.6212 35.8605 72.2374 38.1964C72.8907 34.315 71.6404 24.1366 63.7709 19.0719C65.667 18.8759 67.4879 20.2815 67.4879 20.2815C67.4879 20.2815 66.8684 15.5824 59.6034 13.2573C61.3235 12.3491 63.1803 11.7304 65.1 11.4258C65.1 11.4258 60.4294 7.06958 51.426 7.71398C51.3519 7.02698 51.4318 6.33204 51.6598 5.68002C51.8878 5.028 52.2582 4.43541 52.7438 3.9456C52.7438 3.9456 46.8041 2.43825 42.5014 3.48586C39.8732 2.01242 40.5641 -0.00366211 40.5641 -0.00366211C40.5641 -0.00366211 35.1951 0.147073 31.02 2.89799C31.02 2.89799 26.9914 3.36904 27.1754 0.38825C20.8189 1.80516 15.097 4.48824 13.8242 8.90855C12.9757 7.3183 13.6853 4.71812 13.6853 4.71812H13.6628L13.6065 4.77464C12.7692 5.41903 5.64307 11.1432 5.89838 16.5433C5.21881 15.2168 5.31268 12.6732 5.31268 12.6732C5.31268 12.6732 0.758415 21.6645 3.12003 29.9663C0.724625 29.1146 0.0675812 28.0821 0.0675812 28.0821C0.0675812 28.0821 -0.893585 35.404 4.35902 41.1508Z" fill="url(#paint40_radial_226_19201)"/>
<path d="M20.909 49.3432C20.909 49.3432 21.7013 52.0602 20.909 56.1262C20.1168 60.1923 18.4198 64.1717 18.0443 64.5297C17.6689 64.8877 14.5188 69.1272 13.9744 69.3306C13.43 69.5341 10.723 66.8473 11.4063 61.6092C10.3926 60.1471 11.8794 57.6826 12.6115 58.0444C13.5201 56.3712 18.0706 48.9814 20.909 49.3432Z" fill="url(#paint41_radial_226_19201)"/>
<path d="M12.788 60.2037C13.9143 62.3931 17.4962 63.9118 17.8904 64.0587C17.9129 64.0813 17.9242 64.0813 17.9242 64.0813C17.9242 64.0813 17.9242 64.0813 17.9242 64.0587C18.269 63.4742 18.575 62.8674 18.8403 62.2424C19.5425 60.5215 20.0794 58.7372 20.4435 56.9139C20.5787 56.2469 20.7026 55.5874 20.7927 54.9543C21.3033 51.6005 21.2132 48.8797 20.68 48.7968C15.2247 48.3107 12.8218 56.6426 12.4801 58.5041C12.3944 59.0892 12.5026 59.6863 12.788 60.2037Z" fill="url(#paint42_radial_226_19201)"/>
<path opacity="0.3" d="M17.56 49.4752C17.56 49.4752 19.4861 49.1435 20.1206 50.4888C20.7551 51.8342 20.8978 54.2572 20.8978 54.2572C20.8978 54.2572 21.3671 50.8657 20.237 49.5505C19.1069 48.2354 17.56 49.4752 17.56 49.4752Z" fill="#100F16"/>
<path d="M20.8978 54.3176C20.8978 54.3176 21.9153 51.1898 21.0254 48.665C20.222 46.924 17.0419 48.5482 16.4186 47.7568C16.306 48.8007 16.7941 49.5619 17.4699 49.4828C18.1457 49.4036 19.4973 49.3433 19.9854 49.5732C20.9053 50.0593 20.8978 54.3176 20.8978 54.3176Z" fill="url(#paint43_radial_226_19201)"/>
<path d="M12.788 60.2036C13.9143 62.393 17.4962 63.9117 17.8904 64.0586H17.9354C18.2803 63.4741 18.5863 62.8673 18.8516 62.2423C19.5538 60.5214 20.0906 58.7371 20.4548 56.9138C20.5899 56.2468 20.7138 55.5873 20.8039 54.9542C20.2069 54.1908 19.3595 53.6647 18.4123 53.4695C15.9155 52.9495 13.3962 54.9203 12.8105 57.8446C12.6434 58.6212 12.6358 59.4239 12.788 60.2036Z" fill="url(#paint44_radial_226_19201)"/>
<path d="M20.466 56.8988C20.0979 58.7212 19.5573 60.5042 18.8516 62.2235C18.1548 62.6951 17.3 62.8699 16.4749 62.7096C14.5977 62.3328 13.4713 60.2413 13.9031 58.0519C14.3348 55.8625 16.2271 54.3966 18.0931 54.7847C18.6331 54.9102 19.1331 55.1695 19.5476 55.5387C19.9621 55.908 20.2778 56.3756 20.466 56.8988Z" fill="#100F16"/>
<path d="M16.4937 56.2506C15.6995 56.2506 15.0557 55.6044 15.0557 54.8073C15.0557 54.0102 15.6995 53.364 16.4937 53.364C17.2879 53.364 17.9317 54.0102 17.9317 54.8073C17.9317 55.6044 17.2879 56.2506 16.4937 56.2506Z" fill="white"/>
<path d="M12.2661 58.6247C12.2661 58.6247 11.9507 59.8344 13.1709 61.2098C14.3912 62.5853 17.56 64.2924 17.56 64.2924C17.56 64.2924 14.7704 67.3598 12.4613 66.8661C11.6353 64.5335 11.5415 63.4558 11.5602 62.3253C11.5602 62.0276 12.6528 62.7021 12.6528 62.7021C12.6528 62.7021 11.0046 61.3229 11.395 60.0039C11.7855 58.685 12.0371 58.6134 12.2661 58.6247Z" fill="url(#paint45_radial_226_19201)"/>
<path d="M12.2774 59.9023C12.425 60.5266 12.7831 61.0805 13.2911 61.47C13.4788 61.7978 13.1409 61.828 13.0508 62.1935C13.012 62.4598 13.0621 62.7314 13.1935 62.966C13.1935 62.966 11.1397 61.7639 12.2774 59.9023Z" fill="url(#paint46_radial_226_19201)"/>
<path d="M12.9457 63.0903C12.9457 63.0903 12.4914 62.6117 12.2248 62.6268C11.9582 62.6419 12.007 65.3815 12.6415 66.5761C12.6719 65.409 12.7734 64.2449 12.9457 63.0903Z" fill="url(#paint47_radial_226_19201)"/>
<path d="M46.485 65.9544C44.4981 63.6065 43.2755 60.704 42.982 57.6375C42.6066 52.6972 43.7667 49.724 46.4024 48.6236C49.0381 47.5232 55.8714 52.0151 56.9564 57.9616C55.4321 61.4662 52.2332 63.6255 46.485 65.9544Z" fill="url(#paint48_radial_226_19201)"/>
<path d="M57.1404 57.2532C57.1404 57.2532 55.9953 50.8733 49.4736 48.8648C42.952 46.8562 42.6817 57.3587 43.8944 60.6033C44.5216 62.3887 45.4277 64.0627 46.5789 65.5624C46.5789 65.5624 54.1518 62.7286 57.1404 57.2532Z" fill="url(#paint49_radial_226_19201)"/>
<path d="M43.3274 57.6375C43.3274 57.6375 41.7956 55.286 42.9182 51.48C43.6691 48.8873 45.5163 47.7116 47.2847 47.4779C50.2358 47.1011 53.322 49.0192 55.1392 48.4539C54.6175 49.4042 53.7644 50.1275 52.7438 50.4851C52.7438 50.4851 48.9893 48.1638 46.6577 49.3094C44.1722 50.5266 43.0796 55.3312 43.3274 57.6375Z" fill="url(#paint50_radial_226_19201)"/>
<path d="M45.5941 60.7867C44.1898 58.1325 44.8863 55.0028 47.1499 53.7963C49.4134 52.5898 52.3869 53.7635 53.7912 56.4177C55.1955 59.0719 54.499 62.2017 52.2354 63.4081C49.9718 64.6146 46.9984 63.441 45.5941 60.7867Z" fill="url(#paint51_radial_226_19201)"/>
<path d="M46.0908 65.7621C45.3061 66.0824 47.0257 67.6463 48.1483 67.8045C48.9893 69.0669 51.3246 71.7425 55.0379 71.1546C58.7511 70.5668 59.1678 62.9283 58.5896 59.6196C58.6122 58.1123 58.6798 56.9026 56.8813 56.2695C57.0076 56.5855 57.0946 56.9158 57.1404 57.2531C57.1404 57.2531 54.3358 62.3818 46.0908 65.7621Z" fill="url(#paint52_radial_226_19201)"/>
<path d="M46.6453 60.2262C45.6008 58.2521 46.1184 55.9245 47.8014 55.0275C49.4844 54.1305 51.6955 55.0036 52.74 56.9778C53.7845 58.9519 53.2669 61.2794 51.5839 62.1765C49.9008 63.0735 47.6897 62.2004 46.6453 60.2262Z" fill="#100F16"/>
<path d="M46.5826 57.5055C45.7884 57.5055 45.1446 56.8593 45.1446 56.0622C45.1446 55.2651 45.7884 54.6189 46.5826 54.6189C47.3768 54.6189 48.0206 55.2651 48.0206 56.0622C48.0206 56.8593 47.3768 57.5055 46.5826 57.5055Z" fill="white"/>
<path d="M57.1404 57.7205C57.1404 57.7205 53.9716 63.064 46.7065 65.7999C46.2597 66.0373 47.7202 67.5861 48.6777 67.3298C49.3987 67.105 50.0916 66.7978 50.7427 66.4141C50.1822 66.9562 49.5506 67.419 48.8654 67.7896C49.0756 68.5621 51.4936 71.1321 54.944 70.6196C58.3944 70.1071 57.3093 61.5152 57.3093 61.5152C57.3093 61.5152 56.4345 62.299 55.8526 62.7098C56.7612 61.3871 58.7511 59.8797 57.1404 57.7205Z" fill="url(#paint53_radial_226_19201)"/>
<path d="M51.2645 63.5952C50.2358 64.4356 50.1081 65.34 51.0993 65.7168C51.4973 65.8487 52.5486 65.2759 52.5486 65.2759C52.5486 65.2759 51.884 65.9053 51.7489 66.0296C51.6137 66.154 53.8627 68.6675 54.377 69.3571C54.8914 70.0467 54.7262 65.0084 54.2757 64.1077C54.0085 64.3462 53.7089 64.5454 53.3859 64.6994C53.7252 64.3808 54.0344 64.0314 54.3095 63.6555C54.4972 63.3578 55.2819 61.0403 53.735 61.7902C53.2206 62.0389 53.2807 61.9711 51.2645 63.5952Z" fill="url(#paint54_radial_226_19201)"/>
<path opacity="0.3" d="M43.3274 57.6374C43.3274 57.6374 44.0295 50.8544 47.3335 49.5015C49.6914 48.6084 52.7438 50.4851 52.7438 50.4851C52.7438 50.4851 50.3184 48.3974 47.112 48.6951C43.9056 48.9928 42.9032 55.1051 43.3274 57.6374Z" fill="#100F16"/>
<path d="M21.8777 59.7401C22.7187 57.9238 25.2568 56.5144 27.6072 56.6538C29.9575 56.7932 38.0148 61.2173 40.2787 62.9055C42.5427 64.5938 40.1811 66.5458 38.7769 67.925C37.3727 69.3043 34.9848 73.0576 39.0585 79.3583C43.1322 85.659 42.2161 88.6323 39.3927 89.7967C35.7958 91.2777 31.2265 87.5357 31.6733 80.2552C31.9887 74.5724 34.1776 71.6444 34.1776 71.6444C34.1776 71.6444 29.4431 77.4666 27.1078 77.8434C24.7725 78.2202 22.3733 75.6728 21.5849 72.7825C20.4397 73.6567 19.8165 76.3662 20.1093 81.3668C20.3571 85.6779 18.0143 89.4839 14.6202 88.5268C11.2261 87.5696 12.6641 80.2966 16.4712 74.7533C20.2783 69.21 20.1807 63.3992 21.8777 59.7401Z" fill="url(#paint55_radial_226_19201)"/>
<path d="M21.6975 59.8494C21.6975 59.8494 23.128 56.8083 27.1341 56.8761C30.4681 57.0796 33.4267 59.2163 36.3139 60.6973C39.265 62.2046 41.1948 63.4746 41.0034 64.5787C40.8119 65.6828 38.026 67.8157 37.2188 69.617C36.4116 71.4183 36.0924 74.6403 38.3451 78.6046C40.5979 82.5689 43.1847 87.5243 38.5779 89.156C33.9711 90.7878 31.3504 83.4733 32.1577 79.0116C32.7124 76.1182 33.5357 73.2833 34.6169 70.544C34.6169 70.544 29.9688 77.1123 26.89 77.4439C23.8113 77.7755 21.7876 73.7434 21.4422 72.5187C20.9654 73.0312 20.1243 74.0072 19.8953 77.4439C19.6663 80.8807 20.3984 87.2606 15.7916 87.856C11.1848 88.4514 13.5389 79.8632 15.0895 77.0106C16.6401 74.1579 18.6713 70.8907 19.595 66.429C20.5186 61.9672 21.6975 59.8494 21.6975 59.8494Z" fill="url(#paint56_radial_226_19201)"/>
<path d="M19.3885 69.2666C19.3885 69.2666 17.5112 72.8956 16.0094 75.7256C14.5075 78.5557 12.0371 83.594 13.8317 86.5823C14.2785 87.7806 18.6638 86.8875 19.0581 81.6834C19.4523 76.4793 19.1332 75.5975 20.9691 71.765C21.4835 69.8243 19.3885 69.2666 19.3885 69.2666Z" fill="url(#paint57_radial_226_19201)"/>
<path d="M35.2026 70.0016C35.2026 70.0016 31.9136 76.031 32.5481 82.6634C33.0325 87.6828 36.7044 89.3145 38.7582 88.3951C41.6266 87.1063 40.0873 83.1758 37.8984 79.4263C35.7095 75.6768 35.7395 70.8796 37.7181 68.1664C38.9609 66.7382 40.6842 65.2534 40.6655 64.236C40.0873 63.3203 37.6844 63.0452 37.6844 63.0452C37.6844 63.0452 37.0686 66.9869 35.2026 70.0016Z" fill="url(#paint58_radial_226_19201)"/>
<path d="M22.0129 59.7893C22.2457 59.0356 24.2656 56.8951 27.3218 57.0383C30.378 57.1815 38.3677 62.0578 39.6893 62.8756C41.0109 63.6933 40.5829 64.3829 40.5829 64.3829C40.5829 64.3829 38.4052 64.4394 37.6393 64.1342C36.8734 63.829 24.8551 60.1246 22.5498 60.5806C21.4234 60.6598 22.0129 59.7893 22.0129 59.7893Z" fill="url(#paint59_radial_226_19201)"/>
<path d="M39.0698 64.967C39.1374 66.644 28.3581 77.0635 26.5897 76.796C20.1844 75.7597 18.1532 66.0486 18.1532 66.0486C20.3684 64.756 18.7389 66.4669 22.0129 66.5121C22.9425 66.5134 23.8707 66.4366 24.7875 66.2822C30.9187 65.3627 38.9271 63.6971 39.0698 64.967Z" fill="url(#paint60_radial_226_19201)"/>
<path d="M39.0698 64.967C39.1374 66.644 28.3581 77.0635 26.5897 76.796C22.0655 72.2362 21.8927 66.9793 21.8927 66.9793C21.8927 66.9793 21.9303 66.7985 22.0129 66.5121C22.9425 66.5134 23.8707 66.4366 24.7875 66.2822C30.9187 65.3627 38.9271 63.6971 39.0698 64.967Z" fill="url(#paint61_radial_226_19201)"/>
<g style="mix-blend-mode:multiply" opacity="0.3">
<path d="M18.1382 66.0484C18.1382 66.0484 19.8841 67.7027 21.8927 68.1323C23.9014 68.5619 31.433 64.8726 39.0698 64.9668C38.3564 63.7044 31.846 62.7397 30.1415 62.6418C28.4369 62.5438 23.3833 63.4708 22.2081 63.6404C21.033 63.8099 21.1118 63.7044 20.2257 63.9117C19.3397 64.119 18.1382 66.0484 18.1382 66.0484Z" fill="#420D00"/>
</g>
<path d="M39.892 64.3488C39.8244 64.8877 39.0548 64.9857 39.0548 64.9857C39.0548 63.7497 21.904 67.4012 21.4347 67.4012C20.9654 67.4012 16.1671 65.8562 16.7978 63.972C17.3685 62.2687 23.4359 58.6586 25.1329 58.0067C25.2526 57.9556 25.3791 57.9226 25.5084 57.9087C29.7773 57.969 39.9596 63.7987 39.892 64.3488Z" fill="url(#paint62_radial_226_19201)"/>
<path d="M39.892 64.349C39.8244 64.8879 39.0548 64.9859 39.0548 64.9859C39.0548 63.7498 21.904 67.4014 21.4347 67.4014C21.7792 63.9906 23.0594 60.7425 25.1329 58.0181C25.2526 57.9671 25.3791 57.9341 25.5084 57.9202C29.7773 57.9692 39.9596 63.7988 39.892 64.349Z" fill="url(#paint63_radial_226_19201)"/>
<path d="M33.8134 73.9507C33.8134 73.9507 31.647 80.681 33.5619 85.4367C34.4967 87.7392 36.7908 87.6374 36.8396 86.7519C36.8884 85.8663 32.2478 84.5775 33.8134 73.9507Z" fill="url(#paint64_radial_226_19201)"/>
<path d="M18.9004 70.9512C18.9004 70.9512 13.7153 78.8648 13.5464 83.6506C13.6027 85.2484 14.7178 85.8061 15.1346 82.0302C15.5513 78.2543 18.5662 71.931 18.9004 70.9512Z" fill="url(#paint65_radial_226_19201)"/>
<path d="M24.0178 59.3557C24.0178 59.3557 21.3896 63.06 21.4347 66.4855C21.3633 67.1073 19.9629 66.9038 20.3684 65.1326C20.7739 63.3615 21.9078 61.5112 24.0178 59.3557Z" fill="url(#paint66_radial_226_19201)"/>
<path d="M31.6733 59.7024C31.6733 59.7024 39.7268 63.0562 40.1361 64.1717C40.2374 64.4656 39.7606 65.1816 39.2725 65.2268C38.8633 65.8298 38.2701 67.111 35.4466 69.6811C36.9485 67.7969 38.6906 65.4906 38.6455 65.0497C38.6005 64.6088 30.547 65.8562 21.4234 67.3824C29.8974 65.4982 36.1487 64.3187 39.1449 64.4656C39.479 64.3752 38.4465 63.0826 31.6733 59.7024Z" fill="url(#paint67_radial_226_19201)"/>
<path d="M26.4808 59.4124C26.7436 59.2164 29.3042 60.0756 28.7711 60.7878C28.5158 60.8707 27.0177 60.573 26.7361 60.1434C26.5792 59.9313 26.4901 59.6764 26.4808 59.4124Z" fill="url(#paint68_radial_226_19201)"/>
<path d="M26.4808 59.4124C26.2518 60.2037 27.1491 61.1873 28.2529 61.0328C29.3568 60.8783 28.497 60.1773 27.8775 60.2301C27.258 60.2829 26.5822 60.004 26.4808 59.4124Z" fill="url(#paint69_radial_226_19201)"/>
<path d="M22.8652 59.6687C22.8652 59.6687 22.1856 60.3885 21.8514 60.7276C21.5173 61.0668 21.2244 60.4148 21.6862 60.2716C22.0991 60.1126 22.4943 59.9105 22.8652 59.6687Z" fill="url(#paint70_radial_226_19201)"/>
<path d="M37.8458 51.5891C43.8305 49.2678 51.0355 43.2044 57.422 44.7759C53.1456 41.8139 49.9354 42.4206 49.9354 42.4206C49.9354 42.4206 58.3831 38.7917 63.6846 45.0811C65.7308 39.3984 59.1003 32.5249 52.7438 31.2964C59.1078 27.2491 68.2614 30.4523 68.2614 30.4523C68.2614 30.4523 60.3956 21.0313 49.6914 23.9857C49.1094 18.0618 59.288 11.4709 59.288 11.4709C59.288 11.4709 47.9493 10.0804 41.8143 22.2937C40.8607 15.3411 43.8005 10.1934 48.2647 5.00439C40.1511 5.75807 34.4705 12.1643 32.871 21.5664C31.2641 12.7748 34.8121 5.14382 34.8121 5.14382C34.8121 5.14382 25.4258 7.90604 22.8764 19.1471C20.3947 12.4394 19.0506 8.87452 20.4773 4.45044C17.0982 6.50421 13.0095 14.2482 13.8205 23.0059C11.5415 18.0505 12.4726 11.4596 12.4726 11.4596C12.4726 11.4596 7.06605 20.3379 9.43517 28.0141C7.44526 25.4252 4.61433 22.0978 4.73447 17.6247C2.8572 20.6394 2.62817 31.5903 8.11356 36.7266C4.7983 38.4789 0.826004 33.5838 0.826004 33.5838C0.826004 33.5838 4.07743 41.9873 9.76932 42.8917C6.78821 43.619 2.81215 41.5614 2.81215 41.5614C2.81215 41.5614 10.4301 50.9183 18.1532 50.2589C25.8763 49.5994 19.6776 58.6397 37.8458 51.5891Z" fill="url(#paint71_radial_226_19201)"/>
<path d="M41.1235 47.4327C44.4275 41.4033 50.829 36.2105 54.6999 35.9354C51.2307 34.4281 44.9081 36.4818 41.8143 40.5781C42.4601 35.0499 48.0168 29.9324 48.0168 29.9324C46.2771 29.9597 44.5665 30.3857 43.0159 31.1779C41.4652 31.9702 40.1155 33.1076 39.0698 34.5034C37.4441 30.5466 37.2301 24.6077 39.0698 20.9373C35.3152 22.358 31.9361 27.4189 31.2528 30.9536C29.2516 27.0609 29.1428 22.0716 30.6634 15.5862C26.3794 18.6009 21.2582 24.0688 21.8777 33.0451C17.9279 28.7227 17.9279 25.6176 18.1232 20.9222C15.6564 25.6327 13.1109 33.55 15.3336 38.1211C11.2374 37.846 11.0421 33.0036 11.0421 33.0036C11.0421 33.0036 10.2912 42.6243 15.7916 45.0813C15.0407 45.6013 11.32 45.4204 11.32 45.4204C11.32 45.4204 18.0969 47.1049 19.9554 49.5657C21.8139 52.0264 23.2707 55.1127 28.5683 54.8037C33.866 54.4947 39.0698 51.2011 41.1235 47.4327Z" fill="url(#paint72_radial_226_19201)"/>
<path style="mix-blend-mode:multiply" opacity="0.5" d="M4.36279 41.1508C2.53808 40.6911 1.91857 40.1032 1.91857 40.1032C1.91857 40.1032 3.98357 48.5632 10.1335 51.593C13.5389 53.7183 16.49 50.4059 16.49 50.4059C16.49 50.4059 20.0793 49.705 20.6199 50.4474C21.6937 51.8869 23.556 55.5196 29.3718 54.7283C35.3152 53.9181 36.8471 51.9133 36.8471 51.9133C41.6191 49.347 48.55 45.6201 54.5723 52.9081C56.1417 55.0034 58.3794 59.126 58.3794 59.126C58.3794 59.126 64.458 56.5484 68.0398 51.5892C60.7072 54.5135 58.8037 48.9287 58.8037 48.9287C58.8037 48.9287 61.8561 48.7215 63.7709 50.5529C63.6808 47.753 59.502 43.9658 48.8241 45.3149C43.3274 46.0082 44.1647 51.4724 26.447 50.9674C10.7305 50.6094 11.0534 24.8978 11.0534 24.8978C11.0534 24.8978 11.8831 35.6414 15.3448 38.1286C11.0684 24.8149 17.5563 12.5036 17.5563 12.5036C17.5563 12.5036 18.1344 15.5937 22.8614 18.8684C19.625 6.80956 27.1754 0.40332 27.1754 0.40332C20.8227 1.79385 15.1008 4.49201 13.8242 8.91232C12.9757 7.32206 13.6891 4.72188 13.6891 4.72188C13.6891 4.72188 5.63557 10.838 5.89839 16.5584C5.22258 15.2319 5.31268 12.6882 5.31268 12.6882C5.31268 12.6882 0.75843 21.6796 3.12379 29.9813C0.72464 29.1297 0.0713425 28.0971 0.0713425 28.0971C0.0713425 28.0971 -0.889816 35.404 4.36279 41.1508Z" fill="url(#paint73_radial_226_19201)"/>
<path d="M108.289 33.207L107.35 33.0337C107.958 36.2217 109.024 39.9298 109.918 44.1768C109.115 37.6387 108.289 33.207 108.289 33.207Z" fill="url(#paint74_radial_226_19201)"/>
<path d="M108.289 23.6844C106.64 25.9455 106.614 28.8886 107.26 32.5025C107.579 32.4798 107.924 32.4572 108.289 32.4233C106.858 21.6684 116.034 22.3128 116.034 22.3128C115.734 21.8869 114.532 21.4046 112.959 21.1521C112.036 21.1722 111.132 21.4123 110.319 21.8526C109.507 22.2929 108.811 22.9208 108.289 23.6844Z" fill="url(#paint75_radial_226_19201)"/>
<path d="M98.5155 48.8986V48.9439C101.238 43.1519 101.166 31.8467 102.338 26.8046C103.002 23.9143 105.837 22.015 108.578 21.0579C104.643 21.5779 100.603 23.8465 100.457 30.053C100.34 34.7823 99.548 41.4712 98.5155 48.8986Z" fill="url(#paint76_radial_226_19201)"/>
<path style="mix-blend-mode:multiply" opacity="0.5" d="M67.9009 158.736C68.2681 158.828 68.6124 158.996 68.9121 159.228C69.2119 159.46 69.4607 159.752 69.643 160.085C71.6742 163.525 73.8293 164.181 74.0959 164.252C73.4178 163.557 72.9616 162.674 72.7856 161.716C73.9043 162.983 75.2671 164.008 76.7917 164.731C74.6215 161.577 75.5865 159.689 75.5865 159.689C75.5865 159.689 81.9166 159.312 84.5561 161.275C85.2582 159.218 83.2382 155.694 83.2382 155.694C83.2382 155.694 86.1517 157.756 86.5535 159.399C87.0382 157.555 87.1316 155.629 86.8276 153.746C86.8276 153.746 89.7298 155.672 89.6622 158.468C91.0589 156.294 91.4381 151.858 91.4381 151.858C91.5771 151.858 94.9937 151.919 95.8572 157.628C95.9248 157.571 95.9811 157.522 96.0525 157.454C96.3829 155.438 96.6945 152.574 97.1413 148.105C105.045 143.775 108.108 137.456 108.544 136.423C108.484 136.495 108.382 136.619 108.221 136.8C106.719 138.537 100.49 144.962 88.6523 147.415C90.7028 147.976 92.8745 147.9 94.8811 147.197C94.5056 147.461 90.6835 150.178 84.2369 150.754C77.4788 151.365 76.7278 155.566 73.6604 156.132C76.251 156.799 79.142 154.865 79.2922 154.771C79.142 155.065 76.5138 159.312 67.9009 158.736Z" fill="url(#paint77_radial_226_19201)"/>
<path d="M114.791 104.825C119.068 99.2592 123.172 87.6451 124.084 74.1467C124.711 78.4944 124.962 82.8884 124.835 87.2795C124.846 87.7109 124.776 88.1406 124.628 88.5457C124.302 89.2994 123.502 89.6762 122.774 90.0531C123.507 90.1648 124.252 90.1787 124.989 90.0945C125.03 90.0945 124.673 93.0828 124.613 93.3504C124.467 94.1644 124.613 94.9293 124.508 95.7471C124.287 97.7217 123.966 99.6838 123.547 101.626C122.882 104.762 121.915 107.827 120.66 110.775C119.301 113.918 117.566 117.08 115.197 119.578C115.043 119.74 114.893 119.902 114.728 120.049L114.791 104.825Z" fill="url(#paint78_radial_226_19201)"/>
<path d="M112.52 106.057C112.486 105.922 124.91 99.2743 124.159 69.9639C124.159 70.4877 123.322 71.5391 123.006 71.9347C122.545 72.5151 122.109 73.0652 122.105 73.8604C122.115 74.1287 122.153 74.3952 122.218 74.6555L122.71 76.9617L121.565 75.2283C121.512 75.1492 121.441 75.0625 121.351 75.0776C121.294 75.0922 121.245 75.127 121.212 75.1755C119.961 76.6151 119.173 78.4955 118.11 80.0744C116.958 81.8003 115.76 83.4999 114.51 85.158C112.306 88.0822 109.948 91.0027 107.143 93.3693C106.551 93.8799 105.924 94.3483 105.266 94.7711C102.736 96.6892 112.52 106.057 112.52 106.057Z" fill="url(#paint79_radial_226_19201)"/>
<path d="M122.158 74.5952C122.094 74.7497 121.688 74.9457 121.561 75.0399C120.956 75.4808 120.348 75.9104 119.732 76.3362C117.926 77.5835 115.85 78.6349 114.285 80.1837C114.185 80.2709 114.108 80.3807 114.059 80.504C114.037 80.6172 114.037 80.7338 114.059 80.847C114.101 81.2954 114.164 81.7438 114.243 82.1847C114.07 81.6447 113.841 81.1244 113.56 80.6322C113.55 80.605 113.534 80.5804 113.513 80.5602C113.492 80.54 113.467 80.5247 113.44 80.5153C113.385 80.511 113.331 80.5287 113.29 80.5643C111.037 82.0717 108.435 83.1231 105.953 84.1857C104.688 84.7325 103.396 85.2142 102.082 85.629C101.455 85.825 100.821 86.0059 100.179 86.1528C99.9159 86.2169 98.4479 86.3262 98.3315 86.5297C96.3679 89.6876 100.779 96.4217 105.645 94.8201C110.511 93.2185 119.864 79.984 122.158 74.5952Z" fill="url(#paint80_radial_226_19201)"/>
<path d="M72.2825 102.409C72.0234 111.077 77.092 120.701 87.845 128.385C85.8289 126.305 85.3333 124.417 85.3333 124.417C85.3333 124.417 93.1615 137.84 109.828 125.137C116.586 119.005 120.6 114.235 121.775 102.651C121.775 102.651 119.627 105.145 116.774 106.042C119.199 102.73 120.003 91.8429 120.003 91.8429C120.003 91.8429 114.281 95.5623 109.411 97.7819C110.733 94.5863 115.614 90.6973 115.614 90.6973C112.231 91.4785 108.92 92.5411 105.713 93.8741C107.853 89.6196 112.265 86.5823 112.265 86.5823C112.265 86.5823 107.357 84.9053 98.7032 88.0067C100.708 86.6743 102.816 85.5061 105.007 84.5134C105.007 84.5134 94.3029 84.8601 83.8878 88.9413C73.4727 93.0224 72.3388 100.567 72.2825 102.409Z" fill="url(#paint81_radial_226_19201)"/>
<path d="M72.2825 102.41C73.2737 110.406 78.2109 119.284 83.6024 122.985C83.6024 122.985 81.7702 120.762 81.5449 118.742C86.2569 124.82 91.104 131.803 104.26 127.518C101.632 127.499 100.629 126.452 100.629 126.452C100.629 126.452 116.755 124.7 119.162 108.518C115.433 115.339 108.063 114.382 108.063 114.382C108.063 114.382 113.061 114.054 115.625 108.19C112.163 111.171 106.036 110.934 106.036 110.934C106.036 110.934 106.693 102.824 111.007 100.19C107.932 99.1989 101.737 103.333 101.737 103.333C101.737 103.333 101.992 97.7971 106.137 96.7608C103.603 96.1089 97.0174 97.5635 97.0174 97.5635C97.0174 97.5635 100.321 93.2487 105.525 91.1044C102.236 89.1788 95.3654 88.395 92.6171 90.4789C92.6171 90.4789 93.7847 87.8863 97.6519 86.9856C95.7033 85.2597 70.6079 89.0205 72.2825 102.41Z" fill="url(#paint82_radial_226_19201)"/>
<path d="M72.6729 103.676C76.052 112.558 79.5738 117.121 79.5738 117.121C79.5738 117.121 77.1559 112.253 76.4951 108.198C76.4951 108.198 80.5913 119.503 87.5184 121.108C85.8383 118.916 84.6822 116.366 84.1393 113.654C84.1393 113.654 89.2079 123.968 102.383 119.42C94.7159 119.043 92.313 115.836 92.313 115.836C92.313 115.836 98.996 112.381 102.278 112.181C99.3002 110.123 92.7597 111.077 92.7597 111.077C92.7597 111.077 96.6645 106.404 99.4503 106.86C96.6194 103.804 89.5909 102.187 89.5909 102.187C89.5909 102.187 93.826 100.518 96.7245 101.957C92.5345 97.8122 88.2318 94.3905 82.9153 94.9859C85.3145 92.9736 90.7548 94.5261 90.7548 94.5261C90.7548 94.5261 86.9777 90.1812 80.3697 91.9712C73.7618 93.7612 70.5441 98.0609 72.6729 103.676Z" fill="url(#paint83_radial_226_19201)"/>
<path d="M56.4345 48.096C51.3471 45.8349 49.1432 45.9555 39.4715 50.5605C29.7998 55.1654 23.571 56.4354 18.9004 47.7681C19.4147 49.2114 21.8402 55.1768 27.6635 55.0675C33.4868 54.9582 36.6556 52.5314 42.5089 50.0706C48.3623 47.6098 49.1432 46.8449 56.4345 48.096Z" fill="url(#paint84_radial_226_19201)"/>
<path d="M20.8602 51.0353C20.8602 51.0353 18.2058 49.5053 13.9969 51.4611C15.2172 50.5115 17.6951 49.4865 19.8615 49.6523C20.5899 50.6208 20.8602 51.0353 20.8602 51.0353Z" fill="url(#paint85_radial_226_19201)"/>
<path d="M14.6127 52.8667L14.1847 53.658C14.1847 53.658 8.41392 52.569 5.35772 47.3875C7.21247 49.5241 10.8544 52.6067 14.6127 52.8667Z" fill="url(#paint86_radial_226_19201)"/>
<path d="M70.4803 45.7671C70.4803 45.7671 70.2888 54.5135 58.5896 59.4124C58.5316 59.0378 58.5316 58.6565 58.5896 58.2819C58.5896 58.2819 68.5767 54.4947 70.4803 45.7671Z" fill="url(#paint87_radial_226_19201)"/>
<path d="M69.2826 94.496C69.2826 94.496 68.7682 100.416 64.9649 104.294C65.1301 103.759 65.1826 101.313 65.1826 101.313C63.5649 106.144 60.3392 110.27 56.0478 112.995C50.8215 116.266 49.2446 116.386 49.2446 116.386C50.2212 115.374 50.9768 114.169 51.4629 112.847C51.9491 111.526 52.1552 110.117 52.068 108.71C49.8678 111.638 46.6389 116.718 47.097 118.926C44.8443 118.926 40.6242 117.012 36.9898 113.605C36.7569 114.742 36.7569 115.914 36.9898 117.05C36.9898 117.05 29.6158 118.045 23.7813 114.178C24.6448 116.168 25.3019 116.296 25.3019 116.296C25.3019 116.296 16.6101 116.24 10.3888 108.104C9.23242 108.948 4.79456 108.857 4.14502 108.104C6.22504 108.322 9.72802 107.919 10.7192 107.015C10.7192 107.015 13.3812 113.421 23.6874 115.524C22.974 114.728 22.9365 113.006 22.9365 113.006C22.9365 113.006 28.1703 117.344 36.3665 116.59C36.2539 115.595 36.2388 113.515 36.8621 112.822C37.5942 113.643 43.4476 118.346 46.5638 118.274C46.9693 115.584 50.6187 108.699 52.4885 107.723C52.7663 110.191 52.3984 113.172 50.8928 115.162C58.4507 110.557 64.2665 105.586 65.1601 98.5809C65.7646 100.126 65.727 102.315 65.727 102.315C65.727 102.315 68.175 99.8056 69.2826 94.496Z" fill="url(#paint88_radial_226_19201)"/>
<path d="M68.3026 158.871C68.3026 158.871 71.3588 160.548 78.3423 157.202C82.6375 155.227 82.4723 152.446 89.5046 150.833C95.7671 149.303 104.106 142.803 104.106 142.803C104.106 142.803 101.94 145.716 97.3478 148.41C97.0293 149.828 96.7961 151.264 96.6494 152.71C96.6494 152.71 96.7809 149.055 96.1764 148.983C95.5719 148.911 90.7811 151.312 88.6185 151.534C89.5909 152.009 89.7448 153.731 89.7448 153.731C89.7448 153.731 88.9489 151.606 86.6849 152.009C84.4209 152.412 80.9367 155.713 81.1544 156.806C81.3722 157.899 82.7764 158.713 82.7764 158.713C82.2846 158.666 81.8109 158.503 81.3939 158.237C80.9769 157.971 80.6286 157.61 80.3773 157.183C78.8747 157.389 77.419 157.854 76.0746 158.558C74.654 159.321 73.0839 159.761 71.4752 159.847C70.6042 159.847 71.3175 162.365 71.3175 162.365C70.623 161.778 70.0271 161.084 69.5529 160.307C68.8508 159.09 68.3026 158.871 68.3026 158.871Z" fill="url(#paint89_radial_226_19201)"/>
<path d="M13.6628 4.73323L13.6065 4.78975L13.6853 4.72192L13.6628 4.73323Z" fill="url(#paint90_radial_226_19201)"/>
<path d="M4.35902 41.1507C2.53432 40.691 1.91482 40.1031 1.91482 40.1031C1.91482 40.1031 3.97983 48.5631 10.1298 51.5929C12.8706 53.1341 14.2598 53.3414 14.9806 53.1681C15.4988 52.3541 15.9455 51.4648 15.9455 51.4648C14.9479 51.6341 13.9229 51.5192 12.987 51.1331C5.10243 49.0944 3.22516 41.7838 3.22516 41.7838C4.51696 42.4227 5.91905 42.8065 7.35515 42.9143C1.68579 38.5505 1.02124 30.1357 1.02124 30.1357C1.02124 30.1357 1.61821 31.2399 4.26892 31.5526C1.80218 23.3074 4.67066 16.758 4.67066 16.758C4.84826 17.8778 5.36014 18.9171 6.13869 19.7388C6.51414 11.3692 12.8143 5.50937 13.6065 4.80469C12.7692 5.44908 5.64308 11.1732 5.89839 16.5733C5.21882 15.2469 5.31268 12.7032 5.31268 12.7032C5.31268 12.7032 0.758422 21.6946 3.12003 29.9963C0.724631 29.1446 0.067584 28.1121 0.067584 28.1121C0.067584 28.1121 -0.893581 35.4039 4.35902 41.1507Z" fill="url(#paint91_radial_226_19201)"/>
</g>
<defs>
<radialGradient id="paint0_radial_226_19201" cx="0" cy="0" r="1" gradientUnits="userSpaceOnUse" gradientTransform="translate(104.17 39.1875) rotate(180) scale(37.3952 37.5331)">
<stop stop-color="#4C0003"/>
<stop offset="1" stop-color="#7F2503"/>
</radialGradient>
<radialGradient id="paint1_radial_226_19201" cx="0" cy="0" r="1" gradientUnits="userSpaceOnUse" gradientTransform="translate(74.1785 40.5742) rotate(180) scale(31.0238 31.1381)">
<stop stop-color="#4C0003"/>
<stop offset="1" stop-color="#7F2503"/>
</radialGradient>
<radialGradient id="paint2_radial_226_19201" cx="0" cy="0" r="1" gradientUnits="userSpaceOnUse" gradientTransform="translate(111.968 23.5411) rotate(180) scale(6.67558 6.70018)">
<stop stop-color="#4C0003"/>
<stop offset="1" stop-color="#7F2503"/>
</radialGradient>
<radialGradient id="paint3_radial_226_19201" cx="0" cy="0" r="1" gradientUnits="userSpaceOnUse" gradientTransform="translate(103.607 14.0561) rotate(180) scale(4.70069 4.71801)">
<stop stop-color="#4C0003"/>
<stop offset="1" stop-color="#7F2503"/>
</radialGradient>
<radialGradient id="paint4_radial_226_19201" cx="0" cy="0" r="1" gradientUnits="userSpaceOnUse" gradientTransform="translate(77.1634 17.6021) rotate(180) scale(49.3272 49.509)">
<stop stop-color="#C43904"/>
<stop offset="1" stop-color="#910005"/>
</radialGradient>
<radialGradient id="paint5_radial_226_19201" cx="0" cy="0" r="1" gradientUnits="userSpaceOnUse" gradientTransform="translate(84.0267 27.7655) rotate(180) scale(23.5598 23.6466)">
<stop stop-color="#FE8A24"/>
<stop offset="0.4" stop-color="#FEAC33"/>
<stop offset="1" stop-color="#FFE54D"/>
</radialGradient>
<radialGradient id="paint6_radial_226_19201" cx="0" cy="0" r="1" gradientUnits="userSpaceOnUse" gradientTransform="translate(99.9058 178.875) rotate(162.901) scale(21.9823 22.0493)">
<stop stop-color="#FED501"/>
<stop offset="0.08" stop-color="#FEC401"/>
<stop offset="0.28" stop-color="#FD9B02"/>
<stop offset="0.44" stop-color="#FD8202"/>
<stop offset="0.54" stop-color="#FD7902"/>
<stop offset="1" stop-color="#E06F01"/>
</radialGradient>
<radialGradient id="paint7_radial_226_19201" cx="0" cy="0" r="1" gradientUnits="userSpaceOnUse" gradientTransform="translate(85.9345 175.148) rotate(162.901) scale(19.327 19.3859)">
<stop offset="0.07" stop-color="#FED501"/>
<stop offset="0.79" stop-color="#FD7902"/>
<stop offset="1" stop-color="#E06F01"/>
</radialGradient>
<radialGradient id="paint8_radial_226_19201" cx="0" cy="0" r="1" gradientUnits="userSpaceOnUse" gradientTransform="translate(92.3706 179.983) rotate(162.901) scale(3.3426 3.3528)">
<stop offset="0.07" stop-color="#FED501"/>
<stop offset="0.79" stop-color="#FD7902"/>
<stop offset="1" stop-color="#E06F01"/>
</radialGradient>
<radialGradient id="paint9_radial_226_19201" cx="0" cy="0" r="1" gradientUnits="userSpaceOnUse" gradientTransform="translate(85.9505 180.353) rotate(-176.427) scale(3.34159 3.35382)">
<stop offset="0.07" stop-color="#FED501"/>
<stop offset="0.79" stop-color="#FD7902"/>
<stop offset="1" stop-color="#E06F01"/>
</radialGradient>
<radialGradient id="paint10_radial_226_19201" cx="0" cy="0" r="1" gradientUnits="userSpaceOnUse" gradientTransform="translate(82.4635 176.237) rotate(-166.803) scale(3.34218 3.35321)">
<stop offset="0.07" stop-color="#FED501"/>
<stop offset="0.79" stop-color="#FD7902"/>
<stop offset="1" stop-color="#E06F01"/>
</radialGradient>
<radialGradient id="paint11_radial_226_19201" cx="0" cy="0" r="1" gradientUnits="userSpaceOnUse" gradientTransform="translate(43.4727 184.752) rotate(-167.435) scale(22.0768 22.1505)">
<stop stop-color="#FED501"/>
<stop offset="0.08" stop-color="#FEC401"/>
<stop offset="0.28" stop-color="#FD9B02"/>
<stop offset="0.44" stop-color="#FD8202"/>
<stop offset="0.54" stop-color="#FD7902"/>
<stop offset="1" stop-color="#E06F01"/>
</radialGradient>
<radialGradient id="paint12_radial_226_19201" cx="0" cy="0" r="1" gradientUnits="userSpaceOnUse" gradientTransform="translate(32.9135 174.539) rotate(-167.435) scale(19.4895 19.5545)">
<stop offset="0.07" stop-color="#FED501"/>
<stop offset="0.79" stop-color="#FD7902"/>
<stop offset="1" stop-color="#E06F01"/>
</radialGradient>
<radialGradient id="paint13_radial_226_19201" cx="0" cy="0" r="1" gradientUnits="userSpaceOnUse" gradientTransform="translate(36.6486 181.669) rotate(176.979) scale(3.34158 3.35382)">
<stop offset="0.07" stop-color="#FED501"/>
<stop offset="0.79" stop-color="#FD7902"/>
<stop offset="1" stop-color="#E06F01"/>
</radialGradient>
<radialGradient id="paint14_radial_226_19201" cx="0" cy="0" r="1" gradientUnits="userSpaceOnUse" gradientTransform="translate(30.7101 179.64) rotate(-161.507) scale(3.34277 3.35261)">
<stop offset="0.07" stop-color="#FED501"/>
<stop offset="0.79" stop-color="#FD7902"/>
<stop offset="1" stop-color="#E06F01"/>
</radialGradient>
<radialGradient id="paint15_radial_226_19201" cx="0" cy="0" r="1" gradientUnits="userSpaceOnUse" gradientTransform="translate(28.9975 174.344) rotate(-135.415) scale(3.34759 3.3478)">
<stop offset="0.07" stop-color="#FED501"/>
<stop offset="0.79" stop-color="#FD7902"/>
<stop offset="1" stop-color="#E06F01"/>
</radialGradient>
<radialGradient id="paint16_radial_226_19201" cx="0" cy="0" r="1" gradientUnits="userSpaceOnUse" gradientTransform="translate(89.2492 21.25) rotate(180) scale(49.3535 49.5353)">
<stop stop-color="#C43904"/>
<stop offset="1" stop-color="#910005"/>
</radialGradient>
<radialGradient id="paint17_radial_226_19201" cx="0" cy="0" r="1" gradientUnits="userSpaceOnUse" gradientTransform="translate(96.8222 37.6274) rotate(180) scale(26.7586 26.8572)">
<stop stop-color="#FE8A24"/>
<stop offset="0.4" stop-color="#FEAC33"/>
<stop offset="1" stop-color="#FFE54D"/>
</radialGradient>
<radialGradient id="paint18_radial_226_19201" cx="0" cy="0" r="1" gradientUnits="userSpaceOnUse" gradientTransform="translate(94.7234 36.3952) rotate(180) scale(26.7586 26.8572)">
<stop stop-color="#FE8A24"/>
<stop offset="0.4" stop-color="#FEAC33"/>
<stop offset="1" stop-color="#FFE54D"/>
</radialGradient>
<radialGradient id="paint19_radial_226_19201" cx="0" cy="0" r="1" gradientUnits="userSpaceOnUse" gradientTransform="translate(87.9952 38.9878) rotate(180) scale(5.02357 5.04209)">
<stop stop-color="#FE8A24"/>
<stop offset="0.4" stop-color="#FEAC33"/>
<stop offset="1" stop-color="#FFE54D"/>
</radialGradient>
<radialGradient id="paint20_radial_226_19201" cx="0" cy="0" r="1" gradientUnits="userSpaceOnUse" gradientTransform="translate(100.832 32.3743) rotate(180) scale(47.2434 47.4175)">
<stop stop-color="#C43904"/>
<stop offset="1" stop-color="#910005"/>
</radialGradient>
<radialGradient id="paint21_radial_226_19201" cx="0" cy="0" r="1" gradientUnits="userSpaceOnUse" gradientTransform="translate(71.0284 50.2363) rotate(180) scale(23.4246 23.5109)">
<stop stop-color="#C43904"/>
<stop offset="1" stop-color="#910005"/>
</radialGradient>
<radialGradient id="paint22_radial_226_19201" cx="0" cy="0" r="1" gradientUnits="userSpaceOnUse" gradientTransform="translate(107.357 57.6562) rotate(180) scale(29.2554 29.3632)">
<stop stop-color="#C43904"/>
<stop offset="1" stop-color="#910005"/>
</radialGradient>
<radialGradient id="paint23_radial_226_19201" cx="0" cy="0" r="1" gradientUnits="userSpaceOnUse" gradientTransform="translate(78.9393 54.5549) rotate(180) scale(29.3568 29.4649)">
<stop stop-color="#FFE54D"/>
<stop offset="0.6" stop-color="#FEAC33"/>
<stop offset="1" stop-color="#FE8A24"/>
</radialGradient>
<radialGradient id="paint24_radial_226_19201" cx="0" cy="0" r="1" gradientUnits="userSpaceOnUse" gradientTransform="translate(90.7961 52.3391) rotate(180) scale(32.1239 32.2422)">
<stop stop-color="#FFE54D"/>
<stop offset="0.6" stop-color="#FEAC33"/>
<stop offset="1" stop-color="#FE8A24"/>
</radialGradient>
<radialGradient id="paint25_radial_226_19201" cx="0" cy="0" r="1" gradientUnits="userSpaceOnUse" gradientTransform="translate(99.3227 56.8046) rotate(180) scale(31.7559 31.8729)">
<stop stop-color="#FFE54D"/>
<stop offset="0.6" stop-color="#FEAC33"/>
<stop offset="1" stop-color="#FE8A24"/>
</radialGradient>
<radialGradient id="paint26_radial_226_19201" cx="0" cy="0" r="1" gradientUnits="userSpaceOnUse" gradientTransform="translate(109.126 79.2189) rotate(180) scale(10.5052 10.5439)">
<stop stop-color="#FFE54D"/>
<stop offset="0.6" stop-color="#FEAC33"/>
<stop offset="1" stop-color="#FE8A24"/>
</radialGradient>
<radialGradient id="paint27_radial_226_19201" cx="0" cy="0" r="1" gradientUnits="userSpaceOnUse" gradientTransform="translate(73.0709 69.1649) rotate(180) scale(8.66547 8.69742)">
<stop stop-color="#FE8A24"/>
<stop offset="0.4" stop-color="#FEAC33"/>
<stop offset="1" stop-color="#FFE54D"/>
</radialGradient>
<radialGradient id="paint28_radial_226_19201" cx="0" cy="0" r="1" gradientUnits="userSpaceOnUse" gradientTransform="translate(51.2382 145.885) rotate(180) scale(84.1731 84.4833)">
<stop stop-color="#D81B1B"/>
<stop offset="0.21" stop-color="#F0210B"/>
<stop offset="0.93" stop-color="#E78A20"/>
</radialGradient>
<radialGradient id="paint29_radial_226_19201" cx="0" cy="0" r="1" gradientUnits="userSpaceOnUse" gradientTransform="translate(47.2885 125.589) rotate(180) scale(65.6144 65.8562)">
<stop stop-color="#FE8A24"/>
<stop offset="0.4" stop-color="#FEAC33"/>
<stop offset="1" stop-color="#FFE54D"/>
</radialGradient>
<radialGradient id="paint30_radial_226_19201" cx="0" cy="0" r="1" gradientUnits="userSpaceOnUse" gradientTransform="translate(76.6527 80.9034) rotate(180) scale(19.7527 19.8254)">
<stop stop-color="#FFE54D"/>
<stop offset="0.6" stop-color="#FEAC33"/>
<stop offset="1" stop-color="#FE8A24"/>
</radialGradient>
<radialGradient id="paint31_radial_226_19201" cx="0" cy="0" r="1" gradientUnits="userSpaceOnUse" gradientTransform="translate(40.2449 120.675) rotate(180) scale(35.8747 36.0069)">
<stop stop-color="#FEFAE2"/>
<stop offset="0.19" stop-color="#FEF1D3"/>
<stop offset="0.56" stop-color="#FED8AD"/>
<stop offset="1" stop-color="#FDB677"/>
</radialGradient>
<radialGradient id="paint32_radial_226_19201" cx="0" cy="0" r="1" gradientUnits="userSpaceOnUse" gradientTransform="translate(81.9617 125.634) rotate(180) scale(92.8311 93.1732)">
<stop stop-color="#C69C6D"/>
<stop offset="1" stop-color="#42210B"/>
</radialGradient>
<radialGradient id="paint33_radial_226_19201" cx="0" cy="0" r="1" gradientUnits="userSpaceOnUse" gradientTransform="translate(18.7314 135.688) rotate(180) scale(22.4146 22.4972)">
<stop stop-color="white"/>
<stop offset="1" stop-color="white" stop-opacity="0"/>
</radialGradient>
<radialGradient id="paint34_radial_226_19201" cx="0" cy="0" r="1" gradientUnits="userSpaceOnUse" gradientTransform="translate(33.4492 151.154) rotate(180) scale(12.818 12.8652)">
<stop stop-color="#C69C6D"/>
<stop offset="1" stop-color="#42210B"/>
</radialGradient>
<radialGradient id="paint35_radial_226_19201" cx="0" cy="0" r="1" gradientUnits="userSpaceOnUse" gradientTransform="translate(31.3579 104.599) rotate(180) scale(53.4985 53.6956)">
<stop stop-color="#D81B1B"/>
<stop offset="0.21" stop-color="#F0210B"/>
<stop offset="0.93" stop-color="#E78A20"/>
</radialGradient>
<radialGradient id="paint36_radial_226_19201" cx="0" cy="0" r="1" gradientUnits="userSpaceOnUse" gradientTransform="translate(30.9074 99.2592) rotate(180) scale(48.4824 48.6611)">
<stop stop-color="#FE8A24"/>
<stop offset="0.4" stop-color="#FEAC33"/>
<stop offset="1" stop-color="#FFE54D"/>
</radialGradient>
<radialGradient id="paint37_radial_226_19201" cx="0" cy="0" r="1" gradientUnits="userSpaceOnUse" gradientTransform="translate(31.9737 66.4857) rotate(180) scale(40.7856 40.9359)">
<stop offset="0.07" stop-color="#FEFAE2"/>
<stop offset="0.35" stop-color="#FEE3BE"/>
<stop offset="0.79" stop-color="#FDC38B"/>
<stop offset="1" stop-color="#FDB677"/>
</radialGradient>
<radialGradient id="paint38_radial_226_19201" cx="0" cy="0" r="1" gradientUnits="userSpaceOnUse" gradientTransform="translate(33.0738 76.9014) rotate(180) scale(54.5272 54.7282)">
<stop stop-color="#C69C6D"/>
<stop offset="1" stop-color="#42210B"/>
</radialGradient>
<radialGradient id="paint39_radial_226_19201" cx="0" cy="0" r="1" gradientUnits="userSpaceOnUse" gradientTransform="translate(6.7394 85.4932) rotate(180) scale(16.5763 16.6374)">
<stop stop-color="white"/>
<stop offset="1" stop-color="white" stop-opacity="0"/>
</radialGradient>
<radialGradient id="paint40_radial_226_19201" cx="0" cy="0" r="1" gradientUnits="userSpaceOnUse" gradientTransform="translate(31.1927 46.8637) rotate(180) scale(52.6011 52.795)">
<stop stop-color="#D81B1B"/>
<stop offset="0.21" stop-color="#F0210B"/>
<stop offset="0.93" stop-color="#E78A20"/>
</radialGradient>
<radialGradient id="paint41_radial_226_19201" cx="0" cy="0" r="1" gradientUnits="userSpaceOnUse" gradientTransform="translate(15.281 58.376) scale(15.9155 15.9742)">
<stop stop-color="#9D0001"/>
<stop offset="0.32" stop-color="#980001"/>
<stop offset="0.7" stop-color="#8A0002"/>
<stop offset="1" stop-color="#790002"/>
</radialGradient>
<radialGradient id="paint42_radial_226_19201" cx="0" cy="0" r="1" gradientUnits="userSpaceOnUse" gradientTransform="translate(20.0058 56.8292) rotate(-164.024) scale(11.7137 16.0979)">
<stop stop-color="#F2F2F2"/>
<stop offset="0.14" stop-color="#EDEDED"/>
<stop offset="0.31" stop-color="#DFDFDF"/>
<stop offset="0.49" stop-color="#C7C7C7"/>
<stop offset="0.59" stop-color="#D8D8D8"/>
<stop offset="0.7" stop-color="#F2F2F2"/>
</radialGradient>
<radialGradient id="paint43_radial_226_19201" cx="0" cy="0" r="1" gradientUnits="userSpaceOnUse" gradientTransform="translate(18.4648 50.7226) scale(5.90589 5.92766)">
<stop stop-color="#730001"/>
<stop offset="0.32" stop-color="#6E0001"/>
<stop offset="0.7" stop-color="#600001"/>
<stop offset="1" stop-color="#4F0001"/>
</radialGradient>
<radialGradient id="paint44_radial_226_19201" cx="0" cy="0" r="1" gradientUnits="userSpaceOnUse" gradientTransform="translate(16.7453 58.7075) rotate(180) scale(4.73448 4.75192)">
<stop stop-color="#D81B1B"/>
<stop offset="0.21" stop-color="#F0210B"/>
<stop offset="0.93" stop-color="#E78A20"/>
</radialGradient>
<radialGradient id="paint45_radial_226_19201" cx="0" cy="0" r="1" gradientUnits="userSpaceOnUse" gradientTransform="translate(10.0209 63.3239) scale(10.6178 10.657)">
<stop stop-color="#FB6A00"/>
<stop offset="1" stop-color="#EB0401"/>
</radialGradient>
<radialGradient id="paint46_radial_226_19201" cx="0" cy="0" r="1" gradientUnits="userSpaceOnUse" gradientTransform="translate(10.4639 61.6584) scale(5.33143 5.3511)">
<stop stop-color="white"/>
<stop offset="1" stop-color="white" stop-opacity="0"/>
</radialGradient>
<radialGradient id="paint47_radial_226_19201" cx="0" cy="0" r="1" gradientUnits="userSpaceOnUse" gradientTransform="translate(10.4113 61.3644) scale(5.33149 5.3511)">
<stop stop-color="white"/>
<stop offset="1" stop-color="white" stop-opacity="0"/>
</radialGradient>
<radialGradient id="paint48_radial_226_19201" cx="0" cy="0" r="1" gradientUnits="userSpaceOnUse" gradientTransform="translate(48.7302 56.3676) scale(16.1145 16.1739)">
<stop stop-color="#9D0001"/>
<stop offset="0.32" stop-color="#980001"/>
<stop offset="0.7" stop-color="#8A0002"/>
<stop offset="1" stop-color="#790002"/>
</radialGradient>
<radialGradient id="paint49_radial_226_19201" cx="0" cy="0" r="1" gradientUnits="userSpaceOnUse" gradientTransform="translate(47.6045 58.0524) rotate(-18.6795) scale(15.7534 21.631)">
<stop stop-color="#F2F2F2"/>
<stop offset="0.14" stop-color="#EDEDED"/>
<stop offset="0.31" stop-color="#DFDFDF"/>
<stop offset="0.49" stop-color="#C7C7C7"/>
<stop offset="0.59" stop-color="#D8D8D8"/>
<stop offset="0.7" stop-color="#F2F2F2"/>
</radialGradient>
<radialGradient id="paint50_radial_226_19201" cx="0" cy="0" r="1" gradientUnits="userSpaceOnUse" gradientTransform="translate(47.739 52.0452) scale(11.8381 11.8817)">
<stop stop-color="#730001"/>
<stop offset="0.32" stop-color="#6E0001"/>
<stop offset="0.7" stop-color="#600001"/>
<stop offset="1" stop-color="#4F0001"/>
</radialGradient>
<radialGradient id="paint51_radial_226_19201" cx="0" cy="0" r="1" gradientUnits="userSpaceOnUse" gradientTransform="translate(49.6894 58.5976) rotate(-180) scale(5.04611 5.0647)">
<stop stop-color="#D81B1B"/>
<stop offset="0.21" stop-color="#F0210B"/>
<stop offset="0.93" stop-color="#E78A20"/>
</radialGradient>
<radialGradient id="paint52_radial_226_19201" cx="0" cy="0" r="1" gradientUnits="userSpaceOnUse" gradientTransform="translate(51.242 63.0375) scale(14.2297 14.2822)">
<stop stop-color="#9D0001"/>
<stop offset="0.32" stop-color="#980001"/>
<stop offset="0.7" stop-color="#8A0002"/>
<stop offset="1" stop-color="#790002"/>
</radialGradient>
<radialGradient id="paint53_radial_226_19201" cx="0" cy="0" r="1" gradientUnits="userSpaceOnUse" gradientTransform="translate(44.2736 65.0688) scale(18.5587 18.6271)">
<stop stop-color="#FB6A00"/>
<stop offset="1" stop-color="#EB0401"/>
</radialGradient>
<radialGradient id="paint54_radial_226_19201" cx="0" cy="0" r="1" gradientUnits="userSpaceOnUse" gradientTransform="translate(48.7265 60.6559) scale(11.2336 11.275)">
<stop stop-color="white"/>
<stop offset="1" stop-color="white" stop-opacity="0"/>
</radialGradient>
<radialGradient id="paint55_radial_226_19201" cx="0" cy="0" r="1" gradientUnits="userSpaceOnUse" gradientTransform="translate(27.7911 69.7941) scale(26.233 26.3297)">
<stop stop-color="#730001"/>
<stop offset="0.32" stop-color="#6E0001"/>
<stop offset="0.7" stop-color="#600001"/>
<stop offset="1" stop-color="#4F0001"/>
</radialGradient>
<radialGradient id="paint56_radial_226_19201" cx="0" cy="0" r="1" gradientUnits="userSpaceOnUse" gradientTransform="translate(24.5472 75.0585) scale(25.7449 25.8398)">
<stop stop-color="#F12A05"/>
<stop offset="1" stop-color="#4F0001"/>
</radialGradient>
<radialGradient id="paint57_radial_226_19201" cx="0" cy="0" r="1" gradientUnits="userSpaceOnUse" gradientTransform="translate(12.7166 76.5735) scale(22.133 22.2146)">
<stop stop-color="#FB6A00"/>
<stop offset="1" stop-color="#EB0401"/>
</radialGradient>
<radialGradient id="paint58_radial_226_19201" cx="0" cy="0" r="1" gradientUnits="userSpaceOnUse" gradientTransform="translate(30.7347 77.5459) scale(18.8966 18.9663)">
<stop stop-color="#FB6A00"/>
<stop offset="1" stop-color="#EB0401"/>
</radialGradient>
<radialGradient id="paint59_radial_226_19201" cx="0" cy="0" r="1" gradientUnits="userSpaceOnUse" gradientTransform="translate(17.8904 61.1911) scale(29.2254 29.333)">
<stop stop-color="#FB6A00"/>
<stop offset="1" stop-color="#EB0401"/>
</radialGradient>
<radialGradient id="paint60_radial_226_19201" cx="0" cy="0" r="1" gradientUnits="userSpaceOnUse" gradientTransform="translate(23.7512 74.1393) scale(27.4044 27.5054)">
<stop stop-color="#FED501"/>
<stop offset="0.48" stop-color="#FD7902"/>
<stop offset="1" stop-color="#E06F01"/>
</radialGradient>
<radialGradient id="paint61_radial_226_19201" cx="0" cy="0" r="1" gradientUnits="userSpaceOnUse" gradientTransform="translate(21.8026 75.153) scale(22.6662 22.7497)">
<stop stop-color="#FED501"/>
<stop offset="0.48" stop-color="#FD7902"/>
<stop offset="1" stop-color="#E06F01"/>
</radialGradient>
<radialGradient id="paint62_radial_226_19201" cx="0" cy="0" r="1" gradientUnits="userSpaceOnUse" gradientTransform="translate(24.7537 64.1906) scale(27.3781 27.479)">
<stop offset="0.07" stop-color="#FED501"/>
<stop offset="0.79" stop-color="#FD7902"/>
<stop offset="1" stop-color="#E06F01"/>
</radialGradient>
<radialGradient id="paint63_radial_226_19201" cx="0" cy="0" r="1" gradientUnits="userSpaceOnUse" gradientTransform="translate(21.1193 67.5446) scale(24.1004 24.1892)">
<stop stop-color="#FED501"/>
<stop offset="0.08" stop-color="#FEC401"/>
<stop offset="0.28" stop-color="#FD9B02"/>
<stop offset="0.44" stop-color="#FD8202"/>
<stop offset="0.54" stop-color="#FD7902"/>
<stop offset="1" stop-color="#E06F01"/>
</radialGradient>
<radialGradient id="paint64_radial_226_19201" cx="0" cy="0" r="1" gradientUnits="userSpaceOnUse" gradientTransform="translate(31.3392 82.4785) scale(9.82565 9.86185)">
<stop stop-color="white"/>
<stop offset="1" stop-color="white" stop-opacity="0"/>
</radialGradient>
<radialGradient id="paint65_radial_226_19201" cx="0" cy="0" r="1" gradientUnits="userSpaceOnUse" gradientTransform="translate(11.6691 79.8219) scale(11.8231 11.8666)">
<stop stop-color="white"/>
<stop offset="1" stop-color="white" stop-opacity="0"/>
</radialGradient>
<radialGradient id="paint66_radial_226_19201" cx="0" cy="0" r="1" gradientUnits="userSpaceOnUse" gradientTransform="translate(18.9867 64.1001) scale(7.65176 7.67996)">
<stop stop-color="white"/>
<stop offset="1" stop-color="white" stop-opacity="0"/>
</radialGradient>
<radialGradient id="paint67_radial_226_19201" cx="0" cy="0" r="1" gradientUnits="userSpaceOnUse" gradientTransform="translate(30.4493 63.6215) rotate(180) scale(11.5565 11.5991)">
<stop stop-color="#730001"/>
<stop offset="0.32" stop-color="#6E0001"/>
<stop offset="0.7" stop-color="#600001"/>
<stop offset="1" stop-color="#4F0001"/>
</radialGradient>
<radialGradient id="paint68_radial_226_19201" cx="0" cy="0" r="1" gradientUnits="userSpaceOnUse" gradientTransform="translate(29.3418 60.1887) rotate(180) scale(3.72451 3.73824)">
<stop stop-color="#FB6A00"/>
<stop offset="1" stop-color="#EB0401"/>
</radialGradient>
<radialGradient id="paint69_radial_226_19201" cx="0" cy="0" r="1" gradientUnits="userSpaceOnUse" gradientTransform="translate(27.5734 60.0567) rotate(180) scale(1.59944 1.60533)">
<stop stop-color="#730001"/>
<stop offset="0.32" stop-color="#6E0001"/>
<stop offset="0.7" stop-color="#600001"/>
<stop offset="1" stop-color="#4F0001"/>
</radialGradient>
<radialGradient id="paint70_radial_226_19201" cx="0" cy="0" r="1" gradientUnits="userSpaceOnUse" gradientTransform="translate(22.1293 60.1247) rotate(180) scale(1.04 1.04384)">
<stop stop-color="#730001"/>
<stop offset="0.32" stop-color="#6E0001"/>
<stop offset="0.7" stop-color="#600001"/>
<stop offset="1" stop-color="#4F0001"/>
</radialGradient>
<radialGradient id="paint71_radial_226_19201" cx="0" cy="0" r="1" gradientUnits="userSpaceOnUse" gradientTransform="translate(29.8674 43.9544) rotate(180) scale(48.4036 48.5819)">
<stop stop-color="#FE8A24"/>
<stop offset="0.4" stop-color="#FEAC33"/>
<stop offset="1" stop-color="#FFE54D"/>
</radialGradient>
<radialGradient id="paint72_radial_226_19201" cx="0" cy="0" r="1" gradientUnits="userSpaceOnUse" gradientTransform="translate(29.8374 46.6866) rotate(180) scale(32.1727 32.2912)">
<stop offset="0.07" stop-color="#FEFAE2"/>
<stop offset="1" stop-color="#FDB677"/>
</radialGradient>
<radialGradient id="paint73_radial_226_19201" cx="0" cy="0" r="1" gradientUnits="userSpaceOnUse" gradientTransform="translate(29.3117 46.9428) rotate(180) scale(49.8115 49.9951)">
<stop stop-color="#C69C6D"/>
<stop offset="1" stop-color="#42210B"/>
</radialGradient>
<radialGradient id="paint74_radial_226_19201" cx="0" cy="0" r="1" gradientUnits="userSpaceOnUse" gradientTransform="translate(107.312 28.587) rotate(180) scale(19.5649 19.637)">
<stop stop-color="#FE8A24"/>
<stop offset="0.4" stop-color="#FEAC33"/>
<stop offset="1" stop-color="#FFE54D"/>
</radialGradient>
<radialGradient id="paint75_radial_226_19201" cx="0" cy="0" r="1" gradientUnits="userSpaceOnUse" gradientTransform="translate(107.312 28.5871) rotate(180) scale(19.5649 19.637)">
<stop stop-color="#FE8A24"/>
<stop offset="0.4" stop-color="#FEAC33"/>
<stop offset="1" stop-color="#FFE54D"/>
</radialGradient>
<radialGradient id="paint76_radial_226_19201" cx="0" cy="0" r="1" gradientUnits="userSpaceOnUse" gradientTransform="translate(107.312 28.5871) rotate(180) scale(19.5649 19.637)">
<stop stop-color="#FE8A24"/>
<stop offset="0.4" stop-color="#FEAC33"/>
<stop offset="1" stop-color="#FFE54D"/>
</radialGradient>
<radialGradient id="paint77_radial_226_19201" cx="0" cy="0" r="1" gradientUnits="userSpaceOnUse" gradientTransform="translate(80.6175 140.986) rotate(180) scale(21.1606 21.2386)">
<stop stop-color="#C69C6D"/>
<stop offset="1" stop-color="#42210B"/>
</radialGradient>
<radialGradient id="paint78_radial_226_19201" cx="0" cy="0" r="1" gradientUnits="userSpaceOnUse" gradientTransform="translate(112.976 83.4332) rotate(166.819) scale(26.369 28.5376)">
<stop stop-color="#C43904"/>
<stop offset="1" stop-color="#910005"/>
</radialGradient>
<radialGradient id="paint79_radial_226_19201" cx="0" cy="0" r="1" gradientUnits="userSpaceOnUse" gradientTransform="translate(109.172 78.5184) rotate(166.819) scale(20.712 22.4154)">
<stop stop-color="#C43904"/>
<stop offset="1" stop-color="#910005"/>
</radialGradient>
<radialGradient id="paint80_radial_226_19201" cx="0" cy="0" r="1" gradientUnits="userSpaceOnUse" gradientTransform="translate(105.077 80.9125) rotate(166.819) scale(11.7685 12.7364)">
<stop stop-color="#C43904"/>
<stop offset="1" stop-color="#910005"/>
</radialGradient>
<radialGradient id="paint81_radial_226_19201" cx="0" cy="0" r="1" gradientUnits="userSpaceOnUse" gradientTransform="translate(88.3154 105.557) rotate(166.819) scale(36.1385 39.1106)">
<stop stop-color="#D81B1B"/>
<stop offset="0.21" stop-color="#F0210B"/>
<stop offset="0.93" stop-color="#E78A20"/>
</radialGradient>
<radialGradient id="paint82_radial_226_19201" cx="0" cy="0" r="1" gradientUnits="userSpaceOnUse" gradientTransform="translate(95.4414 108.475) rotate(166.819) scale(34.3234 37.1462)">
<stop stop-color="#FE8A24"/>
<stop offset="0.4" stop-color="#FEAC33"/>
<stop offset="1" stop-color="#FFE54D"/>
</radialGradient>
<radialGradient id="paint83_radial_226_19201" cx="0" cy="0" r="1" gradientUnits="userSpaceOnUse" gradientTransform="translate(87.3795 102.682) rotate(166.819) scale(19.1607 20.7365)">
<stop stop-color="#FEFAE2"/>
<stop offset="0.19" stop-color="#FEF1D3"/>
<stop offset="0.56" stop-color="#FED8AD"/>
<stop offset="1" stop-color="#FDB677"/>
</radialGradient>
<radialGradient id="paint84_radial_226_19201" cx="0" cy="0" r="1" gradientUnits="userSpaceOnUse" gradientTransform="translate(40.8832 50.4587) rotate(180) scale(28.6997 28.8055)">
<stop stop-color="#730001"/>
<stop offset="0.32" stop-color="#6E0001"/>
<stop offset="0.7" stop-color="#600001"/>
<stop offset="1" stop-color="#4F0001"/>
</radialGradient>
<radialGradient id="paint85_radial_226_19201" cx="0" cy="0" r="1" gradientUnits="userSpaceOnUse" gradientTransform="translate(18.018 50.4587) rotate(180) scale(5.29391 5.31342)">
<stop stop-color="#730001"/>
<stop offset="0.32" stop-color="#6E0001"/>
<stop offset="0.7" stop-color="#600001"/>
<stop offset="1" stop-color="#4F0001"/>
</radialGradient>
<radialGradient id="paint86_radial_226_19201" cx="0" cy="0" r="1" gradientUnits="userSpaceOnUse" gradientTransform="translate(10.7793 50.225) rotate(180) scale(8.19241 8.2226)">
<stop stop-color="#730001"/>
<stop offset="0.32" stop-color="#6E0001"/>
<stop offset="0.7" stop-color="#600001"/>
<stop offset="1" stop-color="#4F0001"/>
</radialGradient>
<radialGradient id="paint87_radial_226_19201" cx="0" cy="0" r="1" gradientUnits="userSpaceOnUse" gradientTransform="translate(65.5393 51.9359) rotate(180) scale(13.0546 13.1026)">
<stop stop-color="#730001"/>
<stop offset="0.32" stop-color="#6E0001"/>
<stop offset="0.7" stop-color="#600001"/>
<stop offset="1" stop-color="#4F0001"/>
</radialGradient>
<radialGradient id="paint88_radial_226_19201" cx="0" cy="0" r="1" gradientUnits="userSpaceOnUse" gradientTransform="translate(36.7119 106.721) rotate(180) scale(24.5847 24.6753)">
<stop stop-color="#730001"/>
<stop offset="0.32" stop-color="#6E0001"/>
<stop offset="0.7" stop-color="#600001"/>
<stop offset="1" stop-color="#4F0001"/>
</radialGradient>
<radialGradient id="paint89_radial_226_19201" cx="0" cy="0" r="1" gradientUnits="userSpaceOnUse" gradientTransform="translate(86.2043 152.578) rotate(180) scale(14.4099 14.463)">
<stop stop-color="#730001"/>
<stop offset="0.32" stop-color="#6E0001"/>
<stop offset="0.7" stop-color="#600001"/>
<stop offset="1" stop-color="#4F0001"/>
</radialGradient>
<radialGradient id="paint90_radial_226_19201" cx="0" cy="0" r="1" gradientUnits="userSpaceOnUse" gradientTransform="translate(13.644 4.7483) rotate(180) scale(0.0638339 0.0640625)">
<stop stop-color="#FFE54D"/>
<stop offset="0.6" stop-color="#FEAC33"/>
<stop offset="1" stop-color="#FE8A24"/>
</radialGradient>
<radialGradient id="paint91_radial_226_19201" cx="0" cy="0" r="1" gradientUnits="userSpaceOnUse" gradientTransform="translate(7.9709 29.0052) rotate(180) scale(17.9655 18.0317)">
<stop stop-color="white"/>
<stop offset="1" stop-color="white" stop-opacity="0"/>
</radialGradient>
<clipPath id="clip0_226_19201">
<rect width="125" height="183" fill="white" transform="matrix(-1 0 0 1 125 0)"/>
</clipPath>
</defs>
</svg>
