<svg width="34" height="33" viewBox="0 0 34 33" fill="none" xmlns="http://www.w3.org/2000/svg">
<path d="M27.7448 22.529C24.4192 28.2891 17.0536 30.2628 11.2934 26.9371C5.53319 23.6115 3.55965 16.2459 6.88526 10.4857C10.2109 4.72559 17.5764 2.752 23.3366 6.07764C29.0968 9.40329 31.0704 16.7688 27.7448 22.529Z" fill="url(#paint0_linear_112_11154)"/>
<path fill-rule="evenodd" clip-rule="evenodd" d="M29.992 16.5076C29.992 23.509 24.3162 29.1847 17.3149 29.1847C10.3135 29.1847 4.63779 23.509 4.63779 16.5076C4.63779 9.50627 10.3135 3.83057 17.3149 3.83057C24.3162 3.83057 29.992 9.50627 29.992 16.5076ZM17.3149 28.5509C23.9661 28.5509 29.3581 23.1588 29.3581 16.5076C29.3581 9.85635 23.9661 4.46441 17.3149 4.46441C10.6636 4.46441 5.27163 9.85635 5.27163 16.5076C5.27163 23.1588 10.6636 28.5509 17.3149 28.5509Z" fill="url(#paint1_linear_112_11154)"/>
<path d="M17.315 26.0154C22.566 26.0154 26.8228 21.7586 26.8228 16.5076C26.8228 11.2565 22.566 6.99976 17.315 6.99976C12.064 6.99976 7.80716 11.2565 7.80716 16.5076C7.80716 21.7586 12.064 26.0154 17.315 26.0154Z" fill="url(#paint2_linear_112_11154)"/>
<path d="M21.8585 14.972L20.5157 16.315L21.8585 17.658L23.2017 16.315L21.8585 14.972Z" fill="url(#paint3_linear_112_11154)"/>
<path d="M12.9224 14.9729L11.5795 16.3159L12.9224 17.6588L14.2656 16.3159L12.9224 14.9729Z" fill="url(#paint4_linear_112_11154)"/>
<path d="M17.3404 19.3757L15.1317 17.0946L13.799 18.4705L17.3404 22.1273L20.8824 18.4705L19.5497 17.0946L17.3404 19.3757Z" fill="url(#paint5_linear_112_11154)"/>
<path d="M17.3404 13.1359L19.5496 15.4169L20.8823 14.0411L17.3404 10.3842L13.799 14.0411L15.1316 15.4169L17.3404 13.1359Z" fill="url(#paint6_linear_112_11154)"/>
<path d="M17.3895 14.9895L16.0635 16.3156L17.3895 17.6418L18.7159 16.3156L17.3895 14.9895Z" fill="url(#paint7_linear_112_11154)"/>
<defs>
<linearGradient id="paint0_linear_112_11154" x1="18.8136" y1="3.34843" x2="-1.41946" y2="13.6232" gradientUnits="userSpaceOnUse">
<stop stop-color="#F0DA15"/>
<stop offset="0.835592" stop-color="#D86800"/>
</linearGradient>
<linearGradient id="paint1_linear_112_11154" x1="11.7552" y1="3.72314" x2="-1.28156" y2="23.7386" gradientUnits="userSpaceOnUse">
<stop stop-color="#FFF494"/>
<stop offset="0.63021" stop-color="#FFD4AD"/>
</linearGradient>
<linearGradient id="paint2_linear_112_11154" x1="13.1452" y1="6.91919" x2="3.36766" y2="21.9307" gradientUnits="userSpaceOnUse">
<stop stop-color="#FFEB3C"/>
<stop offset="1" stop-color="#FF881B"/>
</linearGradient>
<linearGradient id="paint3_linear_112_11154" x1="17.3904" y1="10.3842" x2="17.3904" y2="22.1273" gradientUnits="userSpaceOnUse">
<stop stop-color="white" stop-opacity="0.99"/>
<stop offset="1" stop-color="white" stop-opacity="0.49"/>
</linearGradient>
<linearGradient id="paint4_linear_112_11154" x1="17.3904" y1="10.3843" x2="17.3904" y2="22.1274" gradientUnits="userSpaceOnUse">
<stop stop-color="white" stop-opacity="0.99"/>
<stop offset="1" stop-color="white" stop-opacity="0.49"/>
</linearGradient>
<linearGradient id="paint5_linear_112_11154" x1="17.3905" y1="10.3843" x2="17.3905" y2="22.1273" gradientUnits="userSpaceOnUse">
<stop stop-color="white" stop-opacity="0.99"/>
<stop offset="1" stop-color="white" stop-opacity="0.49"/>
</linearGradient>
<linearGradient id="paint6_linear_112_11154" x1="17.3904" y1="10.3842" x2="17.3904" y2="22.1272" gradientUnits="userSpaceOnUse">
<stop stop-color="white" stop-opacity="0.99"/>
<stop offset="1" stop-color="white" stop-opacity="0.49"/>
</linearGradient>
<linearGradient id="paint7_linear_112_11154" x1="17.3904" y1="10.3841" x2="17.3904" y2="22.1271" gradientUnits="userSpaceOnUse">
<stop stop-color="white" stop-opacity="0.99"/>
<stop offset="1" stop-color="white" stop-opacity="0.49"/>
</linearGradient>
</defs>
</svg>
