<svg width="161" height="162" viewBox="0 0 161 162" fill="none" xmlns="http://www.w3.org/2000/svg">
<path fill-rule="evenodd" clip-rule="evenodd" d="M53.022 132.158C37.6945 126.007 21.6789 116.994 16.7613 101.227C11.733 85.106 20.2762 68.6368 28.6322 53.9619C37.0555 39.1689 46.9777 23.6755 63.4233 19.2789C79.863 14.8839 97.8722 20.9844 110.861 31.9788C122.16 41.5436 122.257 57.6378 125.738 72.0268C129.075 85.8198 137.081 100.198 130.393 112.714C123.61 125.408 107.608 128.574 93.6487 132.082C79.9952 135.513 66.0874 137.401 53.022 132.158Z" fill="url(#paint0_linear_1_623)"/>
<path fill-rule="evenodd" clip-rule="evenodd" d="M73.4301 47.1079C65.6197 48.549 60.1651 55.0737 60.1651 62.9747C60.1651 72.9602 69.1196 80.5701 78.702 78.7277C85.069 77.5036 89.8945 72.7746 91.3727 66.3104C91.7474 64.6717 91.73 61.2256 91.3383 59.4785C90.2621 54.6804 87.1796 50.7393 82.841 48.6144C81.8229 48.1158 80.4485 47.5693 79.7867 47.4C78.3762 47.039 74.7153 46.8708 73.4301 47.1079ZM79.5013 49.1747C84.5879 50.4941 88.6048 54.8092 89.6753 60.104C90.6325 64.8388 89.2023 69.6071 85.7859 73.0717C83.9084 74.976 81.9175 76.1061 79.2234 76.797C77.9392 77.1264 77.3098 77.1762 75.3597 77.1032C71.3828 76.9541 68.7648 75.7758 65.8832 72.8384C64.5672 71.4971 64.1398 70.9048 63.4306 69.4409C62.233 66.968 61.9398 65.6963 61.9398 62.9747C61.9398 60.2521 62.233 58.9814 63.4323 56.5053C64.1542 55.0149 64.5639 54.4527 65.9774 53.013C67.738 51.2198 69.1835 50.257 71.1977 49.5359C73.8586 48.5834 76.7385 48.4582 79.5013 49.1747ZM73.163 51.7015C71.8102 52.0338 69.634 53.1575 68.6791 54.0171C68.0032 54.6252 67.9001 54.8103 68.0036 55.2285C68.2092 56.06 68.7666 56.0592 69.9437 55.2259C71.4081 54.1893 72.3685 53.7254 73.7187 53.4027C75.9268 52.8746 77.9454 53.104 80.0644 54.1238C83.3847 55.7219 85.5307 59.0966 85.5431 62.7397C85.5531 65.6928 84.7179 67.8169 82.7485 69.8466C77.5027 75.2531 68.6563 72.845 66.5473 65.4363C66.0551 63.7076 66.2317 61.1389 66.9733 59.2382C67.4072 58.1257 67.5062 57.6677 67.3692 57.4079C67.158 57.0078 66.2326 56.9348 65.9511 57.296C65.5131 57.858 64.798 60.1036 64.5881 61.5754C63.8301 66.8924 67.2415 72.2362 72.5675 74.0746C74.1348 74.6156 77.7916 74.5737 79.4397 73.9961C82.7411 72.8388 85.459 70.1909 86.6097 67.0108C87.7281 63.9201 87.5715 60.8483 86.1408 57.8203C84.8473 55.0821 81.7191 52.5059 78.742 51.7271C77.3829 51.3715 74.5598 51.3586 73.163 51.7015ZM55.094 54.1138C54.8756 54.2758 54.786 54.5432 54.8273 54.9096C54.8825 55.3992 55.0333 55.5199 56.1684 55.9819C57.3503 56.4628 57.4801 56.4805 57.8807 56.2143C58.7872 55.6119 58.3268 54.9158 56.5947 54.2696C55.3275 53.7968 55.4978 53.8146 55.094 54.1138ZM94.7806 54.2792C93.0983 54.9229 92.6543 55.6203 93.548 56.2143C93.9485 56.4805 94.0783 56.4628 95.2602 55.9819C96.3953 55.5199 96.5462 55.3992 96.6013 54.9096C96.6426 54.5432 96.553 54.2758 96.3346 54.1138C95.932 53.8153 96.0157 53.8065 94.7806 54.2792ZM74.9804 55.9226C74.875 56.1223 74.7888 56.5768 74.7888 56.9323C74.7888 57.4766 74.6992 57.6166 74.2222 57.8169C73.095 58.2904 72.2985 59.9908 72.5775 61.3274C72.8633 62.6961 73.811 63.49 75.5831 63.8446C76.9707 64.1223 77.5654 64.5899 77.5654 65.4035C77.5654 67.3089 75.1586 67.7351 73.8345 66.0639C73.1583 65.2107 72.7015 65.127 72.2802 65.7793C72.0077 66.2008 72.0095 66.2913 72.3018 66.9162C72.6604 67.6823 73.5208 68.4201 74.2797 68.6123C74.7123 68.7217 74.7888 68.8385 74.7888 69.3901C74.7888 70.3375 75.0768 70.7653 75.7143 70.7653C76.3513 70.7653 76.6399 70.3375 76.6399 69.3932C76.6399 68.8293 76.7087 68.7334 77.1817 68.6375C77.979 68.4756 78.9543 67.3919 79.2027 66.3915C79.6161 64.7267 79.0104 63.3646 77.5221 62.6126C76.9969 62.3471 76.3294 62.1299 76.039 62.1299C75.3865 62.1299 74.5024 61.6837 74.3484 61.2767C73.7257 59.6311 75.7856 58.5479 77.0101 59.8772C77.9118 60.8562 79.1235 60.4135 78.692 59.2628C78.501 58.7533 77.571 57.8989 77.011 57.7187C76.7328 57.629 76.6399 57.4349 76.6399 56.9425C76.6399 55.9875 76.3533 55.5595 75.7143 55.5595C75.3676 55.5595 75.1029 55.6905 74.9804 55.9226ZM50.3956 62.6099C49.896 62.9647 49.8673 63.4663 50.3227 63.8842C50.6061 64.1444 51.1151 64.1949 53.4562 64.1949C56.4187 64.1949 56.8332 64.0795 56.8332 63.2535C56.8332 62.4973 56.1756 62.3176 53.4086 62.3176C51.3535 62.3176 50.7205 62.379 50.3956 62.6099ZM95.007 62.6099C94.5253 62.952 94.4757 63.4834 94.8863 63.9C95.1255 64.1423 95.6812 64.1949 98.0045 64.1949C100.508 64.1949 100.867 64.1557 101.138 63.8516C101.558 63.3811 101.522 62.9572 101.033 62.6099C100.708 62.379 100.075 62.3176 98.02 62.3176C95.9649 62.3176 95.3319 62.379 95.007 62.6099ZM55.9076 70.6503C55.0061 71.0158 54.883 71.1307 54.8325 71.6527C54.7888 72.1025 54.8714 72.2944 55.1809 72.4624C55.5165 72.6445 55.8041 72.5959 56.8493 72.1799C58.1815 71.6499 58.4914 71.2645 58.1326 70.5847C57.8735 70.0935 57.2335 70.1124 55.9076 70.6503ZM93.296 70.5847C92.9373 71.2645 93.2472 71.6499 94.5794 72.1799C95.6245 72.5959 95.9122 72.6445 96.2478 72.4624C96.5569 72.2946 96.6397 72.1025 96.5962 71.6546C96.5449 71.1265 96.4273 71.0233 95.4352 70.6347C94.0748 70.1017 93.5572 70.0895 93.296 70.5847ZM87.765 79.2149C84.5972 82.5985 84.2595 83.1108 84.8217 83.6809C84.9439 83.8048 85.4853 83.9062 86.0249 83.9062H87.006L87.0245 86.4874C87.0347 87.9072 87.0987 89.2708 87.1669 89.5179C87.3323 90.1167 87.9602 90.3414 88.4656 89.9825C88.8406 89.7161 88.8571 89.5556 88.8571 86.1857C88.8571 82.4496 88.8051 82.2166 87.9717 82.2166C87.729 82.2166 87.5582 82.1446 87.5922 82.0567C87.6261 81.9687 88.4732 81.0182 89.4746 79.9448L91.2952 77.9928L93.2277 80.0578C95.0035 81.9553 95.1225 82.1277 94.6947 82.1819C93.649 82.315 93.6699 82.0691 93.6699 94.1791V105.307H91.2635H88.8571V98.9376C88.8571 93.3092 88.8221 92.533 88.5563 92.2634C88.1441 91.8451 87.5258 91.9763 87.2448 92.5416C86.9096 93.2159 86.9101 105.761 87.2453 106.433L87.4793 106.903L91.2056 106.953C94.4111 106.997 94.9729 106.962 95.2263 106.705C95.4894 106.439 95.521 105.195 95.521 95.1564V83.9062H96.526C97.5563 83.9062 98.1126 83.6022 98.1126 83.0396C98.1126 82.8876 97.0923 81.6574 95.845 80.306C94.5977 78.9547 93.1752 77.3956 92.6833 76.8415C92.0904 76.1734 91.6445 75.8339 91.3598 75.8339C91.0438 75.8339 90.0949 76.7264 87.765 79.2149ZM72.3824 84.7868C70.7025 86.6049 69.2718 88.2389 69.2031 88.418C69.1335 88.5993 69.1996 88.9196 69.3525 89.1409C69.5746 89.4625 69.8182 89.538 70.6344 89.538H71.6419V97.8499C71.6419 105.069 71.6799 106.217 71.9301 106.579C72.2115 106.987 72.3053 106.997 75.8967 106.997C78.9939 106.997 79.6211 106.95 79.8661 106.702C80.122 106.442 80.1569 105.389 80.1569 97.9723V89.538H81.1464C82.2974 89.538 82.9354 89.0647 82.6382 88.4315C82.5462 88.2355 81.1008 86.588 79.4265 84.7705C76.9931 82.1288 76.2874 81.4672 75.9094 81.4736C75.5403 81.4796 74.7671 82.2061 72.3824 84.7868ZM77.7838 85.601C78.7327 86.6365 79.5368 87.5657 79.5707 87.666C79.6048 87.7664 79.4202 87.8484 79.1609 87.8484C78.884 87.8484 78.61 87.9984 78.4974 88.2115C78.3736 88.4463 78.3059 91.5327 78.3059 96.9408V105.307H75.8994H73.493V96.9408C73.493 91.5327 73.4253 88.4463 73.3014 88.2115C73.1915 88.0033 72.9151 87.8484 72.6535 87.8484C72.4025 87.8484 72.1972 87.7987 72.1972 87.7377C72.1972 87.5638 75.7541 83.7185 75.915 83.7185C75.994 83.7185 76.8352 84.5657 77.7838 85.601ZM57.3252 90.5305C53.6071 94.4836 53.5847 94.5129 53.8436 95.0892C54.0276 95.4987 54.1626 95.5452 55.1633 95.5452H56.2778V97.1929C56.2778 98.968 56.5433 99.6752 57.2097 99.6752C57.9557 99.6752 58.1652 98.9282 58.0984 96.5077C58.0643 95.2723 57.9781 94.2026 57.907 94.1307C57.8357 94.0588 57.5343 93.9463 57.2372 93.8808L56.6969 93.7618L58.6117 91.704L60.5265 89.6463L62.4505 91.704L64.3745 93.7618L63.8194 93.8838C63.5139 93.951 63.193 94.12 63.1058 94.2593C63.0188 94.3988 62.9462 96.9415 62.9445 99.9099L62.9418 105.307H60.5353H58.1289V103.793C58.1289 101.989 57.9486 101.552 57.2034 101.552C56.4289 101.552 56.2778 101.988 56.2778 104.22C56.2778 107.146 56.0496 106.997 60.5172 106.997C63.8307 106.997 64.2094 106.964 64.4865 106.653C64.7566 106.351 64.7929 105.672 64.7929 100.928V95.5452H65.9094C66.8974 95.5452 67.0442 95.4966 67.1834 95.1228C67.2776 94.8698 67.2639 94.5523 67.1493 94.331C66.7672 93.5932 60.8645 87.473 60.5352 87.473C60.3443 87.473 58.9671 88.7848 57.3252 90.5305Z" fill="white"/>
<defs>
<linearGradient id="paint0_linear_1_623" x1="73.1788" y1="145.856" x2="172.244" y2="95.7609" gradientUnits="userSpaceOnUse">
<stop stop-color="#FEBE01"/>
<stop offset="1" stop-color="#F37502"/>
</linearGradient>
</defs>
</svg>
