<svg width="31" height="31" viewBox="0 0 31 31" fill="none" xmlns="http://www.w3.org/2000/svg">
<g clip-path="url(#clip0_444_56150)">
<path d="M26.4596 4.5404C23.5305 1.61132 19.6425 0 15.5 0C11.3575 0 7.46949 1.61132 4.5404 4.5404C1.61132 7.46949 0 11.3575 0 15.5C0 19.6425 1.61132 23.5305 4.5404 26.4596C7.46949 29.3887 11.3575 31 15.5 31C19.6425 31 23.5305 29.3887 26.4596 26.4596C29.3887 23.5305 31 19.6425 31 15.5C31 11.3575 29.3887 7.46949 26.4596 4.5404ZM25.2136 25.2136C22.6172 27.81 19.1662 29.2386 15.5 29.2386C11.8338 29.2386 8.38279 27.81 5.78641 25.2136C0.430555 19.8577 0.430555 11.1423 5.78641 5.78641C8.38279 3.19003 11.8338 1.76136 15.5 1.76136C19.1662 1.76136 22.6172 3.19003 25.2136 5.78641C30.5694 11.1423 30.5694 19.8577 25.2136 25.2136Z" fill="white"/>
<path d="M22.3303 8.66983C21.9846 8.32409 21.4301 8.32409 21.0843 8.66983L15.5001 14.254L9.91596 8.66983C9.57021 8.32409 9.01571 8.32409 8.66996 8.66983C8.32421 9.01558 8.32421 9.57009 8.66996 9.91584L14.2541 15.5L8.66996 21.0842C8.32421 21.4299 8.32421 21.9844 8.66996 22.3302C8.83957 22.4998 9.06789 22.5911 9.2897 22.5911C9.5115 22.5911 9.73982 22.5063 9.90943 22.3302L15.4936 16.746L21.0778 22.3302C21.2474 22.4998 21.4757 22.5911 21.6975 22.5911C21.9258 22.5911 22.1477 22.5063 22.3173 22.3302C22.663 21.9844 22.663 21.4299 22.3173 21.0842L16.7461 15.5L22.3303 9.91584C22.6761 9.57009 22.6761 9.01558 22.3303 8.66983Z" fill="white"/>
</g>
<defs>
<clipPath id="clip0_444_56150">
<rect width="31" height="31" fill="white"/>
</clipPath>
</defs>
</svg>
