<svg width="29" height="29" viewBox="0 0 29 29" fill="none" xmlns="http://www.w3.org/2000/svg">
<path d="M24.9494 3.23145L15.8926 9.95806L17.5674 5.98945L24.9494 3.23145Z" fill="#E2761B" stroke="#E2761B" stroke-linecap="round" stroke-linejoin="round"/>
<path d="M4.04144 3.23145L13.0254 10.0218L11.4325 5.98945L4.04144 3.23145ZM21.6908 18.8237L19.2787 22.5193L24.4397 23.9392L25.9234 18.9056L21.6908 18.8237ZM3.08569 18.9056L4.56027 23.9392L9.72129 22.5193L7.30917 18.8237L3.08569 18.9056Z" fill="#E4761B" stroke="#E4761B" stroke-linecap="round" stroke-linejoin="round"/>
<path d="M9.43011 12.5795L7.99194 14.7549L13.1166 14.9825L12.9345 9.47558L9.43011 12.5795ZM19.561 12.5795L16.0111 9.41187L15.8928 14.9825L21.0083 14.7549L19.561 12.5795ZM9.72138 22.5192L12.798 21.0173L10.1401 18.942L9.72138 22.5192ZM16.1931 21.0173L19.2788 22.5192L18.851 18.942L16.1931 21.0173Z" fill="#E4761B" stroke="#E4761B" stroke-linecap="round" stroke-linejoin="round"/>
<path d="M19.2786 22.5192L16.1929 21.0173L16.4387 23.0289L16.4114 23.8755L19.2786 22.5192ZM9.72119 22.5192L12.5884 23.8755L12.5702 23.0289L12.7978 21.0173L9.72119 22.5192Z" fill="#D7C1B3" stroke="#D7C1B3" stroke-linecap="round" stroke-linejoin="round"/>
<path d="M12.634 17.6131L10.0671 16.8576L11.8785 16.0293L12.634 17.6131ZM16.3568 17.6131L17.1123 16.0293L18.9328 16.8576L16.3568 17.6131Z" fill="#233447" stroke="#233447" stroke-linecap="round" stroke-linejoin="round"/>
<path d="M9.7212 22.5192L10.1581 18.8236L7.30908 18.9055L9.7212 22.5192ZM18.8417 18.8236L19.2786 22.5192L21.6908 18.9055L18.8417 18.8236ZM21.0081 14.7549L15.8926 14.9824L16.3659 17.613L17.1214 16.0292L18.9419 16.8575L21.0081 14.7549ZM10.0671 16.8575L11.8876 16.0292L12.6339 17.613L13.1164 14.9824L7.99176 14.7549L10.0671 16.8575Z" fill="#CD6116" stroke="#CD6116" stroke-linecap="round" stroke-linejoin="round"/>
<path d="M7.99194 14.7549L10.1401 18.942L10.0673 16.8575L7.99194 14.7549ZM18.942 16.8575L18.851 18.942L21.0083 14.7549L18.942 16.8575ZM13.1166 14.9824L12.6341 17.613L13.2349 20.7169L13.3714 16.63L13.1166 14.9824ZM15.8928 14.9824L15.647 16.6209L15.7562 20.7169L16.3661 17.613L15.8928 14.9824Z" fill="#E4751F" stroke="#E4751F" stroke-linecap="round" stroke-linejoin="round"/>
<path d="M16.3659 17.6129L15.7561 20.7168L16.193 21.0172L18.8509 18.9419L18.9419 16.8574L16.3659 17.6129ZM10.0671 16.8574L10.14 18.9419L12.7978 21.0172L13.2347 20.7168L12.634 17.6129L10.0671 16.8574Z" fill="#F6851B" stroke="#F6851B" stroke-linecap="round" stroke-linejoin="round"/>
<path d="M16.4114 23.8753L16.4387 23.0288L16.2111 22.8285H12.7796L12.5702 23.0288L12.5884 23.8753L9.72119 22.519L10.7224 23.3383L12.7523 24.7491H16.2385L18.2774 23.3383L19.2786 22.519L16.4114 23.8753Z" fill="#C0AD9E" stroke="#C0AD9E" stroke-linecap="round" stroke-linejoin="round"/>
<path d="M16.193 21.0172L15.7561 20.7168H13.2348L12.7979 21.0172L12.5703 23.0288L12.7797 22.8285H16.2112L16.4388 23.0288L16.193 21.0172Z" fill="#161616" stroke="#161616" stroke-linecap="round" stroke-linejoin="round"/>
<path d="M25.3318 10.395L26.1055 6.68123L24.9495 3.23145L16.193 9.7305L19.5609 12.5795L24.3214 13.9722L25.3773 12.7434L24.9221 12.4157L25.6503 11.7512L25.086 11.3143L25.8142 10.7591L25.3318 10.395ZM2.89453 6.68123L3.66823 10.395L3.1767 10.7591L3.90489 11.3143L3.34965 11.7512L4.07783 12.4157L3.62272 12.7434L4.66948 13.9722L9.43 12.5795L12.7979 9.7305L4.04142 3.23145L2.89453 6.68123Z" fill="#763D16" stroke="#763D16" stroke-linecap="round" stroke-linejoin="round"/>
<path d="M24.3214 13.972L19.5609 12.5793L21.0082 14.7548L18.8509 18.9419L21.6908 18.9055H25.9234L24.3214 13.972ZM9.43001 12.5793L4.6695 13.972L3.08569 18.9055H7.30917L10.14 18.9419L7.99185 14.7548L9.43001 12.5793ZM15.8927 14.9824L16.193 9.73031L17.5766 5.98926H11.4325L12.7979 9.73031L13.1165 14.9824L13.2257 16.639L13.2348 20.7168H15.7561L15.7743 16.639L15.8927 14.9824Z" fill="#F6851B" stroke="#F6851B" stroke-linecap="round" stroke-linejoin="round"/>
</svg>
