<svg width="63" height="47" viewBox="0 0 63 47" fill="none" xmlns="http://www.w3.org/2000/svg">
<path d="M61.7184 8.91025C60.8211 5.58233 58.1941 2.95861 54.8722 2.06542C50.1452 0.773673 33.3939 0.736389 31.4993 0.736389C29.6061 0.736389 12.8661 0.772196 8.14988 2.0114C8.14139 2.01374 8.13302 2.01595 8.12465 2.01829C4.85395 2.91481 2.16747 5.62023 1.2803 8.91025C1.2792 8.91481 1.27797 8.91924 1.27674 8.92379C0.0140312 13.7152 -0.000488281 23.1027 -0.000488281 23.5C-0.000488281 23.8993 0.0140312 33.3353 1.28043 38.0898C2.17768 41.4177 4.80473 44.0415 8.1329 44.9363C12.9034 46.2264 29.6101 46.2636 31.4993 46.2636C33.3927 46.2636 50.1327 46.2278 54.8488 44.9885C54.8532 44.9874 54.8578 44.9862 54.8622 44.985C58.1939 44.0892 60.8211 41.4654 61.7184 38.1376C62.0721 36.8254 61.2952 35.4747 59.9829 35.1208C58.6706 34.7672 57.3199 35.5439 56.9662 36.8562C56.5244 38.4945 55.2315 39.7867 53.5908 40.2302C50.1048 41.1417 36.4644 41.3417 31.4993 41.3418C26.5472 41.3418 12.9264 41.1341 9.4143 40.1842C7.77052 39.7423 6.47484 38.4487 6.03446 36.8158C4.93565 32.6902 4.92138 23.5912 4.92138 23.5C4.92138 20.973 5.12133 13.6596 6.03421 10.1862C6.47607 8.55527 7.80141 7.21529 9.41406 6.76826C12.9104 5.85821 26.5375 5.65838 31.4996 5.65826C36.4641 5.65826 50.1078 5.86571 53.5846 6.81588C55.2283 7.25774 56.5241 8.55133 56.969 10.2014C57.9147 13.6521 58.0898 20.9969 58.0774 23.5476C58.0774 23.5537 58.077 24.1572 58.0577 25.1114C58.0303 26.4702 59.1096 27.594 60.4685 27.6216C60.4854 27.622 60.5023 27.6221 60.5191 27.6221C61.8551 27.6221 62.9514 26.5527 62.9786 25.2109C62.9979 24.2494 62.9991 23.6336 62.9991 23.5554C63.0014 23.09 63.0286 13.691 61.7184 8.91025Z" fill="url(#paint0_linear_444_20522)"/>
<path d="M30.2265 13.1396C28.7234 12.2672 26.9273 12.2644 25.4215 13.1315C23.9111 14.0012 23.0093 15.5628 23.0093 17.3083V29.5685C23.0093 31.3142 23.9111 32.8757 25.4215 33.7455C26.1719 34.1776 26.9946 34.3937 27.8171 34.3937C28.6449 34.3937 29.4727 34.1748 30.2265 33.7375L40.7905 27.6074C42.2923 26.7359 43.1889 25.1774 43.1889 23.4385C43.1889 21.6996 42.2923 20.141 40.7905 19.2694L30.2265 13.1396ZM27.9311 29.3788V17.498L38.1685 23.4385L27.9311 29.3788Z" fill="url(#paint1_linear_444_20522)"/>
<defs>
<linearGradient id="paint0_linear_444_20522" x1="34.4837" y1="-5.90301" x2="61.0471" y2="7.5652" gradientUnits="userSpaceOnUse">
<stop stop-color="#F33800"/>
<stop offset="1" stop-color="#B00B01"/>
</linearGradient>
<linearGradient id="paint1_linear_444_20522" x1="34.055" y1="9.28793" x2="43.6574" y2="12.5283" gradientUnits="userSpaceOnUse">
<stop stop-color="#F33800"/>
<stop offset="1" stop-color="#B00B01"/>
</linearGradient>
</defs>
</svg>
