<svg width="26" height="16" viewBox="0 0 26 16" fill="none" xmlns="http://www.w3.org/2000/svg">
<g clip-path="url(#clip0_1089_41970)">
<path d="M5.32611 3.12455C9.56553 -1.0438 16.4412 -1.0438 20.6806 3.12455L21.1904 3.62287C21.4051 3.83162 21.4051 4.16832 21.1904 4.37708L19.4463 6.09425C19.339 6.19526 19.1713 6.19526 19.064 6.09425L18.3596 5.40065C15.4014 2.49156 10.6053 2.49156 7.64706 5.40065L6.89577 6.14139C6.78844 6.2424 6.62074 6.2424 6.51342 6.14139L4.76264 4.43095C4.54799 4.2222 4.54799 3.8855 4.76264 3.67674L5.32611 3.12455ZM24.2895 6.67337L25.8457 8.20199C26.0604 8.41075 26.0604 8.74745 25.8457 8.9562L18.8359 15.8451C18.6213 16.0538 18.2792 16.0538 18.0712 15.8451L13.1006 10.9562C13.047 10.9023 12.9598 10.9023 12.9061 10.9562L7.9355 15.8451C7.72085 16.0538 7.37874 16.0538 7.17079 15.8451L0.160991 8.9562C-0.0536636 8.74745 -0.0536636 8.41075 0.160991 8.20199L1.71723 6.67337C1.93189 6.46462 2.27399 6.46462 2.48194 6.67337L7.45253 11.5623C7.50619 11.6161 7.5934 11.6161 7.64706 11.5623L12.6176 6.67337C12.8323 6.46462 13.1744 6.46462 13.3824 6.67337L18.3529 11.5623C18.4066 11.6161 18.4938 11.6161 18.5475 11.5623L23.5181 6.67337C23.7327 6.46462 24.0748 6.46462 24.2895 6.67337Z" fill="white"/>
</g>
<defs>
<clipPath id="clip0_1089_41970">
<rect width="26" height="16" fill="white"/>
</clipPath>
</defs>
</svg>
