<svg width="122" height="175" viewBox="0 0 122 175" fill="none" xmlns="http://www.w3.org/2000/svg">
<path d="M110.5 54.6465C112.339 59.0793 109.76 69.2634 108.002 71.8615C108.086 69.9598 108.181 68.0544 108.188 66.1491C108.188 64.3215 108.188 62.5152 108.03 60.7195C108.001 60.0897 108.053 59.4588 108.185 58.8424L108.562 56.6472L107.963 58.2379C107.875 58.543 107.718 58.8237 107.505 59.058C107.537 59.0262 106.293 56.5376 106.148 56.3362C105.643 55.7221 105.008 55.2292 104.288 54.8939C99.757 52.6634 109.474 52.1826 110.5 54.6465Z" fill="url(#paint0_linear_226_19088)"/>
<path d="M64.5304 82.0528C64.6467 80.8368 64.7594 79.6208 64.8827 78.4048C65.1928 75.0796 65.5017 71.7532 65.8094 68.4257C65.9151 67.3122 67.0038 55.0778 67.032 55.0778C67.2842 55.1269 67.5239 55.2267 67.7367 55.3712C67.9565 55.5176 68.2223 55.578 68.4836 55.5409C68.0996 55.1874 67.5253 54.8339 67.2469 54.3956C66.9686 53.9573 67.1623 53.2644 67.2046 52.7766C67.3244 51.3626 67.4618 49.931 67.6662 48.517C67.9093 46.8308 67.941 45.1482 68.1559 43.4656C69.0227 43.7013 69.8906 43.9216 70.7597 44.1266C69.7921 43.5539 68.8855 42.8835 68.0538 42.1259C68 42.0823 67.9556 42.0282 67.9234 41.9668C67.8951 41.8735 67.8951 41.7738 67.9234 41.6805C68.4702 38.5527 69.321 35.4863 70.4637 32.525C71.0803 30.9378 71.7498 29.3683 72.5179 27.8518C72.7398 27.4135 73.3 25.8899 73.8744 25.7768C74.7164 25.6072 76.4675 40.4715 75.8862 42.8364C75.3048 45.2012 70.0445 82.0033 68.9311 82.4275C67.8177 82.8517 64.5304 82.0528 64.5304 82.0528Z" fill="url(#paint1_linear_226_19088)"/>
<path d="M80.7767 10.9795C80.4243 10.9795 80.072 12.6763 79.9945 12.9025C79.5047 14.67 79.1171 16.4374 78.7366 18.2332C78.5323 19.1699 78.3385 20.1102 78.1482 21.0611C77.9756 21.9095 77.8769 22.5988 78.3279 23.38L80.1319 26.5155C79.3098 25.6506 78.5076 24.7681 77.7254 23.8678C77.7571 23.8996 77.2744 25.3596 77.2498 25.5469C77.1918 26.0173 77.1047 26.4836 76.989 26.9432C76.7847 27.7845 76.6649 28.6577 76.5063 29.5096C76.1681 31.3195 75.8369 33.1293 75.5128 34.9392C74.8222 38.7852 74.1539 42.6324 73.508 46.4807C72.862 50.3291 72.2419 54.1492 71.6476 57.941C71.1191 61.3416 70.6082 64.7492 70.1361 68.1569C69.7838 70.748 69.4314 73.3426 69.1707 75.9337C69.0368 77.2876 68.8007 78.7617 68.9558 80.112C70.418 81.3457 73.9308 81.1124 73.9308 81.1124C73.9308 81.1124 83.2747 48.4285 84.4022 35.3988C85.5297 22.369 82.0028 11.0361 80.7767 10.9795Z" fill="url(#paint2_linear_226_19088)"/>
<path d="M71.5454 82.9222C71.5454 82.9222 76.8305 45.9363 80.9634 27.986C82.2321 22.2256 84.009 16.59 86.2731 11.1456C86.6496 11.9126 87.2905 12.5166 88.077 12.8459C87.5595 12.0414 87.1429 11.1758 86.8368 10.2689C86.6627 9.86249 86.6148 9.41282 86.6994 8.97866C86.8165 8.65184 86.9988 8.35236 87.2349 8.09846C88.6795 6.28505 89.504 4.16056 90.79 2.23049C91.1142 1.73913 92.1042 -0.0672147 92.8759 0.00348382C94.0985 0.116601 93.9857 26.5614 92.8759 28.5515L90.2545 28.5869C90.2545 28.5869 92.4178 29.3151 92.9463 29.2161C93.0626 32.1678 86.6853 74.3147 82.1225 79.8327C80.9005 81.3896 79.224 82.5244 77.3275 83.0783C75.4311 83.6323 73.4094 83.5777 71.5454 82.9222Z" fill="url(#paint3_linear_226_19088)"/>
<path d="M96.3394 21.3687C95.8496 21.2167 94.5495 25.0379 94.4297 25.3561C93.9822 26.5261 93.5806 27.3003 94.1232 28.4633C94.7074 29.6765 95.1269 30.9629 95.3704 32.2881C94.7548 31.4258 94.0613 30.6223 93.2987 29.8878C93.2559 29.8392 93.203 29.8006 93.1437 29.7747C93.0772 29.759 93.0075 29.7646 92.9444 29.7906C92.8812 29.8166 92.8277 29.8617 92.7913 29.9197C92.7219 30.0403 92.6776 30.1738 92.661 30.312C92.3826 31.726 91.7061 33.0551 91.2692 34.4302C90.7372 36.1058 90.2122 37.7813 89.7119 39.471C89.0072 41.8642 88.2074 44.3386 87.9185 46.8307C87.3336 51.8786 82.6511 83.8379 82.6511 83.8379C82.6511 83.8379 85.3429 86.4325 88.3272 86.2381C91.3115 86.0437 98.7423 48.9517 98.6824 46.099C97.3964 45.5971 95.0569 45.3037 95.0569 45.3037C95.0569 45.3037 97.8755 44.8335 98.6824 45.0103C99.4892 45.187 98.619 22.0721 96.3394 21.3687Z" fill="url(#paint4_linear_226_19088)"/>
<path d="M86.7558 88.2248C86.7558 88.2248 95.3986 51.3237 101.994 51.4616C109.802 51.6206 110.493 54.643 110.5 54.643C110.391 54.1693 108.939 53.9926 108.615 53.9961C107.886 54.0266 107.184 54.2835 106.606 54.7314C106.193 55.0395 105.817 55.3954 105.486 55.7919C105.169 56.1701 104.958 56.6614 104.411 56.6933L102.445 56.817L104.242 57.6724C103.125 59.3904 102.748 61.5326 102.192 63.4874C101.681 65.2937 101.212 67.1107 100.754 68.9276C99.7641 72.8443 98.8269 76.7716 97.7452 80.6636C96.9454 83.5269 96.1843 86.6411 94.6587 89.2287C94.4231 89.666 94.1158 90.0603 93.7497 90.3952C90.0396 93.5166 86.7558 88.2248 86.7558 88.2248Z" fill="url(#paint5_linear_226_19088)"/>
<path d="M80.2235 70.5182C80.2235 70.5182 85.8151 29.2727 88.6796 18.6255C86.2661 23.9774 80.4349 58.6585 79.4237 68.8214C79.4237 69.7228 80.2235 70.5182 80.2235 70.5182Z" fill="url(#paint6_radial_226_19088)"/>
<path d="M86.7558 74.5269C86.7558 74.5269 93.4044 40.2593 94.9793 37.1592C94.3592 43.8084 87.5098 76.4994 87.5098 76.4994L86.7558 74.5269Z" fill="url(#paint7_radial_226_19088)"/>
<path d="M91.8893 82.4168C91.8893 82.4168 97.7839 54.8232 103.09 53.0769C97.7311 60.5462 97.2801 67.153 92.1677 84.1842C91.3291 83.7282 91.8893 82.4168 91.8893 82.4168Z" fill="url(#paint8_radial_226_19088)"/>
<path d="M67.6873 75.598C67.6873 75.598 71.6758 45.24 72.3522 36.6643C73.1943 41.8925 68.702 76.4994 68.702 76.4994L67.6873 75.598Z" fill="url(#paint9_radial_226_19088)"/>
<path d="M80.4807 153.861L81.4108 161.228C81.4108 161.228 82.0944 160.5 83.5248 160.581C84.9553 160.662 83.2993 162.978 82.3093 163.763C81.3192 164.547 82.3762 170.889 81.9922 172.663C81.6081 174.438 79.5857 175.138 79.1136 173.724C78.6415 172.31 79.4941 166.654 79.4941 166.654C79.4941 166.654 77.211 175.011 75.4211 174.989C73.6312 174.968 73.0569 173.805 73.7369 172.303C74.4169 170.801 77.7888 165.94 77.7888 165.94C77.7888 165.94 72.8209 172.367 71.4467 171.854C70.0726 171.341 70.4602 169.62 70.9288 168.754C71.3974 167.888 76.7635 164.158 76.7635 164.158L74.2126 158.114C74.2126 158.114 77.1194 154.169 80.4807 153.861Z" fill="url(#paint10_radial_226_19088)"/>
<path d="M80.1037 155.19C80.1037 155.19 81.1325 160.74 80.8577 161.486C80.5828 162.232 78.8353 163.038 78.8353 163.038C78.8353 163.038 80.2939 162.939 81.0479 162.359C81.1254 163.497 81.2946 167.598 81.3263 169.606C81.358 171.614 81.809 172.823 79.7936 173.441C78.7542 172.635 79.5364 165.664 79.5364 165.664C79.5364 165.664 79.8148 164.448 79.3849 165.311C78.9551 166.173 77.6232 172.967 75.5761 173.618C73.5291 174.268 73.6207 173.003 74.2725 171.416C74.9243 169.828 77.9685 165 77.9685 165C77.9685 165 72.7046 171.804 70.9429 170.567C70.5624 170.041 70.9887 168.545 70.9887 168.545L76.7036 163.904L75.9989 161.034C75.9989 161.034 77.2039 161.592 79.2581 159.291C77.1229 160.104 75.6959 160.221 75.3824 159.075C75.0688 157.93 76.1857 156.915 80.1037 155.19Z" fill="url(#paint11_radial_226_19088)"/>
<path d="M80.456 171.182C81.4214 171.041 81.0092 174.307 80.0861 174.99C78.8353 173.417 79.5223 171.317 80.456 171.182Z" fill="url(#paint12_radial_226_19088)"/>
<path d="M75.2872 171.564C76.242 171.773 74.7094 174.682 73.6066 174.997C72.99 173.088 74.3711 171.366 75.2872 171.564Z" fill="url(#paint13_radial_226_19088)"/>
<path d="M72.3734 167.814C73.2789 168.167 71.2847 170.794 70.1467 170.917C69.8542 168.931 71.5032 167.464 72.3734 167.814Z" fill="url(#paint14_radial_226_19088)"/>
<path d="M45.6981 155.547L41.699 161.79C41.699 161.79 42.6891 161.673 43.725 162.653C44.7608 163.632 42.0126 164.342 40.7653 164.293C39.5181 164.243 36.2484 169.793 34.8144 170.903C33.3804 172.013 31.3932 171.235 31.9323 169.843C32.4713 168.45 36.7593 164.667 36.7593 164.667C36.7593 164.667 29.6562 169.595 28.3032 168.425C26.9502 167.255 27.2462 165.993 28.7366 165.283C30.227 164.572 35.9102 163.031 35.9102 163.031C35.9102 163.031 27.9896 164.749 27.2779 163.476C26.5662 162.204 27.6514 161.274 28.571 160.913C29.4906 160.553 36.2766 161.023 36.2766 161.023L38.1757 154.763C38.1757 154.763 42.9287 153.614 45.6981 155.547Z" fill="url(#paint15_radial_226_19088)"/>
<path d="M44.5529 156.318C44.5529 156.318 41.7836 161.231 41.093 161.62C40.4024 162.009 38.5526 161.507 38.5526 161.507C38.5526 161.507 39.733 162.37 40.6666 162.412C39.9937 163.335 37.4956 166.583 36.2343 168.142C34.9729 169.701 34.543 170.917 32.6017 170.094C32.3233 168.8 37.6154 163.759 37.6154 163.759C37.6154 163.759 38.4187 163.109 37.5309 163.497C36.643 163.886 31.2487 168.344 29.251 167.513C27.2532 166.682 28.1481 165.777 29.6632 164.986C31.1782 164.194 36.6077 162.458 36.6077 162.458C36.6077 162.458 27.9966 164.158 27.447 162.066C27.447 160.56 30.0825 160.807 30.0825 160.807L36.3259 160.882L37.6824 158.156C37.6824 158.156 38.2461 159.362 41.2973 158.927C39.141 158.17 37.9713 157.34 38.4786 156.272C38.986 155.204 40.4517 155.116 44.5529 156.318Z" fill="url(#paint16_radial_226_19088)"/>
<path d="M34.2999 168.294C35.2372 168.57 33.5107 171.37 32.3903 171.607C31.9146 169.655 33.4085 168.029 34.2999 168.294Z" fill="url(#paint17_radial_226_19088)"/>
<path d="M29.9451 165.802C30.7202 166.4 28.0918 168.372 26.9643 168.181C27.2215 166.191 29.2052 165.226 29.9451 165.802Z" fill="url(#paint18_radial_226_19088)"/>
<path d="M29.9451 161.458C30.375 162.338 27.1546 162.953 26.2244 162.285C27.3272 160.606 29.5293 160.606 29.9451 161.458Z" fill="url(#paint19_radial_226_19088)"/>
<path d="M94.6446 82.2259C94.6446 82.2259 96.1279 74.647 95.4162 68.2912C93.9307 70.8794 92.7551 73.6345 91.914 76.4993C91.914 76.4993 90.1311 66.6616 91.7343 60.73C90.4537 63.0214 89.4765 65.4705 88.8275 68.0155C88.8275 68.0155 87.1645 56.4881 88.8275 51.2352C86.8424 56.5487 85.3711 62.0413 84.4339 67.6373C84.9095 58.6656 84.0181 46.1697 84.0181 46.1697C84.0181 46.1697 78.8564 60.168 78.201 67.1C76.6578 62.4763 77.2251 55.7493 77.2251 55.7493C77.2251 55.7493 74.8891 68.5033 73.1908 71.8615C72.1338 65.5729 72.7398 56.8275 72.7398 56.8275C72.7398 56.8275 69.4772 68.4927 68.0538 71.4727C67.6838 67.0682 66.5845 66.1455 66.5845 66.1455C66.5845 66.1455 66.4682 71.6636 65.1752 75.1101C63.8821 78.5567 66.5845 79.5712 66.5845 79.5712C66.5845 79.5712 70.1361 81.268 72.9794 81.3386C75.8228 81.4094 78.342 82.0987 82.1049 82.8375C85.8679 83.5763 86.1568 85.6866 88.8275 85.372C91.4982 85.0574 93.577 85.1245 94.6446 82.2259Z" fill="url(#paint20_linear_226_19088)"/>
<path d="M59.714 148.096C59.714 148.096 59.0093 156.898 59.714 159.192C57.5612 159.301 56.8953 158.043 56.8953 158.043C56.8953 158.043 56.6733 160.722 55.2146 161.705C54.4663 160.489 53.5937 159.354 52.6109 158.319C52.6109 158.319 51.7406 161.38 46.667 162.207C46.9922 160.965 46.8674 159.647 46.3146 158.488C46.3146 158.488 40.3249 160.457 40.4024 161.878C37.996 160.62 38.2426 157.23 38.2426 157.23C38.2426 157.23 35.0399 159.581 34.7192 160.51C33.6437 159.663 32.9407 158.427 32.7603 157.067C32.7603 157.067 32.489 159.188 30.0191 159.542C30.0825 158.011 30.0191 155.59 30.0191 155.59C30.0191 155.59 26.7247 155.943 26.3442 157.573C25.3929 156.042 25.5832 153.253 25.5832 153.253C25.5832 153.253 23.4269 153.96 22.7962 153.96C23.9977 151.503 25.5585 141.772 30.3221 139.092C34.7228 139.75 41.7589 139.188 46.1526 142.146C50.5462 145.105 59.714 148.096 59.714 148.096Z" fill="url(#paint21_linear_226_19088)"/>
<path style="mix-blend-mode:multiply" opacity="0.5" d="M59.714 148.096C59.714 148.096 59.0093 156.898 59.714 159.192C57.5612 159.301 56.8953 158.043 56.8953 158.043C56.8953 158.043 56.6733 160.722 55.2146 161.705C54.4663 160.489 53.5937 159.354 52.6109 158.319C52.6109 158.319 51.7406 161.38 46.667 162.207C46.9922 160.965 46.8674 159.647 46.3146 158.488C46.3146 158.488 40.3249 160.457 40.4024 161.878C37.996 160.62 38.2426 157.23 38.2426 157.23C38.2426 157.23 35.0399 159.581 34.7192 160.51C33.6437 159.663 32.9407 158.427 32.7603 157.067C32.7603 157.067 32.489 159.188 30.0191 159.542C30.0825 158.011 30.0191 155.59 30.0191 155.59C30.0191 155.59 26.7247 155.943 26.3442 157.573C25.3929 156.042 25.5832 153.253 25.5832 153.253C25.5832 153.253 23.4269 153.96 22.7962 153.96C23.9977 151.503 25.5585 141.772 30.3221 139.092C34.7228 139.75 41.7589 139.188 46.1526 142.146C50.5462 145.105 59.714 148.096 59.714 148.096Z" fill="url(#paint22_radial_226_19088)"/>
<path d="M54.4959 161.005L55.8312 160.457C55.8312 160.457 56.2082 163.353 58.6922 163.791C59.3969 162.649 66.5423 162.101 66.5423 162.101C66.5423 162.101 66.9827 163.734 66.1653 165.053C69.6428 165.378 71.482 164.607 71.482 164.607C71.482 164.607 72.754 167.29 74.9807 166.912C74.4839 164.83 77.1229 161.776 77.1229 161.776C78.3451 162.868 79.7616 163.718 81.2981 164.282C82.947 163.14 85.0364 160.394 85.0364 160.394C85.0364 160.394 85.9278 161.376 88.6514 162.515C90.8711 158.782 89.7824 155.798 89.7824 155.798C89.7824 155.798 92.3861 156.505 94.3627 156.838C93.9103 155.344 92.9551 154.055 91.6603 153.19C91.9915 153.299 96.6318 155.017 99.6795 154.526C97.6536 154.526 90.6562 137.958 87.8269 139.442C71.2671 148.117 58.2306 147.106 56.846 147.877C56.1025 148.283 55.4895 151.952 55.0843 155.3C54.7002 158.301 54.4959 161.005 54.4959 161.005Z" fill="url(#paint23_linear_226_19088)"/>
<path style="mix-blend-mode:multiply" opacity="0.5" d="M55.0878 155.339C55.0908 155.374 55.0979 155.408 55.1089 155.441C54.7566 160.419 59.0798 161.589 60.2108 161.514C60.1579 160.001 63.6883 156.025 63.8715 156.127C64.0547 156.23 64.8616 159.584 66.5528 160.51C65.6156 157.244 69.3926 154.42 69.6534 154.232C69.5653 154.42 68.4554 156.686 69.6534 157.485C69.6534 155.144 78.3808 152.005 82.947 153.158C87.5133 154.31 87.8974 158.747 87.8974 158.747C87.8974 158.747 88.3836 154.243 86.7241 151.769C90.6667 153.441 94.3592 156.866 94.3592 156.866C93.9068 155.373 92.9516 154.083 91.6568 153.218C91.988 153.328 96.6283 155.045 99.676 154.554C97.65 154.554 90.6526 137.986 87.8234 139.471C71.2636 148.145 58.2271 147.134 56.8424 147.905C56.099 148.311 55.4859 151.981 55.0807 155.328L55.0878 155.339Z" fill="url(#paint24_radial_226_19088)"/>
<path d="M2.29019 110.481C2.31486 110.739 2.34304 111 2.36418 111.258C2.42056 111.788 2.48398 112.35 2.56854 112.934C2.61434 113.266 2.65662 113.581 2.69891 113.874C3.8299 120.969 7.19824 131.499 16.8241 141.153C15.0624 137.307 14.9602 134.836 14.9602 134.836C14.9602 134.836 22.2923 145.321 43.8518 153.165C40.8496 151.099 38.2975 148.442 36.3506 145.356C36.9953 146.272 45.9834 158.457 69.8507 153.886C92.7138 149.524 97.6113 131.552 98.2384 128.788C97.9354 129.901 96.741 133.383 92.6011 135.73C95.0005 132.676 100.705 125.515 102.449 115.546C102.867 113.155 103.027 110.725 102.925 108.299C102.731 94.5839 94.0738 88.2423 94.0738 88.2423C94.0738 88.2423 69.0791 84.216 60.327 91.7207C58.7873 93.0392 56.9376 94.6794 54.7707 96.4292C54.0837 96.9912 53.3614 97.5533 52.6074 98.1365C51.7477 98.7728 50.8457 99.4339 49.9049 100.081C48.4639 101.074 46.9136 102.057 45.2682 102.986C44.8137 103.245 44.3521 103.503 43.8906 103.743C42.2016 104.643 40.4616 105.443 38.6795 106.14C38.4082 106.246 38.1299 106.355 37.8621 106.451C33.5787 108.06 29.0783 109.013 24.5121 109.279L23.7263 109.321C21.275 109.415 18.8201 109.318 16.3837 109.031C15.5451 108.943 14.6854 108.816 13.8116 108.678H13.7482C13.5227 108.646 13.2972 108.6 13.0682 108.558C13.0632 108.56 13.0578 108.561 13.0523 108.561C13.0469 108.561 13.0414 108.56 13.0365 108.558C9.34627 107.863 5.73028 106.818 2.23734 105.436C2.23734 105.436 1.84624 105.998 2.29019 110.481Z" fill="url(#paint25_linear_226_19088)"/>
<path d="M54.517 100.95C53.8652 110.869 56.4055 119.88 58.516 122.128C54.6192 120.598 52.558 116.098 52.558 116.098C52.558 116.098 53.2944 125.695 63.0717 128.41C57.7867 130.099 51.9696 125.501 51.9696 125.501C51.9696 125.501 56.5535 134.801 70.4073 134.094C65.1223 135.628 58.516 135.508 58.516 135.508C58.516 135.508 58.0826 138.983 68.3814 139.085C65.7318 142.663 56.1307 143.055 56.1307 143.055C56.1307 143.055 56.2575 145.932 60.4362 147.873C58.5266 149.1 51.5855 146.106 51.5855 146.106C51.5855 146.106 51.5855 150.036 56.483 151.878C52.3184 152.797 43.0766 150.464 38.7922 144.324C40.9978 148.439 43.2634 149.913 43.2634 149.913C43.2634 149.913 31.7561 148.439 26.3512 134.069C26.5485 140.81 28.6625 143.769 28.6625 143.769C28.6625 143.769 13.121 138.919 12.4797 122.828C11.1056 127.989 11.997 130.997 11.997 130.997C11.997 130.997 4.11173 124.426 5.09827 111.714C8.10723 105.267 20.9534 101.725 29.864 101.336C38.7746 100.947 55.0701 92.5197 54.517 100.95Z" fill="url(#paint26_radial_226_19088)"/>
<path d="M60.63 144.363C60.63 144.363 65.8199 145.105 70.4073 143.518C66.3273 146.646 62.959 146.113 60.63 144.363Z" fill="url(#paint27_radial_226_19088)"/>
<path d="M55.9581 148.746C55.9581 148.746 59.8338 149.58 63.4805 148.983C62.6102 150.475 57.7339 149.895 57.7339 149.895C57.7339 149.895 58.6112 150.917 60.7252 151.062C59.7668 151.677 55.8136 150.765 55.9581 148.746Z" fill="url(#paint28_radial_226_19088)"/>
<path d="M80.9634 138.509C80.9634 138.509 84.8567 137.095 86.2484 135.328C86.0934 136.83 84.2436 138.767 80.9634 138.509Z" fill="url(#paint29_radial_226_19088)"/>
<path d="M77.2251 142.733C77.2251 142.733 80.0438 141.825 80.9634 141.319C80.2376 142.599 78.5534 142.825 77.2251 142.733Z" fill="url(#paint30_radial_226_19088)"/>
<path d="M47.5302 146.554C47.5302 146.554 41.7483 143.539 40.2826 138.898C40.487 142.666 41.3079 145.201 47.5302 146.554Z" fill="url(#paint31_linear_226_19088)"/>
<path d="M53.3613 143.518C53.3613 143.518 48.943 141.528 46.4168 138.534C46.8255 141.549 49.5032 143.009 53.3613 143.518Z" fill="url(#paint32_linear_226_19088)"/>
<path d="M36.0334 139.782C36.0334 139.782 32.0591 136.438 30.3961 132.454C30.2093 135.6 32.4608 138.898 36.0334 139.782Z" fill="url(#paint33_linear_226_19088)"/>
<path d="M36.7663 129.29C36.7663 129.29 37.3688 133.129 41.7554 133.928C40.9098 134.522 37.1362 132.669 37.1362 132.669C37.1362 132.669 37.8233 135.26 39.6202 136.243C37.249 135.37 35.8291 133.903 36.7663 129.29Z" fill="url(#paint34_linear_226_19088)"/>
<path d="M33.5953 119.633C33.5953 119.633 33.021 123.475 36.9706 125.554C35.9841 125.865 32.9364 122.966 32.9364 122.966C32.9364 122.966 32.8201 125.645 34.24 127.123C32.2564 125.575 31.3368 123.751 33.5953 119.633Z" fill="url(#paint35_linear_226_19088)"/>
<path d="M56.1201 81.4943C56.1201 81.4943 58.1038 74.8734 61.2325 72.3035C61.3523 75.6334 61.4721 78.5179 61.4721 78.5179C61.4721 78.5179 68.5717 69.0125 68.089 63.9328C70.2559 70.3805 67.49 78.5179 67.49 78.5179C67.49 78.5179 73.3846 70.7941 73.0217 66.4991C75.0089 72.3883 74.1668 79.9318 74.1668 79.9318C74.1668 79.9318 78.5569 54.2046 83.25 51.3767C83.6024 57.8845 82.5278 75.2056 84.8743 80.0944C85.3535 72.7913 87.5803 65.2053 87.5803 65.2053C87.5803 65.2053 89.6943 80.5469 91.7308 83.2335C96.4838 78.783 97.2061 71.2395 97.2061 71.2395C97.2061 71.2395 102.139 84.2162 91.308 90.7947C80.4772 97.3732 67.3491 98.8826 67.3491 98.8826C67.3491 98.8826 73.966 97.4509 74.8116 94.6654C72.2871 95.8591 69.5187 96.442 66.7289 96.3671C63.9391 96.2922 61.2058 95.5616 58.7486 94.2341C58.5266 89.9816 56.1201 81.4943 56.1201 81.4943Z" fill="url(#paint36_radial_226_19088)"/>
<path d="M57.1454 86.2629C59.4296 84.3593 61.2972 82.003 62.6313 79.3415C64.3225 83.2476 62.9343 85.3226 62.9343 85.3226C62.9343 85.3226 68.2194 82.583 70.4074 78.2209C71.9295 79.7374 68.9311 86.2523 68.9311 86.2523C68.9311 86.2523 75.2203 85.4287 76.7741 78.9491C78.6838 81.717 74.7165 86.8037 74.7165 86.8037C74.7165 86.8037 80.1988 83.5976 83.398 82.2402C82.4925 84.5202 78.6098 87.0406 78.6098 87.0406C78.6098 87.0406 84.5643 86.8356 86.0582 87.6769C85.1386 88.3839 79.2264 89.1757 76.0025 90.275C72.1902 91.5794 63.6249 92.3041 63.6249 92.3041C65.8504 92.7956 68.1379 92.941 70.4074 92.7353C68.2476 94.8917 61.6624 94.5558 59.943 93.0146C58.2236 91.4734 57.1454 86.2629 57.1454 86.2629Z" fill="url(#paint37_radial_226_19088)"/>
<path d="M54.8095 69.4048C54.8095 69.4048 62.9132 91.6006 63.4805 99.89C62.699 96.9754 61.0979 94.3481 58.8684 92.3217C61.6237 96.6767 61.6871 108.229 61.6871 108.229C61.6871 108.229 58.7768 99.685 57.3498 98.529C57.7022 104.376 57.8466 108.356 59.7034 111.439C54.9645 109.834 53.2345 103.771 53.2345 103.771C53.2345 103.771 54.5241 115.437 48.1468 120.435C49.0734 113.111 48.626 109.19 48.626 109.19C48.626 109.19 45.4232 116.387 41.389 117.734C43.5664 112.467 42.9287 108.034 42.9287 108.034C42.9287 108.034 40.11 114.111 37.7423 114.959C39.5322 111.375 36.3329 106.302 36.3329 106.302C36.3329 106.302 49.6548 93.2903 54.8095 69.4048Z" fill="url(#paint38_radial_226_19088)"/>
<path d="M2.29016 110.481C2.08581 108.451 1.98716 106.387 2.22675 105.436C3.34365 114.023 4.59444 119.456 9.97815 123.365C8.42786 119.208 8.1777 112.891 8.1777 112.891C8.1777 112.891 10.3093 123.365 14.4105 126.964C13.4205 122.231 13.7446 114.779 13.7446 114.779C13.7446 114.779 16.1229 121.658 16.0595 127.533C17.201 126.702 17.9868 124.38 18.5258 121.909C19.0315 119.397 19.3693 116.855 19.537 114.298C20.0276 117.433 20.2176 120.608 20.1043 123.779C20.1043 124.178 20.062 124.567 20.0303 124.956C20.2615 124.761 20.4803 124.552 20.6856 124.33C23.9588 120.838 25.1392 113.644 25.1392 113.644C25.1392 113.644 27.0242 119.77 26.4005 123.56C31.5552 117.437 32.2987 108.713 32.2987 108.713C33.7452 110.587 34.4852 112.913 34.388 115.281C36.6817 113.079 37.559 108.801 37.8656 106.422C38.003 105.408 38.0382 104.74 38.0382 104.74C38.0382 104.74 38.3166 105.245 38.683 106.111C39.5215 108.109 40.8463 112.061 40.2861 116.165C42.6432 113.952 43.9892 108.197 43.894 103.715C43.9131 102.279 43.6744 100.852 43.1894 99.501C44.1266 100.258 44.7925 101.555 45.2576 102.958C45.9025 105.033 46.2918 107.179 46.4168 109.349C46.4168 109.349 49.1403 104.924 49.9014 100.052C50.1694 98.4896 50.1551 96.8911 49.8591 95.3334C51.0426 95.9451 52.0032 96.9163 52.6038 98.1083C53.1202 99.0924 53.4455 100.166 53.5622 101.272C54.1668 99.7058 54.5717 98.0691 54.7671 96.4009C55.1661 93.5385 54.8971 90.6222 53.9814 87.8817C56.6204 87.8817 57.2229 91.6076 57.2229 91.6076C57.2229 91.6076 58.4279 83.8307 53.3472 75.255C50.7435 70.8469 39.5356 66.9161 28.6837 65.2759C18.4131 63.7205 8.46662 64.2154 6.48649 68.3336C6.48649 68.3336 6.00027 69.433 5.28151 71.3772C2.72468 78.3764 0.99004 85.651 0.112724 93.0533C-0.82449 104.924 2.93142 115.786 2.93142 115.786C2.93142 115.786 2.80106 115.009 2.64955 113.867C2.60727 113.574 2.56498 113.259 2.51918 112.927C2.43462 112.343 2.3712 111.781 2.31483 111.251C2.34301 111 2.3113 110.742 2.29016 110.481Z" fill="url(#paint39_linear_226_19088)"/>
<path d="M2.27962 99.2395C2.18097 95.1991 2.74118 94.0644 2.74118 94.0644C2.74118 94.0644 4.32317 104.033 8.7309 106.582C8.44238 103.242 8.68018 99.8781 9.43557 96.6131C9.43557 96.6131 13.0717 104.121 13.0188 108.505C13.0213 108.849 12.9894 109.192 12.9237 109.53C12.9195 109.577 12.9124 109.624 12.9026 109.671L12.9977 109.576C13.2939 109.294 13.5607 108.982 13.794 108.646C14.2197 108.056 14.5811 107.422 14.8721 106.755C14.8918 106.721 14.9095 106.685 14.925 106.649C16.3026 103.467 16.6056 99.7132 16.6056 99.7132L16.7007 99.9076C17.2081 100.88 19.3715 105.309 18.9064 108.547C21.8449 104.326 22.2782 98.6775 22.2782 98.6775C22.2782 98.6775 24.6459 104.217 23.7087 109.282C23.6352 109.698 23.5351 110.109 23.4092 110.512C23.7988 110.113 24.1613 109.688 24.4944 109.24C27.3906 105.351 30.234 97.8361 30.382 96.408C32.5347 100.36 33.1161 105.062 33.1161 105.062C33.1161 105.062 35.8397 100.265 35.3147 96.0298C37.316 95.5667 38.7676 100.943 38.7676 100.943C38.7676 100.943 42.4812 92.7246 41.2339 88.2176C44.7115 92.2156 46.4133 98.2073 46.4133 98.2073C46.4133 98.2073 49.232 92.4631 46.4133 86.1674C49.5103 86.2628 50.9232 89.3488 50.9232 89.3488C50.9232 89.3488 51.871 83.8944 49.3412 79.9424C52.7941 79.8575 53.9216 86.2487 53.9216 86.2487C53.9216 86.2487 55.2252 80.3206 53.3508 75.2444C55.3521 76.4216 58.3152 83.3748 58.4984 83.8096C58.2835 82.795 51.2755 50.3727 42.9533 44.3032C42.305 43.826 41.6603 43.3842 41.0155 42.9635C33.2852 37.9616 26.0835 37.0425 19.981 40.9203C12.145 45.9116 7.95576 61.3557 5.32029 71.3772C4.89748 72.975 4.52048 74.4349 4.16815 75.6863C1.62428 84.8524 0.123322 92.9403 2.27962 99.2395Z" fill="url(#paint40_radial_226_19088)"/>
<path d="M11.2536 107.78C11.2536 107.78 10.7815 113.789 11.606 116.79C8.37503 112.549 11.2536 107.78 11.2536 107.78Z" fill="url(#paint41_radial_226_19088)"/>
<path d="M5.9228 106.189C5.9228 106.189 6.08488 112.609 6.78955 114.846C4.9715 113.199 3.91448 109.311 3.91448 109.311C3.91448 109.311 4.88693 111.304 5.65503 112.138C5.17585 109.876 5.60217 106.521 5.9228 106.189Z" fill="url(#paint42_radial_226_19088)"/>
<path style="mix-blend-mode:multiply" opacity="0.5" d="M2.97018 115.762C2.94904 115.588 2.82925 114.878 2.69888 113.87C3.82988 120.969 7.19821 131.499 16.824 141.153C16.5563 140.559 16.3167 139.997 16.1194 139.467V139.414C15.0447 136.586 14.9778 134.836 14.9778 134.836C14.9778 134.836 20.7808 143.129 37.2419 150.475C37.2419 150.475 37.2631 150.475 37.2737 150.496C39.3066 151.401 41.5017 152.299 43.8835 153.161C40.903 151.12 38.3627 148.498 36.4139 145.452C37.471 146.897 46.607 158.336 69.8471 153.886C92.143 149.644 97.3505 132.436 98.1715 129.014C97.7733 130.322 96.4803 133.507 92.5834 135.73C94.9828 132.676 100.687 125.515 102.431 115.546C100.581 124.055 90.4835 133.182 88.2003 135.137C89.0953 134.228 90.9591 131.704 90.6667 126.571C86.5655 135.783 76.531 138.809 74.498 139.329C75.6305 138.964 76.6629 138.339 77.5135 137.505C78.3641 136.671 79.0096 135.649 79.399 134.522C72.2184 139.566 57.3427 139.166 57.3427 139.166C57.3427 139.166 62.0359 138.378 63.4241 134.479C51.2614 138.173 34.2506 133.214 32.7003 132.74C35.7797 133.571 42.9498 133.648 48.1397 132.104C34.5748 132.178 25.5549 128.798 20.6786 124.327C20.4743 124.143 20.2805 123.959 20.0973 123.775C19.5183 123.202 18.9891 122.58 18.5153 121.916C17.6951 120.794 17.0751 119.539 16.6831 118.204C15.8023 115.136 16.0172 111.937 16.3942 109.013C16.8769 105.256 17.6415 101.944 16.7254 99.9217L16.6303 99.7273C16.6109 102.136 16.0254 104.506 14.9214 106.645C14.9066 106.683 14.8889 106.72 14.8686 106.755C14.5323 107.408 14.1509 108.036 13.727 108.635C13.4993 108.96 13.2547 109.273 12.9941 109.572L12.899 109.671C12.9089 109.624 12.916 109.577 12.9202 109.53C12.9519 109.356 13.0047 109.01 13.0505 108.515C13.2896 105.616 13.0972 102.697 12.4797 99.8545C11.2607 94.1633 14.1463 87.401 13.0822 85.1315C13.0153 87.606 10.6793 91.9893 10.6793 91.9893C10.6793 88.1009 13.2443 76.0609 15.4816 77.2699C17.719 78.4788 18.4624 78.2844 21.8448 76.2094C19.9281 80.9709 22.3839 88.4544 26.6014 88.6064C30.8188 88.7584 32.1859 85.0043 28.6625 78.949C25.1392 72.8936 26.7564 70.1788 29.0607 67.3049C29.5117 66.7323 29.3285 66.043 28.7084 65.2971C26.2209 62.25 16.7501 58.2661 15.6402 57.9515C17.1235 51.3766 20.5729 50.6837 22.6059 47.2053C24.6389 43.727 29.8393 43.5219 33.5283 44.2784C37.2173 45.0349 37.3582 42.313 41.2022 43.4159C41.2022 43.4159 41.1388 43.2639 41.0084 42.9952C33.2782 37.9933 26.0764 37.0742 19.9739 40.9521C12.7827 45.5475 8.67098 58.8918 6.01084 68.8073C5.77477 69.7016 5.53871 70.5747 5.32379 71.3984C2.7682 78.398 1.03358 85.6724 0.155014 93.0745C-0.754021 104.552 2.74468 115.104 2.97018 115.762Z" fill="url(#paint43_radial_226_19088)"/>
<path d="M12.5855 49.9803C12.5855 49.9803 13.3289 52.529 12.5855 56.3432C11.8421 60.1574 10.246 63.8726 9.89364 64.2119C9.5413 64.5513 6.58519 68.5245 6.07078 68.7154C5.55637 68.9063 3.02308 66.3859 3.6608 61.4723C2.71302 60.0973 4.10474 57.789 4.7918 58.1283C5.65502 56.5729 9.92534 49.641 12.5855 49.9803Z" fill="url(#paint44_radial_226_19088)"/>
<path d="M4.96796 60.161C6.02497 62.2113 9.38626 63.6394 9.75974 63.7773C9.78088 63.7985 9.79145 63.7985 9.79145 63.7985C9.79145 63.7985 9.79145 63.7985 9.79145 63.7773C10.1123 63.2274 10.3994 62.6584 10.6511 62.0734C11.307 60.458 11.8107 58.7846 12.1556 57.075C12.2825 56.4494 12.3987 55.8307 12.4833 55.2369C12.9589 52.0873 12.8744 49.535 12.3776 49.4608C7.25815 49.0048 4.99967 56.8205 4.68257 58.5668C4.6029 59.1152 4.70306 59.6747 4.96796 60.161Z" fill="url(#paint45_radial_226_19088)"/>
<path opacity="0.3" d="M9.44613 50.1041C9.44613 50.1041 11.2501 49.793 11.8455 51.0515C12.441 52.3099 12.5784 54.5864 12.5784 54.5864C12.5784 54.5864 13.0188 51.405 11.9583 50.1748C10.8978 48.9447 9.44613 50.1041 9.44613 50.1041Z" fill="#100F16"/>
<path d="M12.5784 54.6465C12.5784 54.6465 13.5297 51.7125 12.6947 49.3441C11.9442 47.711 8.95641 49.2345 8.37153 48.4922C8.26935 49.4678 8.72386 50.1854 9.35807 50.1112C9.99227 50.037 11.2642 49.9804 11.7187 50.196C12.5819 50.6697 12.5784 54.6465 12.5784 54.6465Z" fill="url(#paint46_radial_226_19088)"/>
<path d="M4.96794 60.1611C6.02494 62.2113 9.38624 63.6394 9.75971 63.7773H9.80199C10.1228 63.2274 10.4099 62.6584 10.6617 62.0735C11.3175 60.4581 11.8212 58.7846 12.1662 57.0751C12.293 56.4494 12.4093 55.8308 12.4938 55.2369C11.9323 54.5206 11.1358 54.0271 10.2459 53.8442C7.9029 53.3528 5.53872 55.2051 4.98907 57.9482C4.83574 58.6771 4.82856 59.4294 4.96794 60.1611Z" fill="url(#paint47_radial_226_19088)"/>
<path d="M12.1697 57.0679C11.8259 58.7779 11.3185 60.4505 10.6546 62.0628C10.3316 62.2819 9.96859 62.4349 9.5865 62.5132C9.20441 62.5914 8.81069 62.5933 8.42787 62.5188C6.66619 62.1653 5.60917 60.2034 6.01436 58.1496C6.41955 56.0958 8.1918 54.7207 9.94644 55.0848C10.4527 55.2025 10.9215 55.4457 11.3099 55.7921C11.6983 56.1386 11.9939 56.5772 12.1697 57.0679Z" fill="#100F16"/>
<path d="M8.442 56.46C7.69672 56.46 7.09255 55.8538 7.09255 55.1061C7.09255 54.3583 7.69672 53.7522 8.442 53.7522C9.18728 53.7522 9.79144 54.3583 9.79144 55.1061C9.79144 55.8538 9.18728 56.46 8.442 56.46Z" fill="white"/>
<path d="M4.47471 58.6869C4.47471 58.6869 4.17874 59.8216 5.32735 61.1119C6.47597 62.4021 9.44617 64.0035 9.44617 64.0035C9.44617 64.0035 6.82479 66.8809 4.66144 66.4178C3.88278 64.2297 3.79822 63.2187 3.81584 62.1547C3.81584 61.879 4.84114 62.5082 4.84114 62.5082C4.84114 62.5082 3.29438 61.2144 3.65728 59.9772C4.02019 58.74 4.27387 58.6763 4.47471 58.6869Z" fill="url(#paint48_radial_226_19088)"/>
<path d="M4.48875 59.8816C4.6248 60.4683 4.95983 60.9894 5.43653 61.3557C5.6127 61.6632 5.2956 61.6879 5.21457 62.0308C5.17786 62.2813 5.22363 62.537 5.34493 62.759C5.34493 62.759 3.42118 61.6278 4.48875 59.8816Z" fill="url(#paint49_radial_226_19088)"/>
<path d="M5.11243 62.8758C5.11243 62.8758 4.6861 62.4269 4.43946 62.441C4.19283 62.4551 4.23511 65.025 4.82704 66.1456C4.85529 65.0508 4.9506 63.9588 5.11243 62.8758Z" fill="url(#paint50_radial_226_19088)"/>
<path d="M36.5866 65.5623C34.7233 63.3594 33.5773 60.6367 33.3028 57.7607C32.9505 53.1229 34.0392 50.3374 36.5091 49.3052C38.979 48.273 45.395 52.4866 46.4168 58.0647C44.9828 61.3522 41.9844 63.3954 36.5866 65.5623Z" fill="url(#paint51_radial_226_19088)"/>
<path d="M46.5859 57.386C46.5859 57.386 45.5113 51.4014 39.3912 49.5173C33.2712 47.6332 33.021 57.485 34.1555 60.5286C34.7409 62.2027 35.5876 63.773 36.6641 65.1805C36.6641 65.1805 43.7813 62.5364 46.5859 57.386Z" fill="url(#paint52_radial_226_19088)"/>
<path d="M33.627 57.7606C33.627 57.7606 32.1894 55.5548 33.2429 51.981C33.9476 49.5525 35.6776 48.4461 37.3371 48.2305C40.1064 47.877 43.0026 49.6763 44.7079 49.146C44.2202 50.0376 43.4207 50.7163 42.4636 51.0514C42.4636 51.0514 38.9402 48.8738 36.7487 49.9485C34.4162 51.0902 33.3909 55.5973 33.627 57.7606Z" fill="url(#paint53_radial_226_19088)"/>
<path d="M35.7525 60.7161C34.4346 58.2263 35.0883 55.2905 37.2125 54.1588C39.3367 53.027 42.127 54.128 43.4449 56.6178C44.7627 59.1076 44.1091 62.0434 41.9849 63.1752C39.8607 64.3069 37.0703 63.2059 35.7525 60.7161Z" fill="url(#paint54_radial_226_19088)"/>
<path d="M36.2202 65.382C35.4838 65.6825 37.0975 67.1495 38.1475 67.2944C38.9367 68.4821 41.1282 70.9919 44.6128 70.4405C48.0974 69.889 48.4885 62.7202 47.9459 59.6201C47.9671 58.2061 48.034 57.0714 46.3463 56.4775C46.4631 56.7742 46.5436 57.084 46.5859 57.4002C46.5859 57.4002 43.9575 62.2112 36.2202 65.382Z" fill="url(#paint55_radial_226_19088)"/>
<path d="M36.7389 60.1908C35.7587 58.3389 36.2444 56.1556 37.8238 55.3141C39.4032 54.4726 41.4782 55.2917 42.4584 57.1435C43.4386 58.9954 42.9528 61.1787 41.3734 62.0202C39.794 62.8617 37.7191 62.0426 36.7389 60.1908Z" fill="#100F16"/>
<path d="M36.6782 57.637C35.9329 57.637 35.3288 57.0308 35.3288 56.2831C35.3288 55.5354 35.9329 54.9292 36.6782 54.9292C37.4235 54.9292 38.0276 55.5354 38.0276 56.2831C38.0276 57.0308 37.4235 57.637 36.6782 57.637Z" fill="white"/>
<path d="M46.5859 57.8386C46.5859 57.8386 43.6122 62.8511 36.798 65.414C36.3752 65.6402 37.7458 67.0931 38.6442 66.8527C39.322 66.6418 39.9733 66.3535 40.5856 65.9937C40.0588 66.5012 39.4662 66.9351 38.8239 67.2839C39.0212 68.0086 41.2903 70.4194 44.5283 69.9387C47.7662 69.4579 46.748 61.3983 46.748 61.3983C46.748 61.3983 45.9306 62.1336 45.3809 62.5189C46.23 61.2746 48.0974 59.8606 46.5859 57.8386Z" fill="url(#paint56_radial_226_19088)"/>
<path d="M41.0754 63.3636C40.1065 64.1484 39.9902 65.0003 40.9204 65.3538C41.2727 65.4775 42.2804 64.9402 42.2804 64.9402C42.2804 64.9402 41.6532 65.5305 41.5299 65.6472C41.4066 65.7638 43.5136 68.1216 43.9963 68.7685C44.479 69.4154 44.3239 64.6892 43.9011 63.8444C43.6488 64.0677 43.3665 64.2545 43.0626 64.3993C43.3825 64.1009 43.6738 63.7731 43.9328 63.4202C44.109 63.1409 44.8419 60.9669 43.3902 61.6704C42.9075 61.8895 42.9639 61.8259 41.0754 63.3636Z" fill="url(#paint57_radial_226_19088)"/>
<path opacity="0.3" d="M33.627 57.7609C33.627 57.7609 34.2824 51.398 37.3865 50.1289C39.5991 49.2912 42.4636 51.0516 42.4636 51.0516C42.4636 51.0516 40.184 49.0932 37.1786 49.3725C34.1731 49.6517 33.243 55.3854 33.627 57.7609Z" fill="#100F16"/>
<path d="M13.4945 59.7296C14.2837 58.0258 16.6655 56.7073 18.8747 56.8381C21.0838 56.9688 28.6379 61.1188 30.7766 62.6884C32.9153 64.2579 30.685 66.1031 29.3672 67.3969C28.0495 68.6907 25.8122 72.2114 29.635 78.1218C33.4579 84.0322 32.5946 86.8213 29.9486 87.91C26.5732 89.3028 22.2853 85.7891 22.701 78.9632C22.997 73.6325 25.0546 70.8858 25.0546 70.8858C25.0546 70.8858 20.6081 76.3438 18.4201 76.7008C16.2321 77.0578 13.9772 74.6647 13.2337 71.9499C12.1767 72.7735 11.5778 75.3151 11.8491 80.006C12.0851 84.0464 9.88656 87.6202 6.69791 86.7223C3.50927 85.8244 4.86224 79.002 8.43845 73.7986C12.0147 68.5952 11.9054 63.1656 13.4945 59.7296Z" fill="url(#paint58_radial_226_19088)"/>
<path d="M13.3253 59.8357C13.3253 59.8357 14.6677 56.9794 18.4448 57.0325C21.57 57.2234 24.3464 59.2277 27.0559 60.6169C29.8253 62.0309 31.6363 63.2221 31.4601 64.2579C31.2839 65.2936 28.6625 67.2944 27.9085 68.984C27.1545 70.6737 26.8515 73.6961 28.9656 77.4148C31.0796 81.1336 33.5037 85.782 29.1805 87.3126C24.8573 88.8433 22.4015 81.982 23.1555 77.7966C23.6755 75.0824 24.4482 72.4231 25.4633 69.8536C25.4633 69.8536 21.1014 76.015 18.2158 76.3261C15.3301 76.6372 13.424 72.8548 13.0998 71.7059C12.6524 72.1867 11.8667 73.1022 11.6518 76.3261C11.4368 79.5499 12.1274 85.5452 7.80423 86.1037C3.48106 86.6622 5.69022 78.6061 7.14536 75.9302C8.60051 73.2542 10.5067 70.1895 11.3734 66.0041C12.2401 61.8188 13.3253 59.8357 13.3253 59.8357Z" fill="url(#paint59_radial_226_19088)"/>
<path d="M11.1585 68.6694C11.1585 68.6694 9.39679 72.0736 8.00506 74.7248C6.61333 77.376 4.27029 82.1092 5.94389 84.9195C6.36317 86.0436 10.4785 85.2058 10.8519 80.3241C11.2254 75.4424 10.9189 74.6152 12.6453 71.0202C13.1245 69.1926 11.1585 68.6694 11.1585 68.6694Z" fill="url(#paint60_radial_226_19088)"/>
<path d="M26.0024 69.3587C26.0024 69.3587 22.9124 75.0146 23.5114 81.2325C23.9624 85.9446 27.4083 87.4752 29.3391 86.6127C32.0309 85.4037 30.5828 81.7168 28.5322 78.1996C26.4816 74.6823 26.5063 70.1824 28.3596 67.6372C29.5293 66.2975 31.1465 64.9047 31.1254 63.9503C30.5828 63.0913 28.3314 62.8333 28.3314 62.8333C28.3314 62.8333 27.75 66.5166 26.0024 69.3587Z" fill="url(#paint61_radial_226_19088)"/>
<path d="M13.6249 59.7791C13.8398 59.0721 15.7389 57.0642 18.6069 57.1986C21.4749 57.3329 28.9691 61.9071 30.2094 62.6883C31.4496 63.4695 31.0479 64.0846 31.0479 64.0846C31.0479 64.0846 29.0044 64.1412 28.2891 63.8548C27.5739 63.5685 16.2921 60.1078 14.1111 60.5285C13.0682 60.5956 13.6249 59.7791 13.6249 59.7791Z" fill="url(#paint62_radial_226_19088)"/>
<path d="M29.6174 64.636C29.6808 66.2091 19.5617 75.9832 17.9057 75.7322C11.8913 74.7565 9.98872 65.6506 9.98872 65.6506C12.064 64.4381 10.5384 66.043 13.6072 66.0854C14.4808 66.0868 15.353 66.0147 16.2145 65.8697C21.9682 65.0072 29.4941 63.4448 29.6174 64.636Z" fill="url(#paint63_radial_226_19088)"/>
<path d="M29.6174 64.636C29.6808 66.2091 19.5617 75.9832 17.9057 75.7322C13.6601 71.4549 13.4945 66.5237 13.4945 66.5237C13.4945 66.5237 13.5332 66.354 13.6072 66.0854C14.4808 66.0868 15.353 66.0147 16.2145 65.8697C21.9682 65.0072 29.4941 63.4448 29.6174 64.636Z" fill="url(#paint64_radial_226_19088)"/>
<g style="mix-blend-mode:multiply" opacity="0.3">
<path d="M9.98871 65.6506C9.98871 65.6506 11.6236 67.2024 13.4945 67.6054C15.3654 68.0084 22.4473 64.5477 29.6174 64.6361C28.9444 63.4519 22.8384 62.5469 21.2388 62.455C19.6392 62.3631 14.8968 63.2327 13.7904 63.3918C12.6841 63.5509 12.7651 63.4519 11.9336 63.6463C11.1021 63.8407 9.98871 65.6506 9.98871 65.6506Z" fill="#420D00"/>
</g>
<path d="M30.4031 64.0389C30.3397 64.5444 29.6174 64.6363 29.6174 64.6363C29.6174 63.4768 13.5191 66.9022 13.0787 66.9022C12.6383 66.9022 8.14601 65.4529 8.72737 63.696C9.26644 62.0982 14.9602 58.7082 16.5492 58.1002C16.6617 58.0528 16.7803 58.0218 16.9016 58.0083C20.9112 58.0684 30.463 63.5405 30.4031 64.0389Z" fill="url(#paint65_radial_226_19088)"/>
<path d="M30.4031 64.0389C30.3397 64.5444 29.6174 64.6363 29.6174 64.6363C29.6174 63.4768 13.5191 66.9022 13.0787 66.9022C13.402 63.7027 14.6034 60.6558 16.5492 58.1002C16.6617 58.0528 16.7803 58.0218 16.9016 58.0083C20.9112 58.0684 30.463 63.5405 30.4031 64.0389Z" fill="url(#paint66_radial_226_19088)"/>
<path d="M24.6953 73.0635C24.6953 73.0635 22.6623 79.3768 24.4592 83.8379C25.333 85.9978 27.4858 85.9023 27.5351 85.0716C27.5844 84.2409 23.2296 83.032 24.6953 73.0635Z" fill="url(#paint67_radial_226_19088)"/>
<path d="M10.6934 70.2495C10.6934 70.2495 5.82765 77.6729 5.67263 82.1622C5.72548 83.6575 6.77192 84.1842 7.16301 80.6422C7.55411 77.1002 10.3869 71.1721 10.6934 70.2495Z" fill="url(#paint68_radial_226_19088)"/>
<path d="M15.5028 59.3726C15.5028 59.3726 13.0365 62.8439 13.0787 66.0606C13.0118 66.6404 11.7011 66.4495 12.0816 64.7916C12.4621 63.1337 13.5121 61.3945 15.5028 59.3726Z" fill="url(#paint69_radial_226_19088)"/>
<path d="M22.6728 59.6978C22.6728 59.6978 30.2269 62.8438 30.6145 63.8902C30.7096 64.1659 30.2621 64.8375 29.8041 64.88C29.4201 65.4455 28.8634 66.6474 26.2103 69.0547C27.6196 67.2872 29.2545 65.1274 29.2122 64.7138C29.1699 64.3002 21.6158 65.4703 13.0611 66.9019C21.0168 65.1345 26.8797 64.028 29.6949 64.1659C30.012 64.0811 29.0466 62.8686 22.6728 59.6978Z" fill="url(#paint70_radial_226_19088)"/>
<path d="M17.8177 59.4258C18.0608 59.2419 20.4637 60.0479 19.9669 60.716C19.7238 60.7938 18.318 60.5145 18.0573 60.1115C17.9079 59.9137 17.8242 59.6738 17.8177 59.4258Z" fill="url(#paint71_radial_226_19088)"/>
<path d="M17.8176 59.4258C17.5992 60.1681 18.4448 61.0907 19.4807 60.9458C20.5165 60.8009 19.7097 60.1398 19.1283 60.1929C18.547 60.2459 17.9128 59.9808 17.8176 59.4258Z" fill="url(#paint72_radial_226_19088)"/>
<path d="M14.4247 59.666C14.4247 59.666 13.7834 60.3412 13.4734 60.6593C13.1633 60.9775 12.8815 60.3659 13.3184 60.2316C13.7058 60.0824 14.0766 59.8928 14.4247 59.666Z" fill="url(#paint73_radial_226_19088)"/>
<path d="M43.7425 82.2261C45.212 84.6284 45.7931 87.4724 45.3844 90.261C44.315 88.0927 42.6751 86.2592 40.642 84.9586C40.642 84.9586 43.3973 84.9586 44.2992 86.4857C44.2005 85.0557 44.0146 83.6332 43.7425 82.2261Z" fill="url(#paint74_linear_226_19088)"/>
<path d="M36.5584 85.3613C37.775 86.9198 38.6252 88.7338 39.0455 90.668C39.4658 92.6021 39.4455 94.6065 38.986 96.5317C38.3236 93.2124 35.0892 90.1123 35.0892 90.1123C35.0892 90.1123 37.0305 90.1476 38.0241 91.7348C38.2884 89.6704 36.5584 85.3613 36.5584 85.3613Z" fill="url(#paint75_linear_226_19088)"/>
<path d="M26.0412 94.9058C26.0412 94.9058 27.6972 98.6705 25.8227 103.839C25.932 101.011 24.276 96.7192 24.276 96.7192C24.276 96.7192 25.6008 97.7125 25.8227 98.4866C26.0249 97.3045 26.0981 96.1038 26.0412 94.9058Z" fill="url(#paint76_linear_226_19088)"/>
<path d="M15.7072 94.4285C15.7072 94.4285 13.572 98.8188 13.7587 101.106C12.8714 99.6495 12.3278 98.0087 12.1697 96.309C12.5304 96.9634 12.9694 97.5712 13.4769 98.1189C13.6847 96.6237 14.7876 95.2097 15.7072 94.4285Z" fill="url(#paint77_linear_226_19088)"/>
<path d="M5.67966 90.4094C5.67966 90.4094 4.82349 96.9384 7.02911 101.106C5.11945 99.5932 3.9215 95.019 5.67966 90.4094Z" fill="url(#paint78_linear_226_19088)"/>
<path d="M3.34015 87.6768C3.34015 87.6768 2.02593 91.5157 2.15629 93.0286C1.84097 91.1581 2.26573 89.2379 3.34015 87.6768Z" fill="url(#paint79_linear_226_19088)"/>
<path d="M30.4031 103.238C30.4031 103.238 31.7279 108.579 29.2509 113.135C28.9761 108.943 28.2855 107.794 28.2855 107.794L29.8746 109.349C30.3169 107.344 30.4946 105.289 30.4031 103.238Z" fill="url(#paint80_radial_226_19088)"/>
<path d="M52.5545 89.0059C52.5545 89.0059 53.992 91.5475 53.0302 95.7576C52.5628 94.3888 51.8286 93.1271 50.8703 92.0459C50.8703 92.0459 52.4312 92.4878 52.7518 93.0286C52.7518 91.353 52.5545 89.0059 52.5545 89.0059Z" fill="url(#paint81_radial_226_19088)"/>
<path d="M50.5074 119.247C50.5074 119.247 53.4495 124.772 56.1061 125.61C53.4248 125.776 50.2855 123.747 50.2855 123.747C50.2855 123.747 51.4799 123.807 52.4981 123.942C50.8598 122.828 50.5074 119.247 50.5074 119.247Z" fill="url(#paint82_linear_226_19088)"/>
<path d="M49.9049 128.3C49.9049 128.3 53.1218 130.852 56.3351 131.658C55.4754 132.963 50.8703 132.27 50.8703 132.27C52.0179 132.184 53.1511 131.961 54.2457 131.605C53.3218 131.415 52.4522 131.02 51.7009 130.448C50.9497 129.876 50.3359 129.142 49.9049 128.3Z" fill="url(#paint83_linear_226_19088)"/>
<path d="M42.4037 120.081C42.4037 120.081 42.8793 124.171 44.5847 127.017C43.059 127.332 40.2897 123.577 40.2897 123.577C41.1628 124.33 42.122 124.975 43.1471 125.5C42.6266 124.711 42.2895 123.814 42.1608 122.876C42.0321 121.938 42.1151 120.983 42.4037 120.081Z" fill="url(#paint84_linear_226_19088)"/>
<path d="M64.1464 130.375C64.1464 130.375 71.0839 131.39 75.8862 128.753C71.9753 132.326 68.1595 132.793 64.1464 130.375Z" fill="url(#paint85_radial_226_19088)"/>
<path d="M64.8898 137.056C64.8898 137.056 71.3798 137.452 74.4029 135.713C73.5115 137.7 68.8289 139.007 64.8898 137.056Z" fill="url(#paint86_radial_226_19088)"/>
<path d="M85.0082 125.61C83.1268 125.964 90.2299 121.807 90.2299 121.807C89.7225 122.81 88.9843 123.679 88.0764 124.34C87.1685 125.002 86.1168 125.437 85.0082 125.61Z" fill="url(#paint87_radial_226_19088)"/>
<path d="M80.0578 131.651C80.0578 131.651 83.9335 130.336 85.4451 129.064C84.8567 130.881 83.4544 131.789 80.0578 131.651Z" fill="url(#paint88_radial_226_19088)"/>
<path d="M61.2255 108.759C61.2255 108.759 63.3078 110.576 66.0243 110.212C65.2527 111.117 62.8991 111.304 61.2255 108.759Z" fill="url(#paint89_radial_226_19088)"/>
<path d="M58.5055 115.224C58.5055 115.224 59.0058 117.254 61.4052 118.48C60.5455 119.162 58.2271 118.689 58.5055 115.224Z" fill="url(#paint90_radial_226_19088)"/>
<path d="M82.1049 91.8764C82.1049 91.8764 104.397 85.3226 112.054 79.5713C111.765 83.4067 93.7003 94.0468 89.356 95.5491C85.0117 97.0515 82.1049 91.8764 82.1049 91.8764Z" fill="url(#paint91_linear_226_19088)"/>
<path d="M85.9243 96.3621C85.9243 96.3621 109.26 85.0327 116.789 77.2488C116.623 77.4149 116.56 77.9876 116.475 78.2173C116.334 78.592 116.183 78.9632 116.014 79.3238C115.845 79.6843 115.661 80.0626 115.457 80.4161C115.322 80.7141 115.157 80.9972 114.964 81.2609C114.834 81.3944 114.69 81.513 114.534 81.6144C113.734 82.187 112.894 82.702 112.022 83.1556C112.458 83.1998 112.896 83.0925 113.262 82.8516C113.624 82.6101 114.008 82.4018 114.407 82.2295C112.508 84.9959 110.341 87.5676 107.938 89.9073C105.535 92.3252 102.981 94.5947 100.349 96.7616C98.0376 98.6634 95.6629 100.491 93.2141 102.216C92.1571 102.965 91.0719 103.697 89.9656 104.386C84.825 105.366 85.9243 96.3621 85.9243 96.3621Z" fill="url(#paint92_linear_226_19088)"/>
<path d="M92.1571 109.622C92.1571 109.622 113.949 94.3578 122 75.4636C121.725 76.0999 120.816 76.7857 120.337 77.2841C119.632 77.9911 118.928 78.6981 118.223 79.3768C116.835 80.6882 115.274 81.7629 113.889 83.0885C113.764 83.17 113.668 83.2878 113.611 83.4262C113.555 83.5646 113.543 83.7169 113.576 83.8626L113.72 85.3119C113.561 84.7599 113.312 84.238 112.984 83.7672C110.408 86.2628 107.519 88.405 104.651 90.5507C102.135 92.4313 99.5844 94.2694 96.9806 96.0298C95.839 96.8004 94.6904 97.5604 93.5101 98.2674C88.0665 101.53 89.1834 108.642 92.1571 109.622Z" fill="url(#paint93_linear_226_19088)"/>
<path d="M114.182 87.3552C113.942 87.5956 113.91 88.7692 113.829 89.1227C113.548 90.5948 113.127 92.0366 112.571 93.4282C112.53 93.5428 112.465 93.6475 112.381 93.7358C112.267 93.8264 112.135 93.8914 111.994 93.9266L110.799 94.3049C111.259 94.4259 111.734 94.4724 112.209 94.4427C112.223 94.6184 112.185 94.7944 112.099 94.9482C109.866 100.06 107.23 104.846 103.249 108.809C101.709 110.35 100.018 111.732 98.2032 112.934C93.1084 112.471 92.4143 109.046 92.4143 109.046L93.4185 108.045C97.4668 104.019 101.614 100.053 105.5 95.8815C105.546 95.832 105.606 95.7754 105.673 95.786C105.74 95.7966 105.793 95.8744 105.821 95.9451C106.101 96.5779 106.435 97.1857 106.818 97.762C106.857 97.8221 106.924 97.8928 106.99 97.8646C106.716 97.2566 106.159 96.2208 106.205 95.5386C106.247 94.9482 107.308 94.2236 107.73 93.8029L111.053 90.4978L114.182 87.3552Z" fill="url(#paint94_linear_226_19088)"/>
<path d="M64.9532 104.772C63.8962 109.512 60.9401 119.244 68.0855 124.44C67.1729 122.673 67.2152 120 67.2152 120C67.2152 120 70.3475 128.35 82.6405 126.748C81.5373 126.416 80.5018 125.889 79.5822 125.193C79.5822 125.193 91.4313 126.211 99.1299 115.928C104.556 109.749 107.346 105.192 107.519 104.913C107.075 105.182 97.1497 111.446 94.8349 111.834C97.7561 109.544 100.443 106.969 102.858 104.146C102.858 104.146 96.5472 105.206 93.9118 105.991C95.3739 103.474 98.7669 101.498 98.7669 101.498C95.4533 99.8997 91.6651 99.596 88.1405 100.646C90.3144 97.9351 94.5037 96.0899 94.5037 96.0899C94.5037 96.0899 90.628 92.4807 84.4269 93.6154C85.0431 92.8623 85.8684 92.3099 86.7981 92.0282C83.7962 91.4026 81.654 90.7627 79.015 91.2824H78.9727C78.3003 91.4181 77.6412 91.6133 77.0031 91.8656C76.7213 91.9752 76.4429 92.0919 76.1399 92.2191C72.5249 93.8593 69.6921 93.0816 67.638 93.9866C67.5631 94.0148 67.4911 94.0503 67.4231 94.0926C67.1883 94.1985 66.97 94.3378 66.7748 94.5062L66.7325 94.538C61.9302 98.6209 64.2239 104.581 61.7998 107.172C61.7822 107.2 62.9273 107.289 64.9532 104.772Z" fill="url(#paint95_linear_226_19088)"/>
<path d="M67.0074 110.562C65.598 115.249 70.0515 120.951 73.9167 121.997C70.344 119.07 71.6899 114.719 71.6899 114.719C71.6899 114.719 72.2713 121.707 88.1898 117.656C82.8096 117.483 79.473 116.306 79.473 116.306C79.473 116.306 89.8282 115.953 96.0822 108.324C89.7612 111.152 86.8439 109.265 86.8439 109.265C86.8439 109.265 91.6674 102.513 95.2084 102.007C90.2369 101.52 84.6594 103.096 84.6594 103.096C84.6594 103.096 86.3189 98.5184 88.8874 97.4614C84.5607 96.7544 82.4503 96.9736 79.8113 97.8361C81.3932 95.0506 83.2465 95.0082 83.3769 95.0082C83.0633 94.9764 77.4858 94.3365 73.7299 95.3617C69.8859 96.4222 75.2802 92.2403 78.9621 91.3C77.99 91.5051 77.0444 91.8206 76.1434 92.2403C72.5285 93.8805 69.6957 93.1029 67.6416 94.0078C64.9532 98.0553 68.4167 105.864 67.0074 110.562Z" fill="url(#paint96_radial_226_19088)"/>
<path d="M66.5845 106.111C68.0291 105.291 67.9199 99.4692 67.9199 99.4692C67.9199 99.4692 68.6422 109.759 72.6482 111.251C71.7832 109.28 71.5493 107.087 71.9788 104.977C71.9788 104.977 73.3142 107.978 81.1078 107.342C77.2533 105.85 76.2844 104.21 76.2844 104.21C77.9158 104.19 79.5163 103.761 80.9399 102.961C82.3635 102.162 83.5647 101.017 84.4339 99.6318C81.6156 99.8138 78.7896 99.428 76.1223 98.4971C76.1223 98.4971 77.1793 96.0757 79.3638 95.9166C78.1271 95.093 74.2302 94.888 72.8526 95.5066C74.9666 94.0148 79.1947 92.9897 79.1947 92.9897C78.5289 92.4938 77.7827 92.1171 76.989 91.8762C76.7072 91.9858 76.4288 92.1025 76.1258 92.2297C72.5108 93.8699 69.6781 93.0922 67.6239 93.9972C67.549 94.0254 67.477 94.0609 67.409 94.1032C67.0849 94.3082 66.8594 94.4567 66.7607 94.5168L66.7184 94.5486C64.3155 97.7937 66.9968 102.559 66.5845 106.111Z" fill="url(#paint97_radial_226_19088)"/>
<path d="M14.9602 134.836C14.9602 134.836 20.7632 143.129 37.2244 150.475C21.7216 142.493 15.4147 134.568 14.252 133.076C14.3368 133.713 14.5803 134.319 14.9602 134.836Z" fill="url(#paint98_radial_226_19088)"/>
<path d="M2.97017 115.762C2.94903 115.589 2.82924 114.878 2.69887 113.871C3.82987 120.969 7.19821 131.499 16.824 141.153C16.5563 140.559 16.3167 139.997 16.1194 139.467C16.1194 139.467 13.0399 137.89 8.1319 128.138C3.22386 118.385 2.70591 111.548 2.70591 111.548L2.54737 112.771C2.54737 112.771 0.951283 105.252 0.694077 102.425C-0.0105953 88.9918 2.31835 82.7456 2.51213 82.2755C2.44871 82.5971 1.87793 85.4286 1.96602 87.2632C2.73059 81.1195 6.07778 68.7402 6.07778 68.7402L6.0214 68.7968C5.78534 69.6911 5.54928 70.5643 5.33435 71.3879C2.77876 78.3875 1.04415 85.6619 0.165573 93.0641C-0.754026 104.553 2.74467 115.104 2.97017 115.762Z" fill="url(#paint99_radial_226_19088)"/>
<path d="M19.1847 33.9954C18.9064 40.2982 18.8324 46.6752 21.0274 46.0742C23.7545 45.339 21.9964 43.5609 25.9602 42.2671C29.9239 40.9733 34.536 43.9851 37.02 42.7408C39.504 41.4965 42.6116 44.6214 43.8835 44.7946C45.1555 44.9678 46.5119 43.6669 47.0545 40.991C47.5971 38.3151 44.2358 38.6261 44.8454 34.6847C45.3739 31.277 44.6763 31.5669 41.5687 30.464C41.0965 30.2943 40.5575 30.0893 39.9691 29.8419C35.512 27.9365 40.0078 24.1612 36.5021 20.6086C32.9963 17.056 31.3861 20.0042 27.965 20.4602C24.5438 20.9162 20.9781 12.0859 18.4519 14.8502C15.9256 17.6145 19.3574 18.8836 19.4525 25.6636C19.4842 27.8305 19.3257 30.7821 19.1988 33.7692L19.1847 33.9954Z" fill="url(#paint100_radial_226_19088)"/>
<path d="M21.0274 46.0743C23.7545 45.3391 21.9964 43.561 25.9602 42.2672C29.9239 40.9734 34.536 43.9852 37.02 42.7409C39.504 41.4966 42.6116 44.6215 43.8835 44.7947C45.1555 44.9679 46.5119 43.6671 47.0545 40.9911C47.5971 38.3152 44.2358 38.6263 44.8454 34.6848C45.3739 31.2771 44.6763 31.567 41.5687 30.4641C44.2041 31.4398 44.1689 34.4515 42.4601 35.9397C40.7512 37.4279 46.4908 38.3682 45.092 41.2421C43.6933 44.116 39.7506 33.5713 36.7557 38.6015C34.8567 41.7829 27.6302 38.6227 24.3394 41.9067C21.0486 45.1906 18.998 39.9837 19.1812 33.9884C18.9064 40.2983 18.8289 46.6753 21.0274 46.0743Z" fill="url(#paint101_radial_226_19088)"/>
<path d="M21.3868 38.0677C20.3087 42.2177 22.1901 24.7163 21.186 21.7222C20.1818 18.7281 18.9134 15.271 19.981 15.3346C21.0486 15.3982 22.9124 21.0152 25.6818 21.3793C28.4512 21.7434 27.5774 24.7835 25.3753 25.9111C23.1732 27.0387 22.916 32.1927 21.3868 38.0677Z" fill="url(#paint102_radial_226_19088)"/>
<path d="M35.0046 20.7183C36.3893 24.5536 35.882 27.4346 34.0392 31.1463C32.1965 34.858 32.9576 37.7283 33.7362 37.7424C34.5149 37.7566 35.8221 31.6553 39.585 31.8144C40.5751 31.5952 37.0517 31.0084 36.7452 30.0469C36.4387 29.0854 38.4857 20.1208 35.0046 20.7183Z" fill="url(#paint103_radial_226_19088)"/>
<defs>
<linearGradient id="paint0_linear_226_19088" x1="111.603" y1="70.5041" x2="105.949" y2="53.1126" gradientUnits="userSpaceOnUse">
<stop stop-color="#006837"/>
<stop offset="0.41" stop-color="#11452C"/>
<stop offset="0.78" stop-color="#1D2B25"/>
<stop offset="1" stop-color="#222222"/>
</linearGradient>
<linearGradient id="paint1_linear_226_19088" x1="76.2174" y1="20.4214" x2="67.2608" y2="69.1506" gradientUnits="userSpaceOnUse">
<stop stop-color="#006837"/>
<stop offset="0.41" stop-color="#11452C"/>
<stop offset="0.78" stop-color="#1D2B25"/>
<stop offset="1" stop-color="#222222"/>
</linearGradient>
<linearGradient id="paint2_linear_226_19088" x1="59.8232" y1="17.4908" x2="81.9488" y2="58.1276" gradientUnits="userSpaceOnUse">
<stop stop-color="#006837"/>
<stop offset="0.41" stop-color="#11452C"/>
<stop offset="0.78" stop-color="#1D2B25"/>
<stop offset="1" stop-color="#222222"/>
</linearGradient>
<linearGradient id="paint3_linear_226_19088" x1="100.955" y1="10.7108" x2="78.0735" y2="57.21" gradientUnits="userSpaceOnUse">
<stop stop-color="#006837"/>
<stop offset="0.41" stop-color="#11452C"/>
<stop offset="0.78" stop-color="#1D2B25"/>
<stop offset="1" stop-color="#222222"/>
</linearGradient>
<linearGradient id="paint4_linear_226_19088" x1="90.5047" y1="25.3737" x2="90.8487" y2="66.4107" gradientUnits="userSpaceOnUse">
<stop stop-color="#006837"/>
<stop offset="0.41" stop-color="#11452C"/>
<stop offset="0.78" stop-color="#1D2B25"/>
<stop offset="1" stop-color="#222222"/>
</linearGradient>
<linearGradient id="paint5_linear_226_19088" x1="104.609" y1="50.6379" x2="95.0382" y2="82.6578" gradientUnits="userSpaceOnUse">
<stop stop-color="#006837"/>
<stop offset="0.41" stop-color="#11452C"/>
<stop offset="0.78" stop-color="#1D2B25"/>
<stop offset="1" stop-color="#222222"/>
</linearGradient>
<radialGradient id="paint6_radial_226_19088" cx="0" cy="0" r="1" gradientUnits="userSpaceOnUse" gradientTransform="translate(84.0499 44.5718) rotate(180) scale(18.5787 18.6397)">
<stop stop-color="#FEAC01"/>
<stop offset="1" stop-color="#B30301"/>
</radialGradient>
<radialGradient id="paint7_radial_226_19088" cx="0" cy="0" r="1" gradientUnits="userSpaceOnUse" gradientTransform="translate(90.8675 56.8275) rotate(180) scale(14.1639 14.2104)">
<stop stop-color="#FEAC01"/>
<stop offset="1" stop-color="#B30301"/>
</radialGradient>
<radialGradient id="paint8_radial_226_19088" cx="0" cy="0" r="1" gradientUnits="userSpaceOnUse" gradientTransform="translate(97.3999 68.6341) rotate(180) scale(11.6729 11.7112)">
<stop stop-color="#FEAC01"/>
<stop offset="1" stop-color="#B30301"/>
</radialGradient>
<radialGradient id="paint9_radial_226_19088" cx="0" cy="0" r="1" gradientUnits="userSpaceOnUse" gradientTransform="translate(70.0691 56.5801) rotate(180) scale(14.1393 14.1857)">
<stop stop-color="#FEAC01"/>
<stop offset="1" stop-color="#B30301"/>
</radialGradient>
<radialGradient id="paint10_radial_226_19088" cx="0" cy="0" r="1" gradientUnits="userSpaceOnUse" gradientTransform="translate(87.8637 172.488) rotate(162.907) scale(20.6281 20.6841)">
<stop stop-color="#FED501"/>
<stop offset="0.08" stop-color="#FEC401"/>
<stop offset="0.28" stop-color="#FD9B02"/>
<stop offset="0.44" stop-color="#FD8202"/>
<stop offset="0.54" stop-color="#FD7902"/>
<stop offset="1" stop-color="#E06F01"/>
</radialGradient>
<radialGradient id="paint11_radial_226_19088" cx="0" cy="0" r="1" gradientUnits="userSpaceOnUse" gradientTransform="translate(74.7527 168.992) rotate(162.907) scale(18.1363 18.1856)">
<stop offset="0.07" stop-color="#FED501"/>
<stop offset="0.79" stop-color="#FD7902"/>
<stop offset="1" stop-color="#E06F01"/>
</radialGradient>
<radialGradient id="paint12_radial_226_19088" cx="0" cy="0" r="1" gradientUnits="userSpaceOnUse" gradientTransform="translate(80.7891 173.528) rotate(162.907) scale(3.13668 3.1452)">
<stop offset="0.07" stop-color="#FED501"/>
<stop offset="0.79" stop-color="#FD7902"/>
<stop offset="1" stop-color="#E06F01"/>
</radialGradient>
<radialGradient id="paint13_radial_226_19088" cx="0" cy="0" r="1" gradientUnits="userSpaceOnUse" gradientTransform="translate(74.765 173.875) rotate(-176.428) scale(3.13584 3.14605)">
<stop offset="0.07" stop-color="#FED501"/>
<stop offset="0.79" stop-color="#FD7902"/>
<stop offset="1" stop-color="#E06F01"/>
</radialGradient>
<radialGradient id="paint14_radial_226_19088" cx="0" cy="0" r="1" gradientUnits="userSpaceOnUse" gradientTransform="translate(71.4951 170.013) rotate(-166.808) scale(3.13632 3.14554)">
<stop offset="0.07" stop-color="#FED501"/>
<stop offset="0.79" stop-color="#FD7902"/>
<stop offset="1" stop-color="#E06F01"/>
</radialGradient>
<radialGradient id="paint15_radial_226_19088" cx="0" cy="0" r="1" gradientUnits="userSpaceOnUse" gradientTransform="translate(39.3974 174.566) rotate(-156.942) scale(20.7242 20.7714)">
<stop stop-color="#FED501"/>
<stop offset="0.08" stop-color="#FEC401"/>
<stop offset="0.28" stop-color="#FD9B02"/>
<stop offset="0.44" stop-color="#FD8202"/>
<stop offset="0.54" stop-color="#FD7902"/>
<stop offset="1" stop-color="#E06F01"/>
</radialGradient>
<radialGradient id="paint16_radial_226_19088" cx="0" cy="0" r="1" gradientUnits="userSpaceOnUse" gradientTransform="translate(31.3931 163.337) rotate(-156.942) scale(18.2954 18.3371)">
<stop offset="0.07" stop-color="#FED501"/>
<stop offset="0.79" stop-color="#FD7902"/>
<stop offset="1" stop-color="#E06F01"/>
</radialGradient>
<radialGradient id="paint17_radial_226_19088" cx="0" cy="0" r="1" gradientUnits="userSpaceOnUse" gradientTransform="translate(33.6547 170.579) rotate(-172.526) scale(3.13597 3.14591)">
<stop offset="0.07" stop-color="#FED501"/>
<stop offset="0.79" stop-color="#FD7902"/>
<stop offset="1" stop-color="#E06F01"/>
</radialGradient>
<radialGradient id="paint18_radial_226_19088" cx="0" cy="0" r="1" gradientUnits="userSpaceOnUse" gradientTransform="translate(28.4939 167.665) rotate(-151.021) scale(3.1382 3.14367)">
<stop offset="0.07" stop-color="#FED501"/>
<stop offset="0.79" stop-color="#FD7902"/>
<stop offset="1" stop-color="#E06F01"/>
</radialGradient>
<radialGradient id="paint19_radial_226_19088" cx="0" cy="0" r="1" gradientUnits="userSpaceOnUse" gradientTransform="translate(27.8195 162.487) rotate(-124.962) scale(3.1427 3.13918)">
<stop offset="0.07" stop-color="#FED501"/>
<stop offset="0.79" stop-color="#FD7902"/>
<stop offset="1" stop-color="#E06F01"/>
</radialGradient>
<linearGradient id="paint20_linear_226_19088" x1="86.6571" y1="46.1096" x2="78.2118" y2="85.0919" gradientUnits="userSpaceOnUse">
<stop stop-color="#BABABA"/>
<stop offset="0.09" stop-color="#A7A7A7"/>
<stop offset="0.4" stop-color="#6E6E6E"/>
<stop offset="0.67" stop-color="#454545"/>
<stop offset="0.88" stop-color="#2B2B2B"/>
<stop offset="1" stop-color="#222222"/>
</linearGradient>
<linearGradient id="paint21_linear_226_19088" x1="36.1814" y1="173.441" x2="45.688" y2="141.952" gradientUnits="userSpaceOnUse">
<stop stop-color="#BABABA"/>
<stop offset="0.15" stop-color="#AAAAAA"/>
<stop offset="0.43" stop-color="#828282"/>
<stop offset="0.83" stop-color="#414141"/>
<stop offset="1" stop-color="#222222"/>
</linearGradient>
<radialGradient id="paint22_radial_226_19088" cx="0" cy="0" r="1" gradientUnits="userSpaceOnUse" gradientTransform="translate(37.8973 157.795) rotate(180) scale(20.0268 17.2796)">
<stop stop-color="#F2F2F2"/>
<stop offset="0.1" stop-color="#EEEDEC"/>
<stop offset="0.23" stop-color="#E2DFDC"/>
<stop offset="0.38" stop-color="#CEC7C2"/>
<stop offset="0.54" stop-color="#B2A69D"/>
<stop offset="0.71" stop-color="#8E7B6E"/>
<stop offset="0.88" stop-color="#634836"/>
<stop offset="1" stop-color="#42210B"/>
</radialGradient>
<linearGradient id="paint23_linear_226_19088" x1="79.466" y1="168.902" x2="73.0025" y2="138.896" gradientUnits="userSpaceOnUse">
<stop stop-color="#BABABA"/>
<stop offset="0.15" stop-color="#AAAAAA"/>
<stop offset="0.43" stop-color="#828282"/>
<stop offset="0.83" stop-color="#414141"/>
<stop offset="1" stop-color="#222222"/>
</linearGradient>
<radialGradient id="paint24_radial_226_19088" cx="0" cy="0" r="1" gradientUnits="userSpaceOnUse" gradientTransform="translate(78.6898 154.069) rotate(167.181) scale(25.0294 13.9385)">
<stop stop-color="#F2F2F2"/>
<stop offset="0.1" stop-color="#EEEDEC"/>
<stop offset="0.23" stop-color="#E2DFDC"/>
<stop offset="0.38" stop-color="#CEC7C2"/>
<stop offset="0.54" stop-color="#B2A69D"/>
<stop offset="0.71" stop-color="#8E7B6E"/>
<stop offset="0.88" stop-color="#634836"/>
<stop offset="1" stop-color="#42210B"/>
</radialGradient>
<linearGradient id="paint25_linear_226_19088" x1="65.7988" y1="47.8841" x2="38.7929" y2="172.691" gradientUnits="userSpaceOnUse">
<stop stop-color="#BABABA"/>
<stop offset="0.15" stop-color="#AAAAAA"/>
<stop offset="0.43" stop-color="#828282"/>
<stop offset="0.83" stop-color="#414141"/>
<stop offset="1" stop-color="#222222"/>
</linearGradient>
<radialGradient id="paint26_radial_226_19088" cx="0" cy="0" r="1" gradientUnits="userSpaceOnUse" gradientTransform="translate(44.9828 115.928) rotate(180) scale(47.1426 47.2973)">
<stop stop-color="#B3B3B3"/>
<stop offset="0.21" stop-color="#AEAEAE"/>
<stop offset="0.45" stop-color="#A0A0A0"/>
<stop offset="0.71" stop-color="#898989"/>
<stop offset="0.98" stop-color="#686868"/>
<stop offset="1" stop-color="#666666"/>
</radialGradient>
<radialGradient id="paint27_radial_226_19088" cx="0" cy="0" r="1" gradientUnits="userSpaceOnUse" gradientTransform="translate(66.6056 144.285) rotate(180) scale(5.39427 5.41196)">
<stop stop-color="#B3B3B3"/>
<stop offset="0.21" stop-color="#AEAEAE"/>
<stop offset="0.45" stop-color="#A0A0A0"/>
<stop offset="0.71" stop-color="#898989"/>
<stop offset="0.98" stop-color="#686868"/>
<stop offset="1" stop-color="#666666"/>
</radialGradient>
<radialGradient id="paint28_radial_226_19088" cx="0" cy="0" r="1" gradientUnits="userSpaceOnUse" gradientTransform="translate(60.5526 149.602) rotate(180) scale(4.28089 4.29493)">
<stop stop-color="#B3B3B3"/>
<stop offset="0.21" stop-color="#AEAEAE"/>
<stop offset="0.45" stop-color="#A0A0A0"/>
<stop offset="0.71" stop-color="#898989"/>
<stop offset="0.98" stop-color="#686868"/>
<stop offset="1" stop-color="#666666"/>
</radialGradient>
<radialGradient id="paint29_radial_226_19088" cx="0" cy="0" r="1" gradientUnits="userSpaceOnUse" gradientTransform="translate(84.2013 136.423) rotate(180) scale(3.38243 3.39353)">
<stop stop-color="#B3B3B3"/>
<stop offset="0.21" stop-color="#AEAEAE"/>
<stop offset="0.45" stop-color="#A0A0A0"/>
<stop offset="0.71" stop-color="#898989"/>
<stop offset="0.98" stop-color="#686868"/>
<stop offset="1" stop-color="#666666"/>
</radialGradient>
<radialGradient id="paint30_radial_226_19088" cx="0" cy="0" r="1" gradientUnits="userSpaceOnUse" gradientTransform="translate(79.5082 141.814) rotate(180) scale(2.16335 2.17044)">
<stop stop-color="#B3B3B3"/>
<stop offset="0.21" stop-color="#AEAEAE"/>
<stop offset="0.45" stop-color="#A0A0A0"/>
<stop offset="0.71" stop-color="#898989"/>
<stop offset="0.98" stop-color="#686868"/>
<stop offset="1" stop-color="#666666"/>
</radialGradient>
<linearGradient id="paint31_linear_226_19088" x1="45.0955" y1="137.19" x2="42.9257" y2="147.216" gradientUnits="userSpaceOnUse">
<stop stop-color="#BABABA"/>
<stop offset="0.15" stop-color="#AAAAAA"/>
<stop offset="0.43" stop-color="#828282"/>
<stop offset="0.83" stop-color="#414141"/>
<stop offset="1" stop-color="#222222"/>
</linearGradient>
<linearGradient id="paint32_linear_226_19088" x1="50.5743" y1="137.834" x2="49.3122" y2="143.668" gradientUnits="userSpaceOnUse">
<stop stop-color="#BABABA"/>
<stop offset="0.15" stop-color="#AAAAAA"/>
<stop offset="0.43" stop-color="#828282"/>
<stop offset="0.83" stop-color="#414141"/>
<stop offset="1" stop-color="#222222"/>
</linearGradient>
<linearGradient id="paint33_linear_226_19088" x1="34.4127" y1="130.563" x2="32.2358" y2="140.62" gradientUnits="userSpaceOnUse">
<stop stop-color="#BABABA"/>
<stop offset="0.15" stop-color="#AAAAAA"/>
<stop offset="0.43" stop-color="#828282"/>
<stop offset="0.83" stop-color="#414141"/>
<stop offset="1" stop-color="#222222"/>
</linearGradient>
<linearGradient id="paint34_linear_226_19088" x1="39.291" y1="126.248" x2="38.9546" y2="138.087" gradientUnits="userSpaceOnUse">
<stop stop-color="#BABABA"/>
<stop offset="0.15" stop-color="#AAAAAA"/>
<stop offset="0.43" stop-color="#828282"/>
<stop offset="0.83" stop-color="#414141"/>
<stop offset="1" stop-color="#222222"/>
</linearGradient>
<linearGradient id="paint35_linear_226_19088" x1="36.9337" y1="117.5" x2="33.0632" y2="128.688" gradientUnits="userSpaceOnUse">
<stop stop-color="#BABABA"/>
<stop offset="0.15" stop-color="#AAAAAA"/>
<stop offset="0.43" stop-color="#828282"/>
<stop offset="0.83" stop-color="#414141"/>
<stop offset="1" stop-color="#222222"/>
</linearGradient>
<radialGradient id="paint36_radial_226_19088" cx="0" cy="0" r="1" gradientUnits="userSpaceOnUse" gradientTransform="translate(72.9971 67.3899) rotate(180) scale(29.864 29.962)">
<stop stop-color="#FFE54D"/>
<stop offset="0.22" stop-color="#FFE14B"/>
<stop offset="0.43" stop-color="#FFD646"/>
<stop offset="0.63" stop-color="#FFC33E"/>
<stop offset="0.82" stop-color="#FEA932"/>
<stop offset="1" stop-color="#FE8A24"/>
</radialGradient>
<radialGradient id="paint37_radial_226_19088" cx="0" cy="0" r="1" gradientUnits="userSpaceOnUse" gradientTransform="translate(73.1521 85.0681) rotate(180) scale(16.7184 16.7732)">
<stop stop-color="white"/>
<stop offset="0.26" stop-color="#FAFAFA"/>
<stop offset="0.57" stop-color="#ECECEC"/>
<stop offset="0.9" stop-color="#D5D5D5"/>
<stop offset="1" stop-color="#CCCCCC"/>
</radialGradient>
<radialGradient id="paint38_radial_226_19088" cx="0" cy="0" r="1" gradientUnits="userSpaceOnUse" gradientTransform="translate(48.027 109.834) rotate(180) scale(24.7375 24.8187)">
<stop stop-color="#FE8A24"/>
<stop offset="0.4" stop-color="#FEAC33"/>
<stop offset="1" stop-color="#FFE54D"/>
</radialGradient>
<linearGradient id="paint39_linear_226_19088" x1="16.6901" y1="44.8405" x2="37.2988" y2="130.893" gradientUnits="userSpaceOnUse">
<stop stop-color="#BABABA"/>
<stop offset="0.09" stop-color="#A7A7A7"/>
<stop offset="0.4" stop-color="#6E6E6E"/>
<stop offset="0.67" stop-color="#454545"/>
<stop offset="0.88" stop-color="#2B2B2B"/>
<stop offset="1" stop-color="#222222"/>
</linearGradient>
<radialGradient id="paint40_radial_226_19088" cx="0" cy="0" r="1" gradientUnits="userSpaceOnUse" gradientTransform="translate(32.9435 69.228) rotate(180) scale(47.0686 47.2231)">
<stop stop-color="white"/>
<stop offset="0.26" stop-color="#FAFAFA"/>
<stop offset="0.57" stop-color="#ECECEC"/>
<stop offset="0.9" stop-color="#D5D5D5"/>
<stop offset="1" stop-color="#CCCCCC"/>
</radialGradient>
<radialGradient id="paint41_radial_226_19088" cx="0" cy="0" r="1" gradientUnits="userSpaceOnUse" gradientTransform="translate(10.9224 111.622) rotate(180) scale(4.73188 4.7474)">
<stop stop-color="white"/>
<stop offset="0.26" stop-color="#FAFAFA"/>
<stop offset="0.57" stop-color="#ECECEC"/>
<stop offset="0.9" stop-color="#D5D5D5"/>
<stop offset="1" stop-color="#CCCCCC"/>
</radialGradient>
<radialGradient id="paint42_radial_226_19088" cx="0" cy="0" r="1" gradientUnits="userSpaceOnUse" gradientTransform="translate(5.50705 109.88) rotate(180) scale(4.71074 4.72619)">
<stop stop-color="white"/>
<stop offset="0.26" stop-color="#FAFAFA"/>
<stop offset="0.57" stop-color="#ECECEC"/>
<stop offset="0.9" stop-color="#D5D5D5"/>
<stop offset="1" stop-color="#CCCCCC"/>
</radialGradient>
<radialGradient id="paint43_radial_226_19088" cx="0" cy="0" r="1" gradientUnits="userSpaceOnUse" gradientTransform="translate(56.321 94.1597) rotate(180) scale(75.5515 75.7994)">
<stop stop-color="#F2F2F2"/>
<stop offset="0.1" stop-color="#EEEDEC"/>
<stop offset="0.23" stop-color="#E2DFDC"/>
<stop offset="0.38" stop-color="#CEC7C2"/>
<stop offset="0.54" stop-color="#B2A69D"/>
<stop offset="0.71" stop-color="#8E7B6E"/>
<stop offset="0.88" stop-color="#634836"/>
<stop offset="1" stop-color="#42210B"/>
</radialGradient>
<radialGradient id="paint44_radial_226_19088" cx="0" cy="0" r="1" gradientUnits="userSpaceOnUse" gradientTransform="translate(7.30748 58.4535) scale(14.9355 14.9845)">
<stop stop-color="#9D0001"/>
<stop offset="0.32" stop-color="#980001"/>
<stop offset="0.7" stop-color="#8A0002"/>
<stop offset="1" stop-color="#790002"/>
</radialGradient>
<radialGradient id="paint45_radial_226_19088" cx="0" cy="0" r="1" gradientUnits="userSpaceOnUse" gradientTransform="translate(11.7417 57.0003) rotate(-164.03) scale(10.9921 15.1011)">
<stop stop-color="#F2F2F2"/>
<stop offset="0.14" stop-color="#EDEDED"/>
<stop offset="0.31" stop-color="#DFDFDF"/>
<stop offset="0.49" stop-color="#C7C7C7"/>
<stop offset="0.59" stop-color="#D8D8D8"/>
<stop offset="0.7" stop-color="#F2F2F2"/>
</radialGradient>
<radialGradient id="paint46_radial_226_19088" cx="0" cy="0" r="1" gradientUnits="userSpaceOnUse" gradientTransform="translate(10.2953 51.2742) scale(5.54225 5.56044)">
<stop stop-color="#730001"/>
<stop offset="0.32" stop-color="#6E0001"/>
<stop offset="0.7" stop-color="#600001"/>
<stop offset="1" stop-color="#4F0001"/>
</radialGradient>
<radialGradient id="paint47_radial_226_19088" cx="0" cy="0" r="1" gradientUnits="userSpaceOnUse" gradientTransform="translate(8.68156 58.7648) rotate(180) scale(4.44296 4.45754)">
<stop stop-color="#FFE54D"/>
<stop offset="0.22" stop-color="#FFE14B"/>
<stop offset="0.43" stop-color="#FFD646"/>
<stop offset="0.63" stop-color="#FFC33E"/>
<stop offset="0.82" stop-color="#FEA932"/>
<stop offset="1" stop-color="#FE8A24"/>
</radialGradient>
<radialGradient id="paint48_radial_226_19088" cx="0" cy="0" r="1" gradientUnits="userSpaceOnUse" gradientTransform="translate(2.36773 63.095) scale(9.96407 9.99677)">
<stop stop-color="#FB6A00"/>
<stop offset="1" stop-color="#EB0401"/>
</radialGradient>
<radialGradient id="paint49_radial_226_19088" cx="0" cy="0" r="1" gradientUnits="userSpaceOnUse" gradientTransform="translate(2.78698 61.5289) scale(5.00314 5.01959)">
<stop stop-color="white"/>
<stop offset="1" stop-color="white" stop-opacity="0"/>
</radialGradient>
<radialGradient id="paint50_radial_226_19088" cx="0" cy="0" r="1" gradientUnits="userSpaceOnUse" gradientTransform="translate(2.73415 61.2533) scale(5.00318 5.01959)">
<stop stop-color="white"/>
<stop offset="1" stop-color="white" stop-opacity="0"/>
</radialGradient>
<radialGradient id="paint51_radial_226_19088" cx="0" cy="0" r="1" gradientUnits="userSpaceOnUse" gradientTransform="translate(38.6936 56.5694) scale(15.1223 15.1719)">
<stop stop-color="#9D0001"/>
<stop offset="0.32" stop-color="#980001"/>
<stop offset="0.7" stop-color="#8A0002"/>
<stop offset="1" stop-color="#790002"/>
</radialGradient>
<radialGradient id="paint52_radial_226_19088" cx="0" cy="0" r="1" gradientUnits="userSpaceOnUse" gradientTransform="translate(37.6425 58.1537) rotate(-18.6725) scale(14.7828 20.2918)">
<stop stop-color="#F2F2F2"/>
<stop offset="0.14" stop-color="#EDEDED"/>
<stop offset="0.31" stop-color="#DFDFDF"/>
<stop offset="0.49" stop-color="#C7C7C7"/>
<stop offset="0.59" stop-color="#D8D8D8"/>
<stop offset="0.7" stop-color="#F2F2F2"/>
</radialGradient>
<radialGradient id="paint53_radial_226_19088" cx="0" cy="0" r="1" gradientUnits="userSpaceOnUse" gradientTransform="translate(37.7669 52.5148) scale(11.1092 11.1456)">
<stop stop-color="#730001"/>
<stop offset="0.32" stop-color="#6E0001"/>
<stop offset="0.7" stop-color="#600001"/>
<stop offset="1" stop-color="#4F0001"/>
</radialGradient>
<radialGradient id="paint54_radial_226_19088" cx="0" cy="0" r="1" gradientUnits="userSpaceOnUse" gradientTransform="translate(39.5953 58.6636) rotate(-180) scale(4.7354 4.75094)">
<stop stop-color="#FFE54D"/>
<stop offset="0.22" stop-color="#FFE14B"/>
<stop offset="0.43" stop-color="#FFD646"/>
<stop offset="0.63" stop-color="#FFC33E"/>
<stop offset="0.82" stop-color="#FEA932"/>
<stop offset="1" stop-color="#FE8A24"/>
</radialGradient>
<radialGradient id="paint55_radial_226_19088" cx="0" cy="0" r="1" gradientUnits="userSpaceOnUse" gradientTransform="translate(41.0507 62.8227) scale(13.3535 13.3974)">
<stop stop-color="#9D0001"/>
<stop offset="0.32" stop-color="#980001"/>
<stop offset="0.7" stop-color="#8A0002"/>
<stop offset="1" stop-color="#790002"/>
</radialGradient>
<radialGradient id="paint56_radial_226_19088" cx="0" cy="0" r="1" gradientUnits="userSpaceOnUse" gradientTransform="translate(34.5149 64.7282) scale(17.416 17.4731)">
<stop stop-color="#FB6A00"/>
<stop offset="1" stop-color="#EB0401"/>
</radialGradient>
<radialGradient id="paint57_radial_226_19088" cx="0" cy="0" r="1" gradientUnits="userSpaceOnUse" gradientTransform="translate(38.6936 60.5887) scale(10.5419 10.5765)">
<stop stop-color="white"/>
<stop offset="1" stop-color="white" stop-opacity="0"/>
</radialGradient>
<radialGradient id="paint58_radial_226_19088" cx="0" cy="0" r="1" gradientUnits="userSpaceOnUse" gradientTransform="translate(19.0438 69.1643) scale(24.6177 24.6985)">
<stop stop-color="#730001"/>
<stop offset="0.32" stop-color="#6E0001"/>
<stop offset="0.7" stop-color="#600001"/>
<stop offset="1" stop-color="#4F0001"/>
</radialGradient>
<radialGradient id="paint59_radial_226_19088" cx="0" cy="0" r="1" gradientUnits="userSpaceOnUse" gradientTransform="translate(15.9996 74.1026) scale(24.1597 24.239)">
<stop stop-color="#F12A05"/>
<stop offset="1" stop-color="#4F0001"/>
</radialGradient>
<radialGradient id="paint60_radial_226_19088" cx="0" cy="0" r="1" gradientUnits="userSpaceOnUse" gradientTransform="translate(4.89745 75.5237) scale(20.7702 20.8384)">
<stop stop-color="#FB6A00"/>
<stop offset="1" stop-color="#EB0401"/>
</radialGradient>
<radialGradient id="paint61_radial_226_19088" cx="0" cy="0" r="1" gradientUnits="userSpaceOnUse" gradientTransform="translate(21.8096 76.4356) scale(17.7331 17.7913)">
<stop stop-color="#FB6A00"/>
<stop offset="1" stop-color="#EB0401"/>
</radialGradient>
<radialGradient id="paint62_radial_226_19088" cx="0" cy="0" r="1" gradientUnits="userSpaceOnUse" gradientTransform="translate(9.75271 61.0941) scale(27.4259 27.5159)">
<stop stop-color="#FB6A00"/>
<stop offset="1" stop-color="#EB0401"/>
</radialGradient>
<radialGradient id="paint63_radial_226_19088" cx="0" cy="0" r="1" gradientUnits="userSpaceOnUse" gradientTransform="translate(15.2526 73.2401) scale(25.717 25.8014)">
<stop stop-color="#FED501"/>
<stop offset="0.48" stop-color="#FD7902"/>
<stop offset="1" stop-color="#E06F01"/>
</radialGradient>
<radialGradient id="paint64_radial_226_19088" cx="0" cy="0" r="1" gradientUnits="userSpaceOnUse" gradientTransform="translate(13.424 74.191) scale(21.2705 21.3403)">
<stop stop-color="#FED501"/>
<stop offset="0.48" stop-color="#FD7902"/>
<stop offset="1" stop-color="#E06F01"/>
</radialGradient>
<radialGradient id="paint65_radial_226_19088" cx="0" cy="0" r="1" gradientUnits="userSpaceOnUse" gradientTransform="translate(16.1934 63.9081) scale(25.6924 25.7767)">
<stop offset="0.07" stop-color="#FED501"/>
<stop offset="0.79" stop-color="#FD7902"/>
<stop offset="1" stop-color="#E06F01"/>
</radialGradient>
<radialGradient id="paint66_radial_226_19088" cx="0" cy="0" r="1" gradientUnits="userSpaceOnUse" gradientTransform="translate(12.7863 67.0542) scale(22.6165 22.6907)">
<stop stop-color="#FED501"/>
<stop offset="0.08" stop-color="#FEC401"/>
<stop offset="0.28" stop-color="#FD9B02"/>
<stop offset="0.44" stop-color="#FD8202"/>
<stop offset="0.54" stop-color="#FD7902"/>
<stop offset="1" stop-color="#E06F01"/>
</radialGradient>
<radialGradient id="paint67_radial_226_19088" cx="0" cy="0" r="1" gradientUnits="userSpaceOnUse" gradientTransform="translate(22.3734 81.063) scale(9.22063 9.2509)">
<stop stop-color="white"/>
<stop offset="1" stop-color="white" stop-opacity="0"/>
</radialGradient>
<radialGradient id="paint68_radial_226_19088" cx="0" cy="0" r="1" gradientUnits="userSpaceOnUse" gradientTransform="translate(3.91447 78.5707) scale(11.0951 11.1315)">
<stop stop-color="white"/>
<stop offset="1" stop-color="white" stop-opacity="0"/>
</radialGradient>
<radialGradient id="paint69_radial_226_19088" cx="0" cy="0" r="1" gradientUnits="userSpaceOnUse" gradientTransform="translate(10.785 63.823) scale(7.18061 7.20418)">
<stop stop-color="white"/>
<stop offset="1" stop-color="white" stop-opacity="0"/>
</radialGradient>
<radialGradient id="paint70_radial_226_19088" cx="0" cy="0" r="1" gradientUnits="userSpaceOnUse" gradientTransform="translate(21.5383 63.3741) rotate(180) scale(10.8449 10.8805)">
<stop stop-color="#730001"/>
<stop offset="0.32" stop-color="#6E0001"/>
<stop offset="0.7" stop-color="#600001"/>
<stop offset="1" stop-color="#4F0001"/>
</radialGradient>
<radialGradient id="paint71_radial_226_19088" cx="0" cy="0" r="1" gradientUnits="userSpaceOnUse" gradientTransform="translate(20.5025 60.1504) rotate(180) scale(3.49518 3.50664)">
<stop stop-color="#FB6A00"/>
<stop offset="1" stop-color="#EB0401"/>
</radialGradient>
<radialGradient id="paint72_radial_226_19088" cx="0" cy="0" r="1" gradientUnits="userSpaceOnUse" gradientTransform="translate(18.8394 60.0303) rotate(180) scale(1.50095 1.50588)">
<stop stop-color="#730001"/>
<stop offset="0.32" stop-color="#6E0001"/>
<stop offset="0.7" stop-color="#600001"/>
<stop offset="1" stop-color="#4F0001"/>
</radialGradient>
<radialGradient id="paint73_radial_226_19088" cx="0" cy="0" r="1" gradientUnits="userSpaceOnUse" gradientTransform="translate(13.7341 60.0937) rotate(180) scale(0.975967 0.979174)">
<stop stop-color="#730001"/>
<stop offset="0.32" stop-color="#6E0001"/>
<stop offset="0.7" stop-color="#600001"/>
<stop offset="1" stop-color="#4F0001"/>
</radialGradient>
<linearGradient id="paint74_linear_226_19088" x1="41.6849" y1="80.1758" x2="44.4254" y2="91.6285" gradientUnits="userSpaceOnUse">
<stop stop-color="#BABABA"/>
<stop offset="0.09" stop-color="#A7A7A7"/>
<stop offset="0.4" stop-color="#6E6E6E"/>
<stop offset="0.67" stop-color="#454545"/>
<stop offset="0.88" stop-color="#2B2B2B"/>
<stop offset="1" stop-color="#222222"/>
</linearGradient>
<linearGradient id="paint75_linear_226_19088" x1="35.1103" y1="82.1658" x2="38.9286" y2="98.1097" gradientUnits="userSpaceOnUse">
<stop stop-color="#BABABA"/>
<stop offset="0.09" stop-color="#A7A7A7"/>
<stop offset="0.4" stop-color="#6E6E6E"/>
<stop offset="0.67" stop-color="#454545"/>
<stop offset="0.88" stop-color="#2B2B2B"/>
<stop offset="1" stop-color="#222222"/>
</linearGradient>
<linearGradient id="paint76_linear_226_19088" x1="24.3676" y1="92.6293" x2="27.2534" y2="104.676" gradientUnits="userSpaceOnUse">
<stop stop-color="#BABABA"/>
<stop offset="0.09" stop-color="#A7A7A7"/>
<stop offset="0.4" stop-color="#6E6E6E"/>
<stop offset="0.67" stop-color="#454545"/>
<stop offset="0.88" stop-color="#2B2B2B"/>
<stop offset="1" stop-color="#222222"/>
</linearGradient>
<linearGradient id="paint77_linear_226_19088" x1="13.3465" y1="93.1241" x2="15.3638" y2="101.548" gradientUnits="userSpaceOnUse">
<stop stop-color="#BABABA"/>
<stop offset="0.09" stop-color="#A7A7A7"/>
<stop offset="0.4" stop-color="#6E6E6E"/>
<stop offset="0.67" stop-color="#454545"/>
<stop offset="0.88" stop-color="#2B2B2B"/>
<stop offset="1" stop-color="#222222"/>
</linearGradient>
<linearGradient id="paint78_linear_226_19088" x1="3.85456" y1="87.5214" x2="7.43527" y2="102.476" gradientUnits="userSpaceOnUse">
<stop stop-color="#BABABA"/>
<stop offset="0.09" stop-color="#A7A7A7"/>
<stop offset="0.4" stop-color="#6E6E6E"/>
<stop offset="0.67" stop-color="#454545"/>
<stop offset="0.88" stop-color="#2B2B2B"/>
<stop offset="1" stop-color="#222222"/>
</linearGradient>
<linearGradient id="paint79_linear_226_19088" x1="1.83567" y1="86.5102" x2="3.48066" y2="93.3832" gradientUnits="userSpaceOnUse">
<stop stop-color="#BABABA"/>
<stop offset="0.09" stop-color="#A7A7A7"/>
<stop offset="0.4" stop-color="#6E6E6E"/>
<stop offset="0.67" stop-color="#454545"/>
<stop offset="0.88" stop-color="#2B2B2B"/>
<stop offset="1" stop-color="#222222"/>
</linearGradient>
<radialGradient id="paint80_radial_226_19088" cx="0" cy="0" r="1" gradientUnits="userSpaceOnUse" gradientTransform="translate(29.6526 107.458) rotate(180) scale(5.27801 5.29532)">
<stop stop-color="white"/>
<stop offset="0.26" stop-color="#FAFAFA"/>
<stop offset="0.57" stop-color="#ECECEC"/>
<stop offset="0.9" stop-color="#D5D5D5"/>
<stop offset="1" stop-color="#CCCCCC"/>
</radialGradient>
<radialGradient id="paint81_radial_226_19088" cx="0" cy="0" r="1" gradientUnits="userSpaceOnUse" gradientTransform="translate(52.248 91.8833) rotate(180) scale(3.71363 3.72581)">
<stop stop-color="white"/>
<stop offset="0.26" stop-color="#FAFAFA"/>
<stop offset="0.57" stop-color="#ECECEC"/>
<stop offset="0.9" stop-color="#D5D5D5"/>
<stop offset="1" stop-color="#CCCCCC"/>
</radialGradient>
<linearGradient id="paint82_linear_226_19088" x1="54.3479" y1="117.649" x2="52.4334" y2="126.495" gradientUnits="userSpaceOnUse">
<stop stop-color="#BABABA"/>
<stop offset="0.15" stop-color="#AAAAAA"/>
<stop offset="0.43" stop-color="#828282"/>
<stop offset="0.83" stop-color="#414141"/>
<stop offset="1" stop-color="#222222"/>
</linearGradient>
<linearGradient id="paint83_linear_226_19088" x1="53.6714" y1="127.416" x2="52.3312" y2="133.608" gradientUnits="userSpaceOnUse">
<stop stop-color="#BABABA"/>
<stop offset="0.15" stop-color="#AAAAAA"/>
<stop offset="0.43" stop-color="#828282"/>
<stop offset="0.83" stop-color="#414141"/>
<stop offset="1" stop-color="#222222"/>
</linearGradient>
<linearGradient id="paint84_linear_226_19088" x1="45.6797" y1="122.13" x2="40.3596" y2="125.551" gradientUnits="userSpaceOnUse">
<stop stop-color="#BABABA"/>
<stop offset="0.15" stop-color="#AAAAAA"/>
<stop offset="0.43" stop-color="#828282"/>
<stop offset="0.83" stop-color="#414141"/>
<stop offset="1" stop-color="#222222"/>
</linearGradient>
<radialGradient id="paint85_radial_226_19088" cx="0" cy="0" r="1" gradientUnits="userSpaceOnUse" gradientTransform="translate(71.3235 129.82) rotate(180) scale(6.53936 6.56082)">
<stop stop-color="#B3B3B3"/>
<stop offset="0.21" stop-color="#AEAEAE"/>
<stop offset="0.45" stop-color="#A0A0A0"/>
<stop offset="0.71" stop-color="#898989"/>
<stop offset="0.98" stop-color="#686868"/>
<stop offset="1" stop-color="#666666"/>
</radialGradient>
<radialGradient id="paint86_radial_226_19088" cx="0" cy="0" r="1" gradientUnits="userSpaceOnUse" gradientTransform="translate(70.7034 136.498) rotate(180) scale(5.26391 5.28119)">
<stop stop-color="#B3B3B3"/>
<stop offset="0.21" stop-color="#AEAEAE"/>
<stop offset="0.45" stop-color="#A0A0A0"/>
<stop offset="0.71" stop-color="#898989"/>
<stop offset="0.98" stop-color="#686868"/>
<stop offset="1" stop-color="#666666"/>
</radialGradient>
<radialGradient id="paint87_radial_226_19088" cx="0" cy="0" r="1" gradientUnits="userSpaceOnUse" gradientTransform="translate(88.0771 123.114) rotate(180) scale(3.69249 3.7046)">
<stop stop-color="#B3B3B3"/>
<stop offset="0.21" stop-color="#AEAEAE"/>
<stop offset="0.45" stop-color="#A0A0A0"/>
<stop offset="0.71" stop-color="#898989"/>
<stop offset="0.98" stop-color="#686868"/>
<stop offset="1" stop-color="#666666"/>
</radialGradient>
<radialGradient id="paint88_radial_226_19088" cx="0" cy="0" r="1" gradientUnits="userSpaceOnUse" gradientTransform="translate(83.3487 129.951) rotate(180) scale(3.25207 3.26274)">
<stop stop-color="#B3B3B3"/>
<stop offset="0.21" stop-color="#AEAEAE"/>
<stop offset="0.45" stop-color="#A0A0A0"/>
<stop offset="0.71" stop-color="#898989"/>
<stop offset="0.98" stop-color="#686868"/>
<stop offset="1" stop-color="#666666"/>
</radialGradient>
<radialGradient id="paint89_radial_226_19088" cx="0" cy="0" r="1" gradientUnits="userSpaceOnUse" gradientTransform="translate(64.1569 109.466) rotate(180) scale(2.83278 2.84208)">
<stop stop-color="#B3B3B3"/>
<stop offset="0.21" stop-color="#AEAEAE"/>
<stop offset="0.45" stop-color="#A0A0A0"/>
<stop offset="0.71" stop-color="#898989"/>
<stop offset="0.98" stop-color="#686868"/>
<stop offset="1" stop-color="#666666"/>
</radialGradient>
<radialGradient id="paint90_radial_226_19088" cx="0" cy="0" r="1" gradientUnits="userSpaceOnUse" gradientTransform="translate(60.2672 116.426) rotate(180) scale(2.56148 2.56989)">
<stop stop-color="#B3B3B3"/>
<stop offset="0.21" stop-color="#AEAEAE"/>
<stop offset="0.45" stop-color="#A0A0A0"/>
<stop offset="0.71" stop-color="#898989"/>
<stop offset="0.98" stop-color="#686868"/>
<stop offset="1" stop-color="#666666"/>
</radialGradient>
<linearGradient id="paint91_linear_226_19088" x1="95.7756" y1="80.2818" x2="99.2074" y2="94.6179" gradientUnits="userSpaceOnUse">
<stop stop-color="#006837"/>
<stop offset="0.41" stop-color="#11452C"/>
<stop offset="0.78" stop-color="#1D2B25"/>
<stop offset="1" stop-color="#222222"/>
</linearGradient>
<linearGradient id="paint92_linear_226_19088" x1="98.175" y1="75.4636" x2="104.9" y2="103.56" gradientUnits="userSpaceOnUse">
<stop stop-color="#006837"/>
<stop offset="0.41" stop-color="#11452C"/>
<stop offset="0.78" stop-color="#1D2B25"/>
<stop offset="1" stop-color="#222222"/>
</linearGradient>
<linearGradient id="paint93_linear_226_19088" x1="101.466" y1="72.2362" x2="110.244" y2="108.887" gradientUnits="userSpaceOnUse">
<stop stop-color="#006837"/>
<stop offset="0.41" stop-color="#11452C"/>
<stop offset="0.78" stop-color="#1D2B25"/>
<stop offset="1" stop-color="#222222"/>
</linearGradient>
<linearGradient id="paint94_linear_226_19088" x1="99.9684" y1="84.2091" x2="107.031" y2="113.694" gradientUnits="userSpaceOnUse">
<stop stop-color="#006837"/>
<stop offset="0.41" stop-color="#11452C"/>
<stop offset="0.78" stop-color="#1D2B25"/>
<stop offset="1" stop-color="#222222"/>
</linearGradient>
<linearGradient id="paint95_linear_226_19088" x1="91.0543" y1="76.2908" x2="77.9076" y2="137.049" gradientUnits="userSpaceOnUse">
<stop stop-color="#BABABA"/>
<stop offset="0.15" stop-color="#AAAAAA"/>
<stop offset="0.43" stop-color="#828282"/>
<stop offset="0.83" stop-color="#414141"/>
<stop offset="1" stop-color="#222222"/>
</linearGradient>
<radialGradient id="paint96_radial_226_19088" cx="0" cy="0" r="1" gradientUnits="userSpaceOnUse" gradientTransform="translate(84.6101 101.767) rotate(180) scale(23.7017 23.7794)">
<stop stop-color="#B3B3B3"/>
<stop offset="0.21" stop-color="#AEAEAE"/>
<stop offset="0.45" stop-color="#A0A0A0"/>
<stop offset="0.71" stop-color="#898989"/>
<stop offset="0.98" stop-color="#686868"/>
<stop offset="1" stop-color="#666666"/>
</radialGradient>
<radialGradient id="paint97_radial_226_19088" cx="0" cy="0" r="1" gradientUnits="userSpaceOnUse" gradientTransform="translate(75.696 97.5038) rotate(180) scale(13.6072 13.6519)">
<stop stop-color="#FFE54D"/>
<stop offset="0.22" stop-color="#FFE14B"/>
<stop offset="0.43" stop-color="#FFD646"/>
<stop offset="0.63" stop-color="#FFC33E"/>
<stop offset="0.82" stop-color="#FEA932"/>
<stop offset="1" stop-color="#FE8A24"/>
</radialGradient>
<radialGradient id="paint98_radial_226_19088" cx="0" cy="0" r="1" gradientUnits="userSpaceOnUse" gradientTransform="translate(25.7382 141.775) rotate(180) scale(10.1755 10.2089)">
<stop stop-color="white"/>
<stop offset="1" stop-color="white" stop-opacity="0"/>
</radialGradient>
<radialGradient id="paint99_radial_226_19088" cx="0" cy="0" r="1" gradientUnits="userSpaceOnUse" gradientTransform="translate(8.41024 104.941) rotate(180) scale(26.2068 26.2928)">
<stop stop-color="white"/>
<stop offset="1" stop-color="white" stop-opacity="0"/>
</radialGradient>
<radialGradient id="paint100_radial_226_19088" cx="0" cy="0" r="1" gradientUnits="userSpaceOnUse" gradientTransform="translate(36.5029 23.1914) rotate(175.827) scale(30.5323 27.6801)">
<stop stop-color="#FB6A00"/>
<stop offset="1" stop-color="#EB0401"/>
</radialGradient>
<radialGradient id="paint101_radial_226_19088" cx="0" cy="0" r="1" gradientUnits="userSpaceOnUse" gradientTransform="translate(40.4883 47.2669) rotate(175.827) scale(32.4676 29.4346)">
<stop stop-color="#BE5000"/>
<stop offset="1" stop-color="#AE0301"/>
</radialGradient>
<radialGradient id="paint102_radial_226_19088" cx="0" cy="0" r="1" gradientUnits="userSpaceOnUse" gradientTransform="translate(14.3633 26.5236) rotate(175.827) scale(16.9585 15.3743)">
<stop stop-color="white"/>
<stop offset="1" stop-color="white" stop-opacity="0"/>
</radialGradient>
<radialGradient id="paint103_radial_226_19088" cx="0" cy="0" r="1" gradientUnits="userSpaceOnUse" gradientTransform="translate(28.437 28.8913) rotate(175.827) scale(12.5207 11.3511)">
<stop stop-color="white"/>
<stop offset="1" stop-color="white" stop-opacity="0"/>
</radialGradient>
</defs>
</svg>
